G04 #@! TF.FileFunction,Soldermask,Top*
%FSLAX46Y46*%
G04 Gerber Fmt 4.6, Leading zero omitted, Abs format (unit mm)*
G04 Created by KiCad (PCBNEW 4.0.6) date Friday, September 29, 2017 'AMt' 11:30:02 AM*
%MOMM*%
%LPD*%
G01*
G04 APERTURE LIST*
%ADD10C,0.100000*%
%ADD11C,0.508000*%
%ADD12C,18.180000*%
%ADD13R,2.940000X5.480000*%
%ADD14R,2.200860X1.997660*%
%ADD15R,2.300000X1.200000*%
%ADD16R,2.000000X2.400000*%
%ADD17R,2.400000X2.100000*%
G04 APERTURE END LIST*
D10*
G36*
X104095894Y-97226249D02*
X104367679Y-97220513D01*
X104636935Y-97203452D01*
X104903318Y-97175287D01*
X105166486Y-97136241D01*
X105426094Y-97086536D01*
X105681799Y-97026393D01*
X105933258Y-96956033D01*
X106180125Y-96875679D01*
X106422058Y-96785552D01*
X106658713Y-96685875D01*
X106889747Y-96576868D01*
X107114815Y-96458754D01*
X107333574Y-96331755D01*
X107545681Y-96196091D01*
X107750791Y-96051985D01*
X107948560Y-95899659D01*
X108138647Y-95739334D01*
X108320705Y-95571232D01*
X108494393Y-95395575D01*
X108659365Y-95212585D01*
X108815279Y-95022483D01*
X108961791Y-94825491D01*
X109098557Y-94621831D01*
X109225234Y-94411724D01*
X109341477Y-94195393D01*
X109446943Y-93973059D01*
X109541288Y-93744944D01*
X109624170Y-93511269D01*
X109695243Y-93272257D01*
X109754164Y-93028129D01*
X109800590Y-92779106D01*
X109834177Y-92525411D01*
X109854581Y-92267266D01*
X109861459Y-92004891D01*
X109861911Y-91673751D01*
X107152577Y-91673751D01*
X107152126Y-92004891D01*
X107140569Y-92230732D01*
X107106398Y-92451461D01*
X107050363Y-92666135D01*
X106973214Y-92873808D01*
X106875700Y-93073535D01*
X106758570Y-93264371D01*
X106622575Y-93445371D01*
X106468463Y-93615590D01*
X106296986Y-93774082D01*
X106108891Y-93919904D01*
X105904930Y-94052109D01*
X105685851Y-94169754D01*
X105452405Y-94271891D01*
X105205340Y-94357578D01*
X104945407Y-94425868D01*
X104673356Y-94475817D01*
X104389935Y-94506479D01*
X104095894Y-94516910D01*
X96487654Y-94516910D01*
X96193614Y-94506479D01*
X95910194Y-94475817D01*
X95638142Y-94425868D01*
X95378209Y-94357578D01*
X95131145Y-94271891D01*
X94897699Y-94169754D01*
X94678620Y-94052109D01*
X94474659Y-93919904D01*
X94286564Y-93774082D01*
X94115086Y-93615590D01*
X93960975Y-93445371D01*
X93824979Y-93264371D01*
X93707849Y-93073535D01*
X93610335Y-92873808D01*
X93533185Y-92666135D01*
X93477150Y-92451461D01*
X93442979Y-92230732D01*
X93431423Y-92004891D01*
X93443347Y-91673751D01*
X90734013Y-91673751D01*
X90722089Y-92004891D01*
X90728967Y-92267266D01*
X90749371Y-92525411D01*
X90782958Y-92779106D01*
X90829384Y-93028129D01*
X90888306Y-93272257D01*
X90959379Y-93511269D01*
X91042260Y-93744944D01*
X91136606Y-93973059D01*
X91242072Y-94195393D01*
X91358315Y-94411724D01*
X91484992Y-94621831D01*
X91621758Y-94825491D01*
X91768270Y-95022483D01*
X91924184Y-95212585D01*
X92089156Y-95395575D01*
X92262844Y-95571232D01*
X92444903Y-95739334D01*
X92634989Y-95899659D01*
X92832759Y-96051985D01*
X93037869Y-96196091D01*
X93249975Y-96331755D01*
X93468734Y-96458754D01*
X93693802Y-96576868D01*
X93924836Y-96685875D01*
X94161491Y-96785552D01*
X94403424Y-96875679D01*
X94650292Y-96956033D01*
X94901750Y-97026393D01*
X95157454Y-97086536D01*
X95417063Y-97136241D01*
X95680230Y-97175287D01*
X95946614Y-97203452D01*
X96215870Y-97220513D01*
X96487654Y-97226249D01*
X104095894Y-97226249D01*
X104095894Y-97226249D01*
G37*
G36*
X96488106Y-85069751D02*
X96216321Y-85075487D01*
X95947065Y-85092548D01*
X95680682Y-85120713D01*
X95417514Y-85159759D01*
X95157906Y-85209464D01*
X94902201Y-85269607D01*
X94650742Y-85339967D01*
X94403875Y-85420321D01*
X94161942Y-85510448D01*
X93925287Y-85610125D01*
X93694253Y-85719132D01*
X93469185Y-85837246D01*
X93250426Y-85964245D01*
X93038319Y-86099909D01*
X92833209Y-86244015D01*
X92635440Y-86396341D01*
X92445353Y-86556666D01*
X92263295Y-86724768D01*
X92089607Y-86900425D01*
X91924635Y-87083415D01*
X91768721Y-87273517D01*
X91622209Y-87470509D01*
X91485443Y-87674169D01*
X91358766Y-87884276D01*
X91242523Y-88100607D01*
X91137057Y-88322941D01*
X91042712Y-88551056D01*
X90959830Y-88784731D01*
X90888757Y-89023743D01*
X90829836Y-89267871D01*
X90783410Y-89516894D01*
X90749823Y-89770589D01*
X90729419Y-90028734D01*
X90722541Y-90291109D01*
X90722089Y-90622249D01*
X93431423Y-90622249D01*
X93431874Y-90291109D01*
X93443431Y-90065268D01*
X93477602Y-89844539D01*
X93533637Y-89629865D01*
X93610786Y-89422192D01*
X93708300Y-89222465D01*
X93825430Y-89031629D01*
X93961425Y-88850629D01*
X94115537Y-88680410D01*
X94287014Y-88521918D01*
X94475109Y-88376096D01*
X94679070Y-88243891D01*
X94898149Y-88126246D01*
X95131595Y-88024109D01*
X95378660Y-87938422D01*
X95638593Y-87870132D01*
X95910644Y-87820183D01*
X96194065Y-87789521D01*
X96488106Y-87779090D01*
X104096346Y-87779090D01*
X104390386Y-87789521D01*
X104673806Y-87820183D01*
X104945858Y-87870132D01*
X105205791Y-87938422D01*
X105452855Y-88024109D01*
X105686301Y-88126246D01*
X105905380Y-88243891D01*
X106109341Y-88376096D01*
X106297436Y-88521918D01*
X106468914Y-88680410D01*
X106623025Y-88850629D01*
X106759021Y-89031629D01*
X106876151Y-89222465D01*
X106973665Y-89422192D01*
X107050815Y-89629865D01*
X107106850Y-89844539D01*
X107141021Y-90065268D01*
X107152577Y-90291109D01*
X107140653Y-90622249D01*
X109849987Y-90622249D01*
X109861911Y-90291109D01*
X109855033Y-90028734D01*
X109834629Y-89770589D01*
X109801042Y-89516894D01*
X109754616Y-89267871D01*
X109695694Y-89023743D01*
X109624621Y-88784731D01*
X109541740Y-88551056D01*
X109447394Y-88322941D01*
X109341928Y-88100607D01*
X109225685Y-87884276D01*
X109099008Y-87674169D01*
X108962242Y-87470509D01*
X108815730Y-87273517D01*
X108659816Y-87083415D01*
X108494844Y-86900425D01*
X108321156Y-86724768D01*
X108139097Y-86556666D01*
X107949011Y-86396341D01*
X107751241Y-86244015D01*
X107546131Y-86099909D01*
X107334025Y-85964245D01*
X107115266Y-85837246D01*
X106890198Y-85719132D01*
X106659164Y-85610125D01*
X106422509Y-85510448D01*
X106180576Y-85420321D01*
X105933708Y-85339967D01*
X105682250Y-85269607D01*
X105426546Y-85209464D01*
X105166937Y-85159759D01*
X104903770Y-85120713D01*
X104637386Y-85092548D01*
X104368130Y-85075487D01*
X104096346Y-85069751D01*
X96488106Y-85069751D01*
X96488106Y-85069751D01*
G37*
G36*
X128987894Y-97226249D02*
X129259679Y-97220513D01*
X129528935Y-97203452D01*
X129795318Y-97175287D01*
X130058486Y-97136241D01*
X130318094Y-97086536D01*
X130573799Y-97026393D01*
X130825258Y-96956033D01*
X131072125Y-96875679D01*
X131314058Y-96785552D01*
X131550713Y-96685875D01*
X131781747Y-96576868D01*
X132006815Y-96458754D01*
X132225574Y-96331755D01*
X132437681Y-96196091D01*
X132642791Y-96051985D01*
X132840560Y-95899659D01*
X133030647Y-95739334D01*
X133212705Y-95571232D01*
X133386393Y-95395575D01*
X133551365Y-95212585D01*
X133707279Y-95022483D01*
X133853791Y-94825491D01*
X133990557Y-94621831D01*
X134117234Y-94411724D01*
X134233477Y-94195393D01*
X134338943Y-93973059D01*
X134433288Y-93744944D01*
X134516170Y-93511269D01*
X134587243Y-93272257D01*
X134646164Y-93028129D01*
X134692590Y-92779106D01*
X134726177Y-92525411D01*
X134746581Y-92267266D01*
X134753459Y-92004891D01*
X134753911Y-91673751D01*
X132044577Y-91673751D01*
X132044126Y-92004891D01*
X132032569Y-92230732D01*
X131998398Y-92451461D01*
X131942363Y-92666135D01*
X131865214Y-92873808D01*
X131767700Y-93073535D01*
X131650570Y-93264371D01*
X131514575Y-93445371D01*
X131360463Y-93615590D01*
X131188986Y-93774082D01*
X131000891Y-93919904D01*
X130796930Y-94052109D01*
X130577851Y-94169754D01*
X130344405Y-94271891D01*
X130097340Y-94357578D01*
X129837407Y-94425868D01*
X129565356Y-94475817D01*
X129281935Y-94506479D01*
X128987894Y-94516910D01*
X121379654Y-94516910D01*
X121085614Y-94506479D01*
X120802194Y-94475817D01*
X120530142Y-94425868D01*
X120270209Y-94357578D01*
X120023145Y-94271891D01*
X119789699Y-94169754D01*
X119570620Y-94052109D01*
X119366659Y-93919904D01*
X119178564Y-93774082D01*
X119007086Y-93615590D01*
X118852975Y-93445371D01*
X118716979Y-93264371D01*
X118599849Y-93073535D01*
X118502335Y-92873808D01*
X118425185Y-92666135D01*
X118369150Y-92451461D01*
X118334979Y-92230732D01*
X118323423Y-92004891D01*
X118335347Y-91673751D01*
X115626013Y-91673751D01*
X115614089Y-92004891D01*
X115620967Y-92267266D01*
X115641371Y-92525411D01*
X115674958Y-92779106D01*
X115721384Y-93028129D01*
X115780306Y-93272257D01*
X115851379Y-93511269D01*
X115934260Y-93744944D01*
X116028606Y-93973059D01*
X116134072Y-94195393D01*
X116250315Y-94411724D01*
X116376992Y-94621831D01*
X116513758Y-94825491D01*
X116660270Y-95022483D01*
X116816184Y-95212585D01*
X116981156Y-95395575D01*
X117154844Y-95571232D01*
X117336903Y-95739334D01*
X117526989Y-95899659D01*
X117724759Y-96051985D01*
X117929869Y-96196091D01*
X118141975Y-96331755D01*
X118360734Y-96458754D01*
X118585802Y-96576868D01*
X118816836Y-96685875D01*
X119053491Y-96785552D01*
X119295424Y-96875679D01*
X119542292Y-96956033D01*
X119793750Y-97026393D01*
X120049454Y-97086536D01*
X120309063Y-97136241D01*
X120572230Y-97175287D01*
X120838614Y-97203452D01*
X121107870Y-97220513D01*
X121379654Y-97226249D01*
X128987894Y-97226249D01*
X128987894Y-97226249D01*
G37*
G36*
X121380106Y-85069751D02*
X121108321Y-85075487D01*
X120839065Y-85092548D01*
X120572682Y-85120713D01*
X120309514Y-85159759D01*
X120049906Y-85209464D01*
X119794201Y-85269607D01*
X119542742Y-85339967D01*
X119295875Y-85420321D01*
X119053942Y-85510448D01*
X118817287Y-85610125D01*
X118586253Y-85719132D01*
X118361185Y-85837246D01*
X118142426Y-85964245D01*
X117930319Y-86099909D01*
X117725209Y-86244015D01*
X117527440Y-86396341D01*
X117337353Y-86556666D01*
X117155295Y-86724768D01*
X116981607Y-86900425D01*
X116816635Y-87083415D01*
X116660721Y-87273517D01*
X116514209Y-87470509D01*
X116377443Y-87674169D01*
X116250766Y-87884276D01*
X116134523Y-88100607D01*
X116029057Y-88322941D01*
X115934712Y-88551056D01*
X115851830Y-88784731D01*
X115780757Y-89023743D01*
X115721836Y-89267871D01*
X115675410Y-89516894D01*
X115641823Y-89770589D01*
X115621419Y-90028734D01*
X115614541Y-90291109D01*
X115614089Y-90622249D01*
X118323423Y-90622249D01*
X118323874Y-90291109D01*
X118335431Y-90065268D01*
X118369602Y-89844539D01*
X118425637Y-89629865D01*
X118502786Y-89422192D01*
X118600300Y-89222465D01*
X118717430Y-89031629D01*
X118853425Y-88850629D01*
X119007537Y-88680410D01*
X119179014Y-88521918D01*
X119367109Y-88376096D01*
X119571070Y-88243891D01*
X119790149Y-88126246D01*
X120023595Y-88024109D01*
X120270660Y-87938422D01*
X120530593Y-87870132D01*
X120802644Y-87820183D01*
X121086065Y-87789521D01*
X121380106Y-87779090D01*
X128988346Y-87779090D01*
X129282386Y-87789521D01*
X129565806Y-87820183D01*
X129837858Y-87870132D01*
X130097791Y-87938422D01*
X130344855Y-88024109D01*
X130578301Y-88126246D01*
X130797380Y-88243891D01*
X131001341Y-88376096D01*
X131189436Y-88521918D01*
X131360914Y-88680410D01*
X131515025Y-88850629D01*
X131651021Y-89031629D01*
X131768151Y-89222465D01*
X131865665Y-89422192D01*
X131942815Y-89629865D01*
X131998850Y-89844539D01*
X132033021Y-90065268D01*
X132044577Y-90291109D01*
X132032653Y-90622249D01*
X134741987Y-90622249D01*
X134753911Y-90291109D01*
X134747033Y-90028734D01*
X134726629Y-89770589D01*
X134693042Y-89516894D01*
X134646616Y-89267871D01*
X134587694Y-89023743D01*
X134516621Y-88784731D01*
X134433740Y-88551056D01*
X134339394Y-88322941D01*
X134233928Y-88100607D01*
X134117685Y-87884276D01*
X133991008Y-87674169D01*
X133854242Y-87470509D01*
X133707730Y-87273517D01*
X133551816Y-87083415D01*
X133386844Y-86900425D01*
X133213156Y-86724768D01*
X133031097Y-86556666D01*
X132841011Y-86396341D01*
X132643241Y-86244015D01*
X132438131Y-86099909D01*
X132226025Y-85964245D01*
X132007266Y-85837246D01*
X131782198Y-85719132D01*
X131551164Y-85610125D01*
X131314509Y-85510448D01*
X131072576Y-85420321D01*
X130825708Y-85339967D01*
X130574250Y-85269607D01*
X130318546Y-85209464D01*
X130058937Y-85159759D01*
X129795770Y-85120713D01*
X129529386Y-85092548D01*
X129260130Y-85075487D01*
X128988346Y-85069751D01*
X121380106Y-85069751D01*
X121380106Y-85069751D01*
G37*
D11*
X89781311Y-68446080D02*
X135856920Y-68446080D01*
X135856920Y-68446080D02*
X89781311Y-68446080D01*
D12*
X69812000Y-75400000D03*
D13*
X58382000Y-75400000D03*
X81242000Y-75400000D03*
D10*
G36*
X57056232Y-82000655D02*
X58156662Y-83906655D01*
X56426638Y-84905485D01*
X55326208Y-82999485D01*
X57056232Y-82000655D01*
X57056232Y-82000655D01*
G37*
G36*
X54596962Y-83420515D02*
X55697392Y-85326515D01*
X53967368Y-86325345D01*
X52866938Y-84419345D01*
X54596962Y-83420515D01*
X54596962Y-83420515D01*
G37*
D14*
X69812000Y-90998140D03*
X69812000Y-93837860D03*
D10*
G36*
X81467338Y-83906655D02*
X82567768Y-82000655D01*
X84297792Y-82999485D01*
X83197362Y-84905485D01*
X81467338Y-83906655D01*
X81467338Y-83906655D01*
G37*
G36*
X83926608Y-85326515D02*
X85027038Y-83420515D01*
X86757062Y-84419345D01*
X85656632Y-86325345D01*
X83926608Y-85326515D01*
X83926608Y-85326515D01*
G37*
D14*
X69812000Y-60817860D03*
X69812000Y-57978140D03*
D10*
G36*
X58156662Y-67909345D02*
X57056232Y-69815345D01*
X55326208Y-68816515D01*
X56426638Y-66910515D01*
X58156662Y-67909345D01*
X58156662Y-67909345D01*
G37*
G36*
X55697392Y-66489485D02*
X54596962Y-68395485D01*
X52866938Y-67396655D01*
X53967368Y-65490655D01*
X55697392Y-66489485D01*
X55697392Y-66489485D01*
G37*
G36*
X82567768Y-69815345D02*
X81467338Y-67909345D01*
X83197362Y-66910515D01*
X84297792Y-68816515D01*
X82567768Y-69815345D01*
X82567768Y-69815345D01*
G37*
G36*
X85027038Y-68395485D02*
X83926608Y-66489485D01*
X85656632Y-65490655D01*
X86757062Y-67396655D01*
X85027038Y-68395485D01*
X85027038Y-68395485D01*
G37*
D15*
X77027140Y-94749860D03*
X77027140Y-92849860D03*
X74027140Y-93799860D03*
D16*
X80161140Y-95837860D03*
X80161140Y-91837860D03*
D17*
X83090000Y-95885000D03*
X87090000Y-95885000D03*
M02*
