M48
;DRILL file {KiCad 4.0.6} date Friday, September 29, 2017 'AMt' 11:31:15 AM
;FORMAT={-:-/ absolute / inch / decimal}
FMAT,2
INCH,TZ
T1C0.012
T2C0.013
%
G90
G05
M72
T1
X3.43850Y-2.59350
T2
X2.01850Y-2.01850
X2.01850Y-2.21850
X2.01850Y-2.41850
X2.01850Y-2.61850
X2.01850Y-2.81850
X2.01850Y-3.01850
X2.01850Y-3.21850
X2.01850Y-3.51850
X2.01850Y-3.71850
X2.01850Y-3.88670
X2.06850Y-2.59850
X2.06850Y-3.37850
X2.14350Y-2.71850
X2.14350Y-3.24350
X2.21850Y-2.01850
X2.21850Y-2.58850
X2.21850Y-3.88670
X2.24350Y-3.39350
X2.32Y-2.7
X2.32Y-3.28
X2.36850Y-2.80850
X2.36850Y-3.12850
X2.41850Y-2.01850
X2.41850Y-3.88670
X2.48850Y-2.64850
X2.48850Y-3.28850
X2.61850Y-2.01850
X2.61850Y-3.88670
X2.66850Y-2.33850
X2.66850Y-2.56850
X2.66850Y-3.36850
X2.66850Y-3.64350
X2.74850Y-2.20850
X2.74850Y-3.76850
X2.81850Y-2.01850
X2.81850Y-2.33850
X2.81850Y-3.64350
X2.81850Y-3.88670
X2.82850Y-2.56850
X2.84850Y-3.36850
X2.88950Y-3.79790
X2.92Y-3.64
X2.96Y-3.52
X3.00850Y-2.64850
X3.00850Y-3.28850
X3.01850Y-2.01850
X3.01850Y-3.88670
X3.03950Y-3.79790
X3.04Y-3.6
X3.096Y-3.6544
X3.12850Y-2.80850
X3.12850Y-3.12850
X3.18Y-3.46
X3.21850Y-2.01850
X3.21850Y-3.88670
X3.24Y-3.36
X3.26Y-3.16
X3.26Y-3.7
X3.26850Y-2.58850
X3.3Y-3.4
X3.33850Y-3.20850
X3.36850Y-2.73850
X3.36850Y-3.25350
X3.41850Y-2.01850
X3.41850Y-3.88670
X3.52Y-3.78
X3.61850Y-2.01850
X3.61850Y-3.88670
X3.81850Y-2.01850
X3.81850Y-3.88670
X3.94850Y-3.32850
X4.01850Y-2.01850
X4.01850Y-3.88670
X4.21850Y-2.01850
X4.21850Y-3.88670
X4.26Y-3.8
X4.41850Y-2.01850
X4.41850Y-3.88670
X4.44Y-3.8
X4.61850Y-2.01850
X4.61850Y-3.88670
X4.62Y-3.8
X4.81850Y-2.01850
X4.81850Y-3.88670
X4.92850Y-3.32850
X5.01850Y-2.01850
X5.01850Y-3.88670
X5.21850Y-2.01850
X5.21850Y-3.88670
X5.41850Y-2.01850
X5.41850Y-2.21850
X5.41850Y-2.41850
X5.41850Y-2.61850
X5.41850Y-2.81850
X5.41850Y-3.01850
X5.41850Y-3.26850
X5.41850Y-3.51850
X5.41850Y-3.71850
X5.41850Y-3.88670
T0
M30
