G04 #@! TF.FileFunction,Copper,L1,Top,Signal*
%FSLAX46Y46*%
G04 Gerber Fmt 4.6, Leading zero omitted, Abs format (unit mm)*
G04 Created by KiCad (PCBNEW 4.0.6) date Friday, September 29, 2017 'AMt' 11:30:02 AM*
%MOMM*%
%LPD*%
G01*
G04 APERTURE LIST*
%ADD10C,0.100000*%
%ADD11C,0.685800*%
%ADD12C,17.780000*%
%ADD13R,2.540000X5.080000*%
%ADD14R,1.800860X1.597660*%
%ADD15R,10.160000X1.524000*%
%ADD16R,1.900000X0.800000*%
%ADD17R,1.600000X2.000000*%
%ADD18R,2.000000X1.700000*%
%ADD19C,0.508000*%
%ADD20C,0.254000*%
G04 APERTURE END LIST*
D10*
G36*
X104095894Y-96887577D02*
X104369331Y-96881287D01*
X104639842Y-96862606D01*
X104907050Y-96831813D01*
X105170576Y-96789190D01*
X105430045Y-96735016D01*
X105685079Y-96669573D01*
X105935299Y-96593141D01*
X106180330Y-96506000D01*
X106419792Y-96408432D01*
X106653310Y-96300717D01*
X106880506Y-96183135D01*
X107101001Y-96055966D01*
X107314420Y-95919493D01*
X107520384Y-95773994D01*
X107718516Y-95619751D01*
X107908439Y-95457045D01*
X108089775Y-95286155D01*
X108262147Y-95107363D01*
X108425178Y-94920949D01*
X108578490Y-94727193D01*
X108721705Y-94526377D01*
X108854447Y-94318781D01*
X108976338Y-94104685D01*
X109087001Y-93884370D01*
X109186057Y-93658116D01*
X109273131Y-93426205D01*
X109347844Y-93188916D01*
X109409819Y-92946531D01*
X109458679Y-92699329D01*
X109494046Y-92447592D01*
X109515543Y-92191600D01*
X109522793Y-91931634D01*
X107490793Y-91931634D01*
X107480123Y-92165644D01*
X107448573Y-92395504D01*
X107396832Y-92620365D01*
X107325589Y-92839378D01*
X107235533Y-93051694D01*
X107127355Y-93256464D01*
X107001742Y-93452840D01*
X106859385Y-93639973D01*
X106700972Y-93817012D01*
X106527193Y-93983111D01*
X106338737Y-94137420D01*
X106136294Y-94279089D01*
X105920551Y-94407271D01*
X105692200Y-94521116D01*
X105451928Y-94619775D01*
X105200426Y-94702400D01*
X104938382Y-94768142D01*
X104666486Y-94816151D01*
X104385427Y-94845579D01*
X104095894Y-94855577D01*
X96487654Y-94855577D01*
X96198121Y-94845579D01*
X95917063Y-94816151D01*
X95645167Y-94768142D01*
X95383124Y-94702400D01*
X95131621Y-94619775D01*
X94891350Y-94521116D01*
X94662999Y-94407271D01*
X94447256Y-94279089D01*
X94244812Y-94137420D01*
X94056356Y-93983111D01*
X93882577Y-93817012D01*
X93724164Y-93639973D01*
X93581807Y-93452840D01*
X93456194Y-93256464D01*
X93348015Y-93051694D01*
X93257960Y-92839378D01*
X93186717Y-92620365D01*
X93134976Y-92395504D01*
X93103426Y-92165644D01*
X93092756Y-91931634D01*
X91060756Y-91931634D01*
X91068005Y-92191600D01*
X91089502Y-92447592D01*
X91124870Y-92699329D01*
X91173729Y-92946531D01*
X91235705Y-93188916D01*
X91310418Y-93426205D01*
X91397491Y-93658116D01*
X91496548Y-93884370D01*
X91607211Y-94104685D01*
X91729102Y-94318781D01*
X91861844Y-94526377D01*
X92005059Y-94727193D01*
X92158371Y-94920949D01*
X92321402Y-95107363D01*
X92493774Y-95286155D01*
X92675110Y-95457045D01*
X92865033Y-95619751D01*
X93063165Y-95773994D01*
X93269129Y-95919493D01*
X93482548Y-96055966D01*
X93703044Y-96183135D01*
X93930239Y-96300717D01*
X94163757Y-96408432D01*
X94403220Y-96506000D01*
X94648250Y-96593141D01*
X94898470Y-96669573D01*
X95153504Y-96735016D01*
X95412972Y-96789190D01*
X95676499Y-96831813D01*
X95943707Y-96862606D01*
X96214217Y-96881287D01*
X96487654Y-96887577D01*
X104095894Y-96887577D01*
X104095894Y-96887577D01*
G37*
G36*
X96488106Y-85408423D02*
X96214669Y-85414713D01*
X95944158Y-85433394D01*
X95676950Y-85464187D01*
X95413424Y-85506810D01*
X95153955Y-85560984D01*
X94898921Y-85626427D01*
X94648701Y-85702859D01*
X94403670Y-85790000D01*
X94164208Y-85887568D01*
X93930690Y-85995283D01*
X93703494Y-86112865D01*
X93482999Y-86240034D01*
X93269580Y-86376507D01*
X93063616Y-86522006D01*
X92865484Y-86676249D01*
X92675561Y-86838955D01*
X92494225Y-87009845D01*
X92321853Y-87188637D01*
X92158822Y-87375051D01*
X92005510Y-87568807D01*
X91862295Y-87769623D01*
X91729553Y-87977219D01*
X91607662Y-88191315D01*
X91496999Y-88411630D01*
X91397943Y-88637884D01*
X91310869Y-88869795D01*
X91236156Y-89107084D01*
X91174181Y-89349469D01*
X91125321Y-89596671D01*
X91089954Y-89848408D01*
X91068457Y-90104400D01*
X91061207Y-90364366D01*
X93093207Y-90364366D01*
X93103877Y-90130356D01*
X93135427Y-89900496D01*
X93187168Y-89675635D01*
X93258411Y-89456622D01*
X93348467Y-89244306D01*
X93456645Y-89039536D01*
X93582258Y-88843160D01*
X93724615Y-88656027D01*
X93883028Y-88478988D01*
X94056807Y-88312889D01*
X94245263Y-88158580D01*
X94447706Y-88016911D01*
X94663449Y-87888729D01*
X94891800Y-87774884D01*
X95132072Y-87676225D01*
X95383574Y-87593600D01*
X95645618Y-87527858D01*
X95917514Y-87479849D01*
X96198573Y-87450421D01*
X96488106Y-87440423D01*
X104096346Y-87440423D01*
X104385879Y-87450421D01*
X104666937Y-87479849D01*
X104938833Y-87527858D01*
X105200876Y-87593600D01*
X105452379Y-87676225D01*
X105692650Y-87774884D01*
X105921001Y-87888729D01*
X106136744Y-88016911D01*
X106339188Y-88158580D01*
X106527644Y-88312889D01*
X106701423Y-88478988D01*
X106859836Y-88656027D01*
X107002193Y-88843160D01*
X107127806Y-89039536D01*
X107235985Y-89244306D01*
X107326040Y-89456622D01*
X107397283Y-89675635D01*
X107449024Y-89900496D01*
X107480574Y-90130356D01*
X107491244Y-90364366D01*
X109523244Y-90364366D01*
X109515995Y-90104400D01*
X109494498Y-89848408D01*
X109459130Y-89596671D01*
X109410271Y-89349469D01*
X109348295Y-89107084D01*
X109273582Y-88869795D01*
X109186509Y-88637884D01*
X109087452Y-88411630D01*
X108976789Y-88191315D01*
X108854898Y-87977219D01*
X108722156Y-87769623D01*
X108578941Y-87568807D01*
X108425629Y-87375051D01*
X108262598Y-87188637D01*
X108090226Y-87009845D01*
X107908890Y-86838955D01*
X107718967Y-86676249D01*
X107520835Y-86522006D01*
X107314871Y-86376507D01*
X107101452Y-86240034D01*
X106880956Y-86112865D01*
X106653761Y-85995283D01*
X106420243Y-85887568D01*
X106180780Y-85790000D01*
X105935750Y-85702859D01*
X105685530Y-85626427D01*
X105430496Y-85560984D01*
X105171028Y-85506810D01*
X104907501Y-85464187D01*
X104640293Y-85433394D01*
X104369783Y-85414713D01*
X104096346Y-85408423D01*
X96488106Y-85408423D01*
X96488106Y-85408423D01*
G37*
G36*
X128987894Y-96887577D02*
X129261331Y-96881287D01*
X129531842Y-96862606D01*
X129799050Y-96831813D01*
X130062576Y-96789190D01*
X130322045Y-96735016D01*
X130577079Y-96669573D01*
X130827299Y-96593141D01*
X131072330Y-96506000D01*
X131311792Y-96408432D01*
X131545310Y-96300717D01*
X131772506Y-96183135D01*
X131993001Y-96055966D01*
X132206420Y-95919493D01*
X132412384Y-95773994D01*
X132610516Y-95619751D01*
X132800439Y-95457045D01*
X132981775Y-95286155D01*
X133154147Y-95107363D01*
X133317178Y-94920949D01*
X133470490Y-94727193D01*
X133613705Y-94526377D01*
X133746447Y-94318781D01*
X133868338Y-94104685D01*
X133979001Y-93884370D01*
X134078057Y-93658116D01*
X134165131Y-93426205D01*
X134239844Y-93188916D01*
X134301819Y-92946531D01*
X134350679Y-92699329D01*
X134386046Y-92447592D01*
X134407543Y-92191600D01*
X134414793Y-91931634D01*
X132382793Y-91931634D01*
X132372123Y-92165644D01*
X132340573Y-92395504D01*
X132288832Y-92620365D01*
X132217589Y-92839378D01*
X132127533Y-93051694D01*
X132019355Y-93256464D01*
X131893742Y-93452840D01*
X131751385Y-93639973D01*
X131592972Y-93817012D01*
X131419193Y-93983111D01*
X131230737Y-94137420D01*
X131028294Y-94279089D01*
X130812551Y-94407271D01*
X130584200Y-94521116D01*
X130343928Y-94619775D01*
X130092426Y-94702400D01*
X129830382Y-94768142D01*
X129558486Y-94816151D01*
X129277427Y-94845579D01*
X128987894Y-94855577D01*
X121379654Y-94855577D01*
X121090121Y-94845579D01*
X120809063Y-94816151D01*
X120537167Y-94768142D01*
X120275124Y-94702400D01*
X120023621Y-94619775D01*
X119783350Y-94521116D01*
X119554999Y-94407271D01*
X119339256Y-94279089D01*
X119136812Y-94137420D01*
X118948356Y-93983111D01*
X118774577Y-93817012D01*
X118616164Y-93639973D01*
X118473807Y-93452840D01*
X118348194Y-93256464D01*
X118240015Y-93051694D01*
X118149960Y-92839378D01*
X118078717Y-92620365D01*
X118026976Y-92395504D01*
X117995426Y-92165644D01*
X117984756Y-91931634D01*
X115952756Y-91931634D01*
X115960005Y-92191600D01*
X115981502Y-92447592D01*
X116016870Y-92699329D01*
X116065729Y-92946531D01*
X116127705Y-93188916D01*
X116202418Y-93426205D01*
X116289491Y-93658116D01*
X116388548Y-93884370D01*
X116499211Y-94104685D01*
X116621102Y-94318781D01*
X116753844Y-94526377D01*
X116897059Y-94727193D01*
X117050371Y-94920949D01*
X117213402Y-95107363D01*
X117385774Y-95286155D01*
X117567110Y-95457045D01*
X117757033Y-95619751D01*
X117955165Y-95773994D01*
X118161129Y-95919493D01*
X118374548Y-96055966D01*
X118595044Y-96183135D01*
X118822239Y-96300717D01*
X119055757Y-96408432D01*
X119295220Y-96506000D01*
X119540250Y-96593141D01*
X119790470Y-96669573D01*
X120045504Y-96735016D01*
X120304972Y-96789190D01*
X120568499Y-96831813D01*
X120835707Y-96862606D01*
X121106217Y-96881287D01*
X121379654Y-96887577D01*
X128987894Y-96887577D01*
X128987894Y-96887577D01*
G37*
G36*
X121380106Y-85408423D02*
X121106669Y-85414713D01*
X120836158Y-85433394D01*
X120568950Y-85464187D01*
X120305424Y-85506810D01*
X120045955Y-85560984D01*
X119790921Y-85626427D01*
X119540701Y-85702859D01*
X119295670Y-85790000D01*
X119056208Y-85887568D01*
X118822690Y-85995283D01*
X118595494Y-86112865D01*
X118374999Y-86240034D01*
X118161580Y-86376507D01*
X117955616Y-86522006D01*
X117757484Y-86676249D01*
X117567561Y-86838955D01*
X117386225Y-87009845D01*
X117213853Y-87188637D01*
X117050822Y-87375051D01*
X116897510Y-87568807D01*
X116754295Y-87769623D01*
X116621553Y-87977219D01*
X116499662Y-88191315D01*
X116388999Y-88411630D01*
X116289943Y-88637884D01*
X116202869Y-88869795D01*
X116128156Y-89107084D01*
X116066181Y-89349469D01*
X116017321Y-89596671D01*
X115981954Y-89848408D01*
X115960457Y-90104400D01*
X115953207Y-90364366D01*
X117985207Y-90364366D01*
X117995877Y-90130356D01*
X118027427Y-89900496D01*
X118079168Y-89675635D01*
X118150411Y-89456622D01*
X118240467Y-89244306D01*
X118348645Y-89039536D01*
X118474258Y-88843160D01*
X118616615Y-88656027D01*
X118775028Y-88478988D01*
X118948807Y-88312889D01*
X119137263Y-88158580D01*
X119339706Y-88016911D01*
X119555449Y-87888729D01*
X119783800Y-87774884D01*
X120024072Y-87676225D01*
X120275574Y-87593600D01*
X120537618Y-87527858D01*
X120809514Y-87479849D01*
X121090573Y-87450421D01*
X121380106Y-87440423D01*
X128988346Y-87440423D01*
X129277879Y-87450421D01*
X129558937Y-87479849D01*
X129830833Y-87527858D01*
X130092876Y-87593600D01*
X130344379Y-87676225D01*
X130584650Y-87774884D01*
X130813001Y-87888729D01*
X131028744Y-88016911D01*
X131231188Y-88158580D01*
X131419644Y-88312889D01*
X131593423Y-88478988D01*
X131751836Y-88656027D01*
X131894193Y-88843160D01*
X132019806Y-89039536D01*
X132127985Y-89244306D01*
X132218040Y-89456622D01*
X132289283Y-89675635D01*
X132341024Y-89900496D01*
X132372574Y-90130356D01*
X132383244Y-90364366D01*
X134415244Y-90364366D01*
X134407995Y-90104400D01*
X134386498Y-89848408D01*
X134351130Y-89596671D01*
X134302271Y-89349469D01*
X134240295Y-89107084D01*
X134165582Y-88869795D01*
X134078509Y-88637884D01*
X133979452Y-88411630D01*
X133868789Y-88191315D01*
X133746898Y-87977219D01*
X133614156Y-87769623D01*
X133470941Y-87568807D01*
X133317629Y-87375051D01*
X133154598Y-87188637D01*
X132982226Y-87009845D01*
X132800890Y-86838955D01*
X132610967Y-86676249D01*
X132412835Y-86522006D01*
X132206871Y-86376507D01*
X131993452Y-86240034D01*
X131772956Y-86112865D01*
X131545761Y-85995283D01*
X131312243Y-85887568D01*
X131072780Y-85790000D01*
X130827750Y-85702859D01*
X130577530Y-85626427D01*
X130322496Y-85560984D01*
X130063028Y-85506810D01*
X129799501Y-85464187D01*
X129532293Y-85433394D01*
X129261783Y-85414713D01*
X128988346Y-85408423D01*
X121380106Y-85408423D01*
X121380106Y-85408423D01*
G37*
D11*
X77216000Y-91440000D03*
X58928000Y-68580000D03*
X58928000Y-83312000D03*
X82804000Y-80264000D03*
X112776000Y-96520000D03*
X117348000Y-96520000D03*
X108204000Y-96520000D03*
X82804000Y-93980000D03*
X89408000Y-96012000D03*
X75184000Y-89408000D03*
X80772000Y-87884000D03*
X78637140Y-92821860D03*
X79464000Y-79464000D03*
X79464000Y-71336000D03*
X76416000Y-67272000D03*
X76416000Y-83528000D03*
X72352000Y-85560000D03*
X67780000Y-85560000D03*
X63208000Y-83528000D03*
X60160000Y-79464000D03*
X60160000Y-71336000D03*
X63208000Y-67272000D03*
X71844000Y-65240000D03*
X67780000Y-65240000D03*
X73392140Y-96466860D03*
X77202140Y-96466860D03*
X71590000Y-92545000D03*
X67780000Y-92545000D03*
X56985000Y-86195000D03*
X54445000Y-82385000D03*
X54445000Y-69050000D03*
D12*
X69812000Y-75400000D03*
D13*
X58382000Y-75400000D03*
X81242000Y-75400000D03*
D11*
X82296000Y-85344000D03*
X85560000Y-82639000D03*
X85560000Y-69558000D03*
X83020000Y-65748000D03*
X71590000Y-59398000D03*
X67780000Y-59398000D03*
X56350000Y-65748000D03*
X91910000Y-51270000D03*
X96990000Y-51270000D03*
X122390000Y-51270000D03*
X132550000Y-51270000D03*
X127470000Y-51270000D03*
X112230000Y-51270000D03*
X107150000Y-51270000D03*
X102070000Y-51270000D03*
X117310000Y-51270000D03*
X56350000Y-51270000D03*
X66510000Y-51270000D03*
X61430000Y-51270000D03*
X86830000Y-51270000D03*
X71590000Y-51270000D03*
X81750000Y-51270000D03*
X76670000Y-51270000D03*
X132550000Y-98722000D03*
X127470000Y-98722000D03*
X122390000Y-98722000D03*
X117310000Y-98722000D03*
X112230000Y-98722000D03*
X107150000Y-98722000D03*
X102070000Y-98722000D03*
X96990000Y-98722000D03*
X91910000Y-98722000D03*
X86830000Y-98722000D03*
X81750000Y-98722000D03*
X76670000Y-98722000D03*
X71590000Y-98722000D03*
X66510000Y-98722000D03*
X61430000Y-98722000D03*
X56350000Y-98722000D03*
X137630000Y-56350000D03*
X137630000Y-51270000D03*
X137630000Y-71590000D03*
X137630000Y-66510000D03*
X137630000Y-61430000D03*
X137630000Y-98722000D03*
X137630000Y-89370000D03*
X137630000Y-83020000D03*
X137630000Y-94450000D03*
X137630000Y-76670000D03*
X51270000Y-98722000D03*
X51270000Y-94450000D03*
X51270000Y-89370000D03*
X51270000Y-81750000D03*
X51270000Y-76670000D03*
X51270000Y-71590000D03*
X51270000Y-66510000D03*
X51270000Y-61430000D03*
X51270000Y-56350000D03*
D10*
G36*
X56983027Y-82273860D02*
X57883457Y-83833450D01*
X56499843Y-84632280D01*
X55599413Y-83072690D01*
X56983027Y-82273860D01*
X56983027Y-82273860D01*
G37*
G36*
X54523757Y-83693720D02*
X55424187Y-85253310D01*
X54040573Y-86052140D01*
X53140143Y-84492550D01*
X54523757Y-83693720D01*
X54523757Y-83693720D01*
G37*
D14*
X69812000Y-90998140D03*
X69812000Y-93837860D03*
D10*
G36*
X81740543Y-83833450D02*
X82640973Y-82273860D01*
X84024587Y-83072690D01*
X83124157Y-84632280D01*
X81740543Y-83833450D01*
X81740543Y-83833450D01*
G37*
G36*
X84199813Y-85253310D02*
X85100243Y-83693720D01*
X86483857Y-84492550D01*
X85583427Y-86052140D01*
X84199813Y-85253310D01*
X84199813Y-85253310D01*
G37*
D14*
X69812000Y-60817860D03*
X69812000Y-57978140D03*
D10*
G36*
X57883457Y-67982550D02*
X56983027Y-69542140D01*
X55599413Y-68743310D01*
X56499843Y-67183720D01*
X57883457Y-67982550D01*
X57883457Y-67982550D01*
G37*
G36*
X55424187Y-66562690D02*
X54523757Y-68122280D01*
X53140143Y-67323450D01*
X54040573Y-65763860D01*
X55424187Y-66562690D01*
X55424187Y-66562690D01*
G37*
G36*
X82640973Y-69542140D02*
X81740543Y-67982550D01*
X83124157Y-67183720D01*
X84024587Y-68743310D01*
X82640973Y-69542140D01*
X82640973Y-69542140D01*
G37*
G36*
X85100243Y-68122280D02*
X84199813Y-66562690D01*
X85583427Y-65763860D01*
X86483857Y-67323450D01*
X85100243Y-68122280D01*
X85100243Y-68122280D01*
G37*
D15*
X100292000Y-95720000D03*
X100292000Y-86576000D03*
X125184000Y-95720000D03*
X125184000Y-86576000D03*
D16*
X77027140Y-94749860D03*
X77027140Y-92849860D03*
X74027140Y-93799860D03*
D11*
X51270000Y-51270000D03*
D17*
X80161140Y-95837860D03*
X80161140Y-91837860D03*
D18*
X83090000Y-95885000D03*
X87090000Y-95885000D03*
D11*
X100292000Y-84544000D03*
X84798000Y-81496000D03*
X125184000Y-84544000D03*
X83820000Y-86360000D03*
X74168000Y-92456000D03*
X52540000Y-85814000D03*
X52540000Y-66002000D03*
X87338000Y-65875000D03*
X69812000Y-56096000D03*
X69812000Y-95720000D03*
D19*
X77027140Y-92849860D02*
X79149140Y-92849860D01*
X79149140Y-92849860D02*
X80161140Y-91837860D01*
X100292000Y-86576000D02*
X100292000Y-84544000D01*
X84798000Y-81537635D02*
X84798000Y-81496000D01*
X82882565Y-83453070D02*
X84798000Y-81537635D01*
X82882565Y-83453070D02*
X82882565Y-82649435D01*
X125184000Y-86576000D02*
X125184000Y-84544000D01*
X56741435Y-83453070D02*
X69812000Y-90998140D01*
X69812000Y-60817860D02*
X56741435Y-68362930D01*
X58382000Y-75400000D02*
X58382000Y-81812505D01*
X58382000Y-81812505D02*
X56741435Y-83453070D01*
X58382000Y-75400000D02*
X58382000Y-70003495D01*
X58382000Y-70003495D02*
X56741435Y-68362930D01*
X82882565Y-83453070D02*
X81242000Y-81812505D01*
X81242000Y-81812505D02*
X81242000Y-78448000D01*
X81242000Y-78448000D02*
X81242000Y-75400000D01*
X82882565Y-68362930D02*
X81242000Y-70003495D01*
X81242000Y-70003495D02*
X81242000Y-72352000D01*
X81242000Y-72352000D02*
X81242000Y-75400000D01*
X85344000Y-84836000D02*
X83820000Y-86360000D01*
X74027140Y-92596860D02*
X74168000Y-92456000D01*
X74027140Y-93799860D02*
X74027140Y-92596860D01*
X69812000Y-93837860D02*
X73989140Y-93837860D01*
X73989140Y-93837860D02*
X74027140Y-93799860D01*
X85341835Y-84872930D02*
X84926070Y-84872930D01*
X74027140Y-93799860D02*
X73477140Y-93799860D01*
X69961860Y-93688000D02*
X69812000Y-93837860D01*
X85341835Y-66943070D02*
X87338000Y-65875000D01*
X69812000Y-57978140D02*
X69812000Y-56096000D01*
X52540000Y-85814000D02*
X54282165Y-84872930D01*
X52540000Y-66002000D02*
X54282165Y-66943070D01*
X69812000Y-93837860D02*
X69812000Y-95720000D01*
X100292000Y-95720000D02*
X98412000Y-97600000D01*
X98412000Y-97600000D02*
X88710000Y-97600000D01*
X88710000Y-97600000D02*
X86995000Y-95885000D01*
X123152000Y-97752000D02*
X102324000Y-97752000D01*
X102324000Y-97752000D02*
X100292000Y-95720000D01*
X125184000Y-95720000D02*
X123152000Y-97752000D01*
X83090000Y-95885000D02*
X80208280Y-95885000D01*
X80208280Y-95885000D02*
X80161140Y-95837860D01*
X77027140Y-94749860D02*
X79073140Y-94749860D01*
X79073140Y-94749860D02*
X80161140Y-95837860D01*
X77390140Y-94749860D02*
X77027140Y-94749860D01*
D20*
G36*
X137838979Y-50765478D02*
X138016145Y-50883856D01*
X138134521Y-51061019D01*
X138138000Y-51078509D01*
X138138000Y-98921491D01*
X138134521Y-98938981D01*
X138016145Y-99116144D01*
X137838979Y-99234522D01*
X137560070Y-99290000D01*
X51339931Y-99290000D01*
X51061019Y-99234521D01*
X50883856Y-99116145D01*
X50765478Y-98938979D01*
X50762000Y-98921494D01*
X50762000Y-66195663D01*
X51561931Y-66195663D01*
X51710493Y-66555212D01*
X51985341Y-66830540D01*
X52344630Y-66979730D01*
X52479721Y-66979848D01*
X52569415Y-67028298D01*
X52500131Y-67225659D01*
X52512509Y-67482364D01*
X52623784Y-67714029D01*
X52816423Y-67884149D01*
X54200037Y-68682979D01*
X54425966Y-68762292D01*
X54682671Y-68749914D01*
X54914336Y-68638639D01*
X54993144Y-68549399D01*
X54959401Y-68645519D01*
X54971779Y-68902224D01*
X55083054Y-69133889D01*
X55275693Y-69304009D01*
X56659307Y-70102839D01*
X56885236Y-70182152D01*
X57141941Y-70169774D01*
X57242663Y-70121394D01*
X57493000Y-70371731D01*
X57493000Y-72212560D01*
X57112000Y-72212560D01*
X56876683Y-72256838D01*
X56660559Y-72395910D01*
X56515569Y-72608110D01*
X56464560Y-72860000D01*
X56464560Y-77940000D01*
X56508838Y-78175317D01*
X56647910Y-78391441D01*
X56860110Y-78536431D01*
X57112000Y-78587440D01*
X57493000Y-78587440D01*
X57493000Y-81444269D01*
X57243187Y-81694082D01*
X57159220Y-81650856D01*
X56902955Y-81631391D01*
X56659307Y-81713161D01*
X55275693Y-82511991D01*
X55094042Y-82667995D01*
X54976409Y-82896497D01*
X54956944Y-83152762D01*
X54994824Y-83265633D01*
X54928452Y-83188349D01*
X54699950Y-83070716D01*
X54443685Y-83051251D01*
X54200037Y-83133021D01*
X52816423Y-83931851D01*
X52634772Y-84087855D01*
X52517139Y-84316357D01*
X52497674Y-84572622D01*
X52569789Y-84787500D01*
X52479915Y-84836047D01*
X52346337Y-84835931D01*
X51986788Y-84984493D01*
X51711460Y-85259341D01*
X51562270Y-85618630D01*
X51561931Y-86007663D01*
X51710493Y-86367212D01*
X51985341Y-86642540D01*
X52344630Y-86791730D01*
X52733663Y-86792069D01*
X53093212Y-86643507D01*
X53350651Y-86386517D01*
X53453844Y-86330775D01*
X53479874Y-86375860D01*
X53635878Y-86557511D01*
X53864380Y-86675144D01*
X54120645Y-86694609D01*
X54364293Y-86612839D01*
X55747907Y-85814009D01*
X55929558Y-85658005D01*
X56047191Y-85429503D01*
X56066656Y-85173238D01*
X56028776Y-85060367D01*
X56095148Y-85137651D01*
X56323650Y-85255284D01*
X56579915Y-85274749D01*
X56823563Y-85192979D01*
X57400394Y-84859946D01*
X68264130Y-91131109D01*
X68264130Y-91796970D01*
X68308408Y-92032287D01*
X68447480Y-92248411D01*
X68659680Y-92393401D01*
X68776366Y-92417030D01*
X68676253Y-92435868D01*
X68460129Y-92574940D01*
X68315139Y-92787140D01*
X68264130Y-93039030D01*
X68264130Y-94636690D01*
X68308408Y-94872007D01*
X68447480Y-95088131D01*
X68659680Y-95233121D01*
X68911570Y-95284130D01*
X68923000Y-95284130D01*
X68923000Y-95310945D01*
X68834270Y-95524630D01*
X68833931Y-95913663D01*
X68982493Y-96273212D01*
X69257341Y-96548540D01*
X69616630Y-96697730D01*
X70005663Y-96698069D01*
X70365212Y-96549507D01*
X70640540Y-96274659D01*
X70789730Y-95915370D01*
X70790069Y-95526337D01*
X70701000Y-95310773D01*
X70701000Y-95284130D01*
X70712430Y-95284130D01*
X70947747Y-95239852D01*
X71163871Y-95100780D01*
X71308861Y-94888580D01*
X71341610Y-94726860D01*
X72723634Y-94726860D01*
X72825250Y-94796291D01*
X73077140Y-94847300D01*
X74977140Y-94847300D01*
X75212457Y-94803022D01*
X75428581Y-94663950D01*
X75429700Y-94662312D01*
X75429700Y-95149860D01*
X75473978Y-95385177D01*
X75613050Y-95601301D01*
X75825250Y-95746291D01*
X76077140Y-95797300D01*
X77977140Y-95797300D01*
X78212457Y-95753022D01*
X78389870Y-95638860D01*
X78704904Y-95638860D01*
X78713700Y-95647656D01*
X78713700Y-96837860D01*
X78757978Y-97073177D01*
X78897050Y-97289301D01*
X79109250Y-97434291D01*
X79361140Y-97485300D01*
X80961140Y-97485300D01*
X81196457Y-97441022D01*
X81412581Y-97301950D01*
X81557571Y-97089750D01*
X81559036Y-97082516D01*
X81625910Y-97186441D01*
X81838110Y-97331431D01*
X82090000Y-97382440D01*
X84090000Y-97382440D01*
X84325317Y-97338162D01*
X84541441Y-97199090D01*
X84686431Y-96986890D01*
X84737440Y-96735000D01*
X84737440Y-95035000D01*
X85442560Y-95035000D01*
X85442560Y-96735000D01*
X85486838Y-96970317D01*
X85625910Y-97186441D01*
X85838110Y-97331431D01*
X86090000Y-97382440D01*
X87235204Y-97382440D01*
X88081382Y-98228618D01*
X88369794Y-98421329D01*
X88710000Y-98489000D01*
X98412000Y-98489000D01*
X98752206Y-98421329D01*
X99040618Y-98228618D01*
X99746659Y-97522577D01*
X100837341Y-97522577D01*
X101695382Y-98380618D01*
X101983794Y-98573329D01*
X102324000Y-98641000D01*
X123152000Y-98641000D01*
X123492206Y-98573329D01*
X123780618Y-98380618D01*
X124638659Y-97522577D01*
X128987894Y-97522577D01*
X128995180Y-97521128D01*
X129002497Y-97522409D01*
X129275934Y-97516119D01*
X129290389Y-97512896D01*
X129305079Y-97514778D01*
X129575589Y-97496097D01*
X129589830Y-97492228D01*
X129604538Y-97493431D01*
X129871746Y-97462638D01*
X129885743Y-97458138D01*
X129900438Y-97458667D01*
X130163964Y-97416044D01*
X130177701Y-97410925D01*
X130192358Y-97410786D01*
X130451827Y-97356612D01*
X130465278Y-97350890D01*
X130479876Y-97350089D01*
X130734910Y-97284646D01*
X130748065Y-97278331D01*
X130762584Y-97276873D01*
X131012804Y-97200441D01*
X131025647Y-97193544D01*
X131040071Y-97191433D01*
X131285102Y-97104292D01*
X131297619Y-97096822D01*
X131311933Y-97094061D01*
X131551395Y-96996493D01*
X131563577Y-96988455D01*
X131577767Y-96985045D01*
X131811285Y-96877330D01*
X131823121Y-96868727D01*
X131837174Y-96864667D01*
X132064370Y-96747086D01*
X132075845Y-96737921D01*
X132089756Y-96733206D01*
X132310251Y-96606037D01*
X132321353Y-96596310D01*
X132335095Y-96590939D01*
X132548514Y-96454466D01*
X132559228Y-96444175D01*
X132572803Y-96438134D01*
X132778767Y-96292635D01*
X132789075Y-96281777D01*
X132802457Y-96275061D01*
X133000589Y-96120818D01*
X133010472Y-96109389D01*
X133023644Y-96101986D01*
X133213567Y-95939280D01*
X133223003Y-95927274D01*
X133235944Y-95919171D01*
X133417280Y-95748281D01*
X133426238Y-95735698D01*
X133438920Y-95726885D01*
X133611292Y-95548093D01*
X133619742Y-95534932D01*
X133632136Y-95525395D01*
X133795168Y-95338981D01*
X133803074Y-95325244D01*
X133815145Y-95314972D01*
X133968457Y-95121216D01*
X133975779Y-95106910D01*
X133987485Y-95095896D01*
X134130700Y-94895079D01*
X134137394Y-94880215D01*
X134148687Y-94868458D01*
X134281429Y-94660862D01*
X134287450Y-94645456D01*
X134298280Y-94632955D01*
X134420171Y-94418859D01*
X134425467Y-94402942D01*
X134435778Y-94389707D01*
X134546440Y-94169392D01*
X134550963Y-94152995D01*
X134560695Y-94139041D01*
X134659751Y-93912787D01*
X134663449Y-93895958D01*
X134672535Y-93881321D01*
X134759610Y-93649409D01*
X134762437Y-93632201D01*
X134770817Y-93616912D01*
X134845530Y-93379623D01*
X134847441Y-93362108D01*
X134855052Y-93346218D01*
X134917027Y-93103832D01*
X134917986Y-93086086D01*
X134924767Y-93069658D01*
X134973627Y-92822456D01*
X134973605Y-92804565D01*
X134979503Y-92787674D01*
X135014870Y-92535937D01*
X135013851Y-92517999D01*
X135018819Y-92500729D01*
X135040316Y-92244737D01*
X135038294Y-92226850D01*
X135042296Y-92209302D01*
X135049546Y-91949336D01*
X135048037Y-91940463D01*
X135049793Y-91931634D01*
X135027317Y-91818641D01*
X135008003Y-91705079D01*
X135003213Y-91697459D01*
X135001457Y-91688630D01*
X134937454Y-91592843D01*
X134876149Y-91495313D01*
X134868807Y-91490105D01*
X134863806Y-91482621D01*
X134768023Y-91418621D01*
X134674057Y-91351972D01*
X134665281Y-91349970D01*
X134657797Y-91344970D01*
X134544810Y-91322496D01*
X134432495Y-91296881D01*
X134423622Y-91298390D01*
X134414793Y-91296634D01*
X132382793Y-91296634D01*
X132275215Y-91318032D01*
X132166763Y-91334510D01*
X132154192Y-91342105D01*
X132139789Y-91344970D01*
X132048587Y-91405910D01*
X131954698Y-91462635D01*
X131945991Y-91474462D01*
X131933780Y-91482621D01*
X131872843Y-91573819D01*
X131807806Y-91662160D01*
X131804287Y-91676420D01*
X131796129Y-91688630D01*
X131774730Y-91796211D01*
X131748452Y-91902711D01*
X131739097Y-92107885D01*
X131715349Y-92280903D01*
X131676296Y-92450624D01*
X131622252Y-92616764D01*
X131553473Y-92778917D01*
X131470214Y-92936519D01*
X131372726Y-93088927D01*
X131261304Y-93235393D01*
X131136293Y-93375103D01*
X130998046Y-93507239D01*
X130847006Y-93630912D01*
X130683600Y-93745262D01*
X130508301Y-93849415D01*
X130321589Y-93942500D01*
X130123944Y-94023656D01*
X129915851Y-94092020D01*
X129697744Y-94146739D01*
X129470108Y-94186933D01*
X129233351Y-94211722D01*
X128976927Y-94220577D01*
X121390622Y-94220577D01*
X121134196Y-94211722D01*
X120897441Y-94186933D01*
X120669795Y-94146737D01*
X120451705Y-94092022D01*
X120243610Y-94023658D01*
X120045962Y-93942500D01*
X119859254Y-93849417D01*
X119683946Y-93745260D01*
X119520548Y-93630915D01*
X119369496Y-93507234D01*
X119231258Y-93375103D01*
X119106244Y-93235392D01*
X118994820Y-93088921D01*
X118897335Y-92936518D01*
X118814077Y-92778921D01*
X118745298Y-92616767D01*
X118691253Y-92450624D01*
X118652200Y-92280903D01*
X118628452Y-92107885D01*
X118619097Y-91902710D01*
X118592818Y-91796208D01*
X118571420Y-91688630D01*
X118563262Y-91676420D01*
X118559743Y-91662160D01*
X118494706Y-91573819D01*
X118433769Y-91482621D01*
X118421558Y-91474462D01*
X118412851Y-91462635D01*
X118318962Y-91405910D01*
X118227760Y-91344970D01*
X118213357Y-91342105D01*
X118200786Y-91334510D01*
X118092334Y-91318032D01*
X117984756Y-91296634D01*
X115952756Y-91296634D01*
X115943928Y-91298390D01*
X115935056Y-91296881D01*
X115822739Y-91322496D01*
X115709752Y-91344970D01*
X115702269Y-91349970D01*
X115693494Y-91351971D01*
X115599525Y-91418622D01*
X115503743Y-91482621D01*
X115498743Y-91490104D01*
X115491402Y-91495311D01*
X115430100Y-91592836D01*
X115366092Y-91688630D01*
X115364336Y-91697458D01*
X115359547Y-91705077D01*
X115340233Y-91818634D01*
X115317756Y-91931634D01*
X115319512Y-91940462D01*
X115318003Y-91949334D01*
X115325252Y-92209300D01*
X115329254Y-92226849D01*
X115327232Y-92244737D01*
X115348729Y-92500729D01*
X115353697Y-92517999D01*
X115352678Y-92535939D01*
X115388046Y-92787676D01*
X115393943Y-92804564D01*
X115393921Y-92822454D01*
X115442780Y-93069655D01*
X115449562Y-93086084D01*
X115450521Y-93103835D01*
X115512497Y-93346220D01*
X115520108Y-93362111D01*
X115522019Y-93379623D01*
X115596732Y-93616912D01*
X115605113Y-93632202D01*
X115607939Y-93649407D01*
X115695012Y-93881318D01*
X115704099Y-93895957D01*
X115707798Y-93912789D01*
X115806855Y-94139043D01*
X115816585Y-94152993D01*
X115821108Y-94169392D01*
X115931771Y-94389707D01*
X115942082Y-94402942D01*
X115947378Y-94418859D01*
X116069269Y-94632956D01*
X116080100Y-94645458D01*
X116086120Y-94660862D01*
X116218862Y-94868457D01*
X116230153Y-94880213D01*
X116236849Y-94895080D01*
X116380065Y-95095896D01*
X116391769Y-95106908D01*
X116399092Y-95121216D01*
X116552404Y-95314972D01*
X116564477Y-95325246D01*
X116572382Y-95338981D01*
X116735413Y-95525396D01*
X116747808Y-95534934D01*
X116756257Y-95548093D01*
X116928629Y-95726885D01*
X116941311Y-95735698D01*
X116950269Y-95748281D01*
X117131605Y-95919171D01*
X117144546Y-95927274D01*
X117153982Y-95939280D01*
X117343905Y-96101986D01*
X117357077Y-96109389D01*
X117366960Y-96120818D01*
X117565092Y-96275061D01*
X117578474Y-96281777D01*
X117588782Y-96292635D01*
X117794746Y-96438134D01*
X117808321Y-96444175D01*
X117819035Y-96454466D01*
X118032454Y-96590939D01*
X118046200Y-96596311D01*
X118057300Y-96606037D01*
X118277796Y-96733206D01*
X118291704Y-96737920D01*
X118303179Y-96747085D01*
X118527152Y-96863000D01*
X106948395Y-96863000D01*
X107172370Y-96747086D01*
X107183845Y-96737921D01*
X107197756Y-96733206D01*
X107418251Y-96606037D01*
X107429353Y-96596310D01*
X107443095Y-96590939D01*
X107656514Y-96454466D01*
X107667228Y-96444175D01*
X107680803Y-96438134D01*
X107886767Y-96292635D01*
X107897075Y-96281777D01*
X107910457Y-96275061D01*
X108108589Y-96120818D01*
X108118472Y-96109389D01*
X108131644Y-96101986D01*
X108321567Y-95939280D01*
X108331003Y-95927274D01*
X108343944Y-95919171D01*
X108525280Y-95748281D01*
X108534238Y-95735698D01*
X108546920Y-95726885D01*
X108719292Y-95548093D01*
X108727742Y-95534932D01*
X108740136Y-95525395D01*
X108903168Y-95338981D01*
X108911074Y-95325244D01*
X108923145Y-95314972D01*
X109076457Y-95121216D01*
X109083779Y-95106910D01*
X109095485Y-95095896D01*
X109238700Y-94895079D01*
X109245394Y-94880215D01*
X109256687Y-94868458D01*
X109389429Y-94660862D01*
X109395450Y-94645456D01*
X109406280Y-94632955D01*
X109528171Y-94418859D01*
X109533467Y-94402942D01*
X109543778Y-94389707D01*
X109654440Y-94169392D01*
X109658963Y-94152995D01*
X109668695Y-94139041D01*
X109767751Y-93912787D01*
X109771449Y-93895958D01*
X109780535Y-93881321D01*
X109867610Y-93649409D01*
X109870437Y-93632201D01*
X109878817Y-93616912D01*
X109953530Y-93379623D01*
X109955441Y-93362108D01*
X109963052Y-93346218D01*
X110025027Y-93103832D01*
X110025986Y-93086086D01*
X110032767Y-93069658D01*
X110081627Y-92822456D01*
X110081605Y-92804565D01*
X110087503Y-92787674D01*
X110122870Y-92535937D01*
X110121851Y-92517999D01*
X110126819Y-92500729D01*
X110148316Y-92244737D01*
X110146294Y-92226850D01*
X110150296Y-92209302D01*
X110157546Y-91949336D01*
X110156037Y-91940463D01*
X110157793Y-91931634D01*
X110135317Y-91818641D01*
X110116003Y-91705079D01*
X110111213Y-91697459D01*
X110109457Y-91688630D01*
X110045454Y-91592843D01*
X109984149Y-91495313D01*
X109976807Y-91490105D01*
X109971806Y-91482621D01*
X109876023Y-91418621D01*
X109782057Y-91351972D01*
X109773281Y-91349970D01*
X109765797Y-91344970D01*
X109652810Y-91322496D01*
X109540495Y-91296881D01*
X109531622Y-91298390D01*
X109522793Y-91296634D01*
X107490793Y-91296634D01*
X107383215Y-91318032D01*
X107274763Y-91334510D01*
X107262192Y-91342105D01*
X107247789Y-91344970D01*
X107156587Y-91405910D01*
X107062698Y-91462635D01*
X107053991Y-91474462D01*
X107041780Y-91482621D01*
X106980843Y-91573819D01*
X106915806Y-91662160D01*
X106912287Y-91676420D01*
X106904129Y-91688630D01*
X106882730Y-91796211D01*
X106856452Y-91902711D01*
X106847097Y-92107885D01*
X106823349Y-92280903D01*
X106784296Y-92450624D01*
X106730252Y-92616764D01*
X106661473Y-92778917D01*
X106578214Y-92936519D01*
X106480726Y-93088927D01*
X106369304Y-93235393D01*
X106244293Y-93375103D01*
X106106046Y-93507239D01*
X105955006Y-93630912D01*
X105791600Y-93745262D01*
X105616301Y-93849415D01*
X105429589Y-93942500D01*
X105231944Y-94023656D01*
X105023851Y-94092020D01*
X104805744Y-94146739D01*
X104578108Y-94186933D01*
X104341351Y-94211722D01*
X104084927Y-94220577D01*
X96498622Y-94220577D01*
X96242196Y-94211722D01*
X96005441Y-94186933D01*
X95777795Y-94146737D01*
X95559705Y-94092022D01*
X95351610Y-94023658D01*
X95153962Y-93942500D01*
X94967254Y-93849417D01*
X94791946Y-93745260D01*
X94628548Y-93630915D01*
X94477496Y-93507234D01*
X94339258Y-93375103D01*
X94214244Y-93235392D01*
X94102820Y-93088921D01*
X94005335Y-92936518D01*
X93922077Y-92778921D01*
X93853298Y-92616767D01*
X93799253Y-92450624D01*
X93760200Y-92280903D01*
X93736452Y-92107885D01*
X93727097Y-91902710D01*
X93700818Y-91796208D01*
X93679420Y-91688630D01*
X93671262Y-91676420D01*
X93667743Y-91662160D01*
X93602706Y-91573819D01*
X93541769Y-91482621D01*
X93529558Y-91474462D01*
X93520851Y-91462635D01*
X93426962Y-91405910D01*
X93335760Y-91344970D01*
X93321357Y-91342105D01*
X93308786Y-91334510D01*
X93200334Y-91318032D01*
X93092756Y-91296634D01*
X91060756Y-91296634D01*
X91051928Y-91298390D01*
X91043056Y-91296881D01*
X90930739Y-91322496D01*
X90817752Y-91344970D01*
X90810269Y-91349970D01*
X90801494Y-91351971D01*
X90707525Y-91418622D01*
X90611743Y-91482621D01*
X90606743Y-91490104D01*
X90599402Y-91495311D01*
X90538100Y-91592836D01*
X90474092Y-91688630D01*
X90472336Y-91697458D01*
X90467547Y-91705077D01*
X90448233Y-91818634D01*
X90425756Y-91931634D01*
X90427512Y-91940462D01*
X90426003Y-91949334D01*
X90433252Y-92209300D01*
X90437254Y-92226849D01*
X90435232Y-92244737D01*
X90456729Y-92500729D01*
X90461697Y-92517999D01*
X90460678Y-92535939D01*
X90496046Y-92787676D01*
X90501943Y-92804564D01*
X90501921Y-92822454D01*
X90550780Y-93069655D01*
X90557562Y-93086084D01*
X90558521Y-93103835D01*
X90620497Y-93346220D01*
X90628108Y-93362111D01*
X90630019Y-93379623D01*
X90704732Y-93616912D01*
X90713113Y-93632202D01*
X90715939Y-93649407D01*
X90803012Y-93881318D01*
X90812099Y-93895957D01*
X90815798Y-93912789D01*
X90914855Y-94139043D01*
X90924585Y-94152993D01*
X90929108Y-94169392D01*
X91039771Y-94389707D01*
X91050082Y-94402942D01*
X91055378Y-94418859D01*
X91177269Y-94632956D01*
X91188100Y-94645458D01*
X91194120Y-94660862D01*
X91326862Y-94868457D01*
X91338153Y-94880213D01*
X91344849Y-94895080D01*
X91488065Y-95095896D01*
X91499769Y-95106908D01*
X91507092Y-95121216D01*
X91660404Y-95314972D01*
X91672477Y-95325246D01*
X91680382Y-95338981D01*
X91843413Y-95525396D01*
X91855808Y-95534934D01*
X91864257Y-95548093D01*
X92036629Y-95726885D01*
X92049311Y-95735698D01*
X92058269Y-95748281D01*
X92239605Y-95919171D01*
X92252546Y-95927274D01*
X92261982Y-95939280D01*
X92451905Y-96101986D01*
X92465077Y-96109389D01*
X92474960Y-96120818D01*
X92673092Y-96275061D01*
X92686474Y-96281777D01*
X92696782Y-96292635D01*
X92902746Y-96438134D01*
X92916321Y-96444175D01*
X92927035Y-96454466D01*
X93140454Y-96590939D01*
X93154200Y-96596311D01*
X93165300Y-96606037D01*
X93347293Y-96711000D01*
X89078236Y-96711000D01*
X88737440Y-96370204D01*
X88737440Y-95035000D01*
X88693162Y-94799683D01*
X88554090Y-94583559D01*
X88341890Y-94438569D01*
X88090000Y-94387560D01*
X86090000Y-94387560D01*
X85854683Y-94431838D01*
X85638559Y-94570910D01*
X85493569Y-94783110D01*
X85442560Y-95035000D01*
X84737440Y-95035000D01*
X84693162Y-94799683D01*
X84554090Y-94583559D01*
X84341890Y-94438569D01*
X84090000Y-94387560D01*
X82090000Y-94387560D01*
X81854683Y-94431838D01*
X81638559Y-94570910D01*
X81575669Y-94662953D01*
X81564302Y-94602543D01*
X81425230Y-94386419D01*
X81213030Y-94241429D01*
X80961140Y-94190420D01*
X79770936Y-94190420D01*
X79701758Y-94121242D01*
X79649745Y-94086488D01*
X79413346Y-93928531D01*
X79073140Y-93860860D01*
X78386261Y-93860860D01*
X78301390Y-93802870D01*
X78336838Y-93788187D01*
X78515467Y-93609559D01*
X78612140Y-93376170D01*
X78612140Y-93135610D01*
X78453390Y-92976860D01*
X77154140Y-92976860D01*
X77154140Y-92996860D01*
X76900140Y-92996860D01*
X76900140Y-92976860D01*
X75600890Y-92976860D01*
X75514878Y-93062872D01*
X75441230Y-92948419D01*
X75229030Y-92803429D01*
X75093948Y-92776074D01*
X75145730Y-92651370D01*
X75146015Y-92323550D01*
X75442140Y-92323550D01*
X75442140Y-92564110D01*
X75600890Y-92722860D01*
X76900140Y-92722860D01*
X76900140Y-91973610D01*
X77154140Y-91973610D01*
X77154140Y-92722860D01*
X78453390Y-92722860D01*
X78612140Y-92564110D01*
X78612140Y-92323550D01*
X78529323Y-92123610D01*
X78726140Y-92123610D01*
X78726140Y-92964169D01*
X78822813Y-93197558D01*
X79001441Y-93376187D01*
X79234830Y-93472860D01*
X79875390Y-93472860D01*
X80034140Y-93314110D01*
X80034140Y-91964860D01*
X80288140Y-91964860D01*
X80288140Y-93314110D01*
X80446890Y-93472860D01*
X81087450Y-93472860D01*
X81320839Y-93376187D01*
X81499467Y-93197558D01*
X81596140Y-92964169D01*
X81596140Y-92123610D01*
X81437390Y-91964860D01*
X80288140Y-91964860D01*
X80034140Y-91964860D01*
X78884890Y-91964860D01*
X78726140Y-92123610D01*
X78529323Y-92123610D01*
X78515467Y-92090161D01*
X78336838Y-91911533D01*
X78103449Y-91814860D01*
X77312890Y-91814860D01*
X77154140Y-91973610D01*
X76900140Y-91973610D01*
X76741390Y-91814860D01*
X75950831Y-91814860D01*
X75717442Y-91911533D01*
X75538813Y-92090161D01*
X75442140Y-92323550D01*
X75146015Y-92323550D01*
X75146069Y-92262337D01*
X74997507Y-91902788D01*
X74722659Y-91627460D01*
X74363370Y-91478270D01*
X73974337Y-91477931D01*
X73614788Y-91626493D01*
X73339460Y-91901341D01*
X73190270Y-92260630D01*
X73190205Y-92335110D01*
X73138140Y-92596860D01*
X73138140Y-92752420D01*
X73077140Y-92752420D01*
X72841823Y-92796698D01*
X72625699Y-92935770D01*
X72616755Y-92948860D01*
X71342903Y-92948860D01*
X71315592Y-92803713D01*
X71176520Y-92587589D01*
X70964320Y-92442599D01*
X70847634Y-92418970D01*
X70947747Y-92400132D01*
X71163871Y-92261060D01*
X71308861Y-92048860D01*
X71359870Y-91796970D01*
X71359870Y-90711551D01*
X78726140Y-90711551D01*
X78726140Y-91552110D01*
X78884890Y-91710860D01*
X80034140Y-91710860D01*
X80034140Y-90361610D01*
X80288140Y-90361610D01*
X80288140Y-91710860D01*
X81437390Y-91710860D01*
X81596140Y-91552110D01*
X81596140Y-90711551D01*
X81499467Y-90478162D01*
X81385672Y-90364366D01*
X90426207Y-90364366D01*
X90448683Y-90477359D01*
X90467997Y-90590921D01*
X90472787Y-90598541D01*
X90474543Y-90607370D01*
X90538546Y-90703157D01*
X90599851Y-90800687D01*
X90607193Y-90805895D01*
X90612194Y-90813379D01*
X90707977Y-90877379D01*
X90801943Y-90944028D01*
X90810719Y-90946030D01*
X90818203Y-90951030D01*
X90931190Y-90973504D01*
X91043505Y-90999119D01*
X91052378Y-90997610D01*
X91061207Y-90999366D01*
X93093207Y-90999366D01*
X93200785Y-90977968D01*
X93309237Y-90961490D01*
X93321808Y-90953895D01*
X93336211Y-90951030D01*
X93427413Y-90890090D01*
X93521302Y-90833365D01*
X93530009Y-90821538D01*
X93542220Y-90813379D01*
X93603157Y-90722181D01*
X93668194Y-90633840D01*
X93671713Y-90619580D01*
X93679871Y-90607370D01*
X93701269Y-90499792D01*
X93727548Y-90393290D01*
X93736903Y-90188115D01*
X93760651Y-90015097D01*
X93799704Y-89845376D01*
X93853749Y-89679233D01*
X93922528Y-89517080D01*
X94005786Y-89359481D01*
X94103271Y-89207079D01*
X94214695Y-89060608D01*
X94339709Y-88920897D01*
X94477947Y-88788766D01*
X94628996Y-88665087D01*
X94792400Y-88550738D01*
X94967704Y-88446583D01*
X95154416Y-88353497D01*
X95352052Y-88272345D01*
X95560150Y-88203980D01*
X95778243Y-88149263D01*
X96005892Y-88109067D01*
X96242648Y-88084278D01*
X96499074Y-88075423D01*
X104085379Y-88075423D01*
X104341803Y-88084278D01*
X104578559Y-88109067D01*
X104806205Y-88149263D01*
X105024294Y-88203978D01*
X105232401Y-88272347D01*
X105430043Y-88353502D01*
X105616751Y-88446585D01*
X105792054Y-88550740D01*
X105955457Y-88665089D01*
X106106497Y-88788761D01*
X106244744Y-88920897D01*
X106369755Y-89060607D01*
X106481177Y-89207073D01*
X106578665Y-89359482D01*
X106661923Y-89517079D01*
X106730702Y-89679233D01*
X106784747Y-89845376D01*
X106823800Y-90015097D01*
X106847548Y-90188115D01*
X106856903Y-90393289D01*
X106883181Y-90499789D01*
X106904580Y-90607370D01*
X106912738Y-90619580D01*
X106916257Y-90633840D01*
X106981294Y-90722181D01*
X107042231Y-90813379D01*
X107054442Y-90821538D01*
X107063149Y-90833365D01*
X107157038Y-90890090D01*
X107248240Y-90951030D01*
X107262643Y-90953895D01*
X107275214Y-90961490D01*
X107383666Y-90977968D01*
X107491244Y-90999366D01*
X109523244Y-90999366D01*
X109532072Y-90997610D01*
X109540944Y-90999119D01*
X109653261Y-90973504D01*
X109766248Y-90951030D01*
X109773731Y-90946030D01*
X109782506Y-90944029D01*
X109876475Y-90877378D01*
X109972257Y-90813379D01*
X109977257Y-90805896D01*
X109984598Y-90800689D01*
X110045900Y-90703164D01*
X110109908Y-90607370D01*
X110111664Y-90598542D01*
X110116453Y-90590923D01*
X110135767Y-90477366D01*
X110158244Y-90364366D01*
X115318207Y-90364366D01*
X115340683Y-90477359D01*
X115359997Y-90590921D01*
X115364787Y-90598541D01*
X115366543Y-90607370D01*
X115430546Y-90703157D01*
X115491851Y-90800687D01*
X115499193Y-90805895D01*
X115504194Y-90813379D01*
X115599977Y-90877379D01*
X115693943Y-90944028D01*
X115702719Y-90946030D01*
X115710203Y-90951030D01*
X115823190Y-90973504D01*
X115935505Y-90999119D01*
X115944378Y-90997610D01*
X115953207Y-90999366D01*
X117985207Y-90999366D01*
X118092785Y-90977968D01*
X118201237Y-90961490D01*
X118213808Y-90953895D01*
X118228211Y-90951030D01*
X118319413Y-90890090D01*
X118413302Y-90833365D01*
X118422009Y-90821538D01*
X118434220Y-90813379D01*
X118495157Y-90722181D01*
X118560194Y-90633840D01*
X118563713Y-90619580D01*
X118571871Y-90607370D01*
X118593269Y-90499792D01*
X118619548Y-90393290D01*
X118628903Y-90188115D01*
X118652651Y-90015097D01*
X118691704Y-89845376D01*
X118745749Y-89679233D01*
X118814528Y-89517080D01*
X118897786Y-89359481D01*
X118995271Y-89207079D01*
X119106695Y-89060608D01*
X119231709Y-88920897D01*
X119369947Y-88788766D01*
X119520996Y-88665087D01*
X119684400Y-88550738D01*
X119859704Y-88446583D01*
X120046416Y-88353497D01*
X120244052Y-88272345D01*
X120452150Y-88203980D01*
X120670243Y-88149263D01*
X120897892Y-88109067D01*
X121134648Y-88084278D01*
X121391074Y-88075423D01*
X128977379Y-88075423D01*
X129233803Y-88084278D01*
X129470559Y-88109067D01*
X129698205Y-88149263D01*
X129916294Y-88203978D01*
X130124401Y-88272347D01*
X130322043Y-88353502D01*
X130508751Y-88446585D01*
X130684054Y-88550740D01*
X130847457Y-88665089D01*
X130998497Y-88788761D01*
X131136744Y-88920897D01*
X131261755Y-89060607D01*
X131373177Y-89207073D01*
X131470665Y-89359482D01*
X131553923Y-89517079D01*
X131622702Y-89679233D01*
X131676747Y-89845376D01*
X131715800Y-90015097D01*
X131739548Y-90188115D01*
X131748903Y-90393289D01*
X131775181Y-90499789D01*
X131796580Y-90607370D01*
X131804738Y-90619580D01*
X131808257Y-90633840D01*
X131873294Y-90722181D01*
X131934231Y-90813379D01*
X131946442Y-90821538D01*
X131955149Y-90833365D01*
X132049038Y-90890090D01*
X132140240Y-90951030D01*
X132154643Y-90953895D01*
X132167214Y-90961490D01*
X132275666Y-90977968D01*
X132383244Y-90999366D01*
X134415244Y-90999366D01*
X134424072Y-90997610D01*
X134432944Y-90999119D01*
X134545261Y-90973504D01*
X134658248Y-90951030D01*
X134665731Y-90946030D01*
X134674506Y-90944029D01*
X134768475Y-90877378D01*
X134864257Y-90813379D01*
X134869257Y-90805896D01*
X134876598Y-90800689D01*
X134937900Y-90703164D01*
X135001908Y-90607370D01*
X135003664Y-90598542D01*
X135008453Y-90590923D01*
X135027767Y-90477366D01*
X135050244Y-90364366D01*
X135048488Y-90355538D01*
X135049997Y-90346666D01*
X135042748Y-90086700D01*
X135038746Y-90069151D01*
X135040768Y-90051263D01*
X135019271Y-89795271D01*
X135014302Y-89778001D01*
X135015322Y-89760060D01*
X134979954Y-89508324D01*
X134974057Y-89491436D01*
X134974079Y-89473546D01*
X134925220Y-89226344D01*
X134918438Y-89209914D01*
X134917479Y-89192165D01*
X134855503Y-88949780D01*
X134847892Y-88933889D01*
X134845981Y-88916377D01*
X134771268Y-88679088D01*
X134762888Y-88663798D01*
X134760061Y-88646592D01*
X134672988Y-88414682D01*
X134663901Y-88400043D01*
X134660202Y-88383211D01*
X134561145Y-88156957D01*
X134551414Y-88143004D01*
X134546891Y-88126608D01*
X134436229Y-87906293D01*
X134425918Y-87893058D01*
X134420622Y-87877141D01*
X134298731Y-87663045D01*
X134287901Y-87650544D01*
X134281880Y-87635138D01*
X134149138Y-87427542D01*
X134137845Y-87415785D01*
X134131151Y-87400921D01*
X133987936Y-87200104D01*
X133976230Y-87189090D01*
X133968908Y-87174784D01*
X133815596Y-86981028D01*
X133803525Y-86970756D01*
X133795619Y-86957019D01*
X133632587Y-86770605D01*
X133620193Y-86761068D01*
X133611743Y-86747907D01*
X133439371Y-86569115D01*
X133426689Y-86560302D01*
X133417731Y-86547719D01*
X133236395Y-86376829D01*
X133223454Y-86368726D01*
X133214018Y-86356720D01*
X133024095Y-86194014D01*
X133010923Y-86186611D01*
X133001040Y-86175182D01*
X132802908Y-86020939D01*
X132789526Y-86014223D01*
X132779218Y-86003365D01*
X132573254Y-85857866D01*
X132559679Y-85851825D01*
X132548965Y-85841534D01*
X132335546Y-85705061D01*
X132321802Y-85699689D01*
X132310701Y-85689963D01*
X132090204Y-85562794D01*
X132076296Y-85558080D01*
X132064821Y-85548915D01*
X131837626Y-85431333D01*
X131823571Y-85427273D01*
X131811736Y-85418670D01*
X131578218Y-85310955D01*
X131564028Y-85307545D01*
X131551846Y-85299507D01*
X131312382Y-85201939D01*
X131298069Y-85199178D01*
X131285553Y-85191709D01*
X131040523Y-85104567D01*
X131026098Y-85102456D01*
X131013255Y-85095559D01*
X130763035Y-85019127D01*
X130748516Y-85017669D01*
X130735361Y-85011354D01*
X130480327Y-84945911D01*
X130465729Y-84945110D01*
X130452278Y-84939388D01*
X130192810Y-84885214D01*
X130178153Y-84885075D01*
X130164416Y-84879956D01*
X129900889Y-84837333D01*
X129886194Y-84837862D01*
X129872197Y-84833362D01*
X129604989Y-84802569D01*
X129590281Y-84803772D01*
X129576041Y-84799903D01*
X129305531Y-84781222D01*
X129290841Y-84783104D01*
X129276386Y-84779881D01*
X129002949Y-84773591D01*
X128995632Y-84774872D01*
X128988346Y-84773423D01*
X126147590Y-84773423D01*
X126161730Y-84739370D01*
X126162069Y-84350337D01*
X126013507Y-83990788D01*
X125738659Y-83715460D01*
X125379370Y-83566270D01*
X124990337Y-83565931D01*
X124630788Y-83714493D01*
X124355460Y-83989341D01*
X124206270Y-84348630D01*
X124205931Y-84737663D01*
X124220707Y-84773423D01*
X121380106Y-84773423D01*
X121372820Y-84774872D01*
X121365502Y-84773591D01*
X121092066Y-84779881D01*
X121077611Y-84783104D01*
X121062921Y-84781222D01*
X120792410Y-84799903D01*
X120778170Y-84803772D01*
X120763461Y-84802569D01*
X120496254Y-84833362D01*
X120482257Y-84837862D01*
X120467562Y-84837333D01*
X120204036Y-84879956D01*
X120190299Y-84885075D01*
X120175642Y-84885214D01*
X119916173Y-84939388D01*
X119902722Y-84945110D01*
X119888125Y-84945911D01*
X119633090Y-85011354D01*
X119619935Y-85017669D01*
X119605416Y-85019127D01*
X119355196Y-85095559D01*
X119342353Y-85102456D01*
X119327929Y-85104567D01*
X119082898Y-85191708D01*
X119070381Y-85199178D01*
X119056067Y-85201939D01*
X118816605Y-85299507D01*
X118804423Y-85307545D01*
X118790234Y-85310955D01*
X118556715Y-85418670D01*
X118544880Y-85427273D01*
X118530825Y-85431333D01*
X118303630Y-85548915D01*
X118292156Y-85558079D01*
X118278245Y-85562794D01*
X118057749Y-85689963D01*
X118046647Y-85699690D01*
X118032905Y-85705061D01*
X117819486Y-85841534D01*
X117808772Y-85851825D01*
X117795197Y-85857866D01*
X117589233Y-86003365D01*
X117578925Y-86014223D01*
X117565543Y-86020939D01*
X117367411Y-86175182D01*
X117357528Y-86186611D01*
X117344356Y-86194014D01*
X117154433Y-86356720D01*
X117144997Y-86368726D01*
X117132056Y-86376829D01*
X116950720Y-86547719D01*
X116941762Y-86560302D01*
X116929080Y-86569115D01*
X116756708Y-86747907D01*
X116748259Y-86761066D01*
X116735864Y-86770604D01*
X116572833Y-86957019D01*
X116564928Y-86970754D01*
X116552855Y-86981028D01*
X116399543Y-87174784D01*
X116392220Y-87189092D01*
X116380516Y-87200104D01*
X116237300Y-87400920D01*
X116230604Y-87415787D01*
X116219313Y-87427543D01*
X116086571Y-87635138D01*
X116080551Y-87650542D01*
X116069720Y-87663044D01*
X115947829Y-87877141D01*
X115942533Y-87893058D01*
X115932222Y-87906293D01*
X115821559Y-88126608D01*
X115817036Y-88143007D01*
X115807305Y-88156959D01*
X115708249Y-88383213D01*
X115704551Y-88400042D01*
X115695465Y-88414679D01*
X115608391Y-88646590D01*
X115605564Y-88663797D01*
X115597183Y-88679088D01*
X115522470Y-88916377D01*
X115520559Y-88933892D01*
X115512948Y-88949782D01*
X115450973Y-89192167D01*
X115450014Y-89209915D01*
X115443233Y-89226342D01*
X115394373Y-89473544D01*
X115394395Y-89491433D01*
X115388496Y-89508327D01*
X115353130Y-89760063D01*
X115354149Y-89778001D01*
X115349181Y-89795271D01*
X115327684Y-90051263D01*
X115329706Y-90069150D01*
X115325704Y-90086698D01*
X115318454Y-90346664D01*
X115319963Y-90355537D01*
X115318207Y-90364366D01*
X110158244Y-90364366D01*
X110156488Y-90355538D01*
X110157997Y-90346666D01*
X110150748Y-90086700D01*
X110146746Y-90069151D01*
X110148768Y-90051263D01*
X110127271Y-89795271D01*
X110122302Y-89778001D01*
X110123322Y-89760060D01*
X110087954Y-89508324D01*
X110082057Y-89491436D01*
X110082079Y-89473546D01*
X110033220Y-89226344D01*
X110026438Y-89209914D01*
X110025479Y-89192165D01*
X109963503Y-88949780D01*
X109955892Y-88933889D01*
X109953981Y-88916377D01*
X109879268Y-88679088D01*
X109870888Y-88663798D01*
X109868061Y-88646592D01*
X109780988Y-88414682D01*
X109771901Y-88400043D01*
X109768202Y-88383211D01*
X109669145Y-88156957D01*
X109659414Y-88143004D01*
X109654891Y-88126608D01*
X109544229Y-87906293D01*
X109533918Y-87893058D01*
X109528622Y-87877141D01*
X109406731Y-87663045D01*
X109395901Y-87650544D01*
X109389880Y-87635138D01*
X109257138Y-87427542D01*
X109245845Y-87415785D01*
X109239151Y-87400921D01*
X109095936Y-87200104D01*
X109084230Y-87189090D01*
X109076908Y-87174784D01*
X108923596Y-86981028D01*
X108911525Y-86970756D01*
X108903619Y-86957019D01*
X108740587Y-86770605D01*
X108728193Y-86761068D01*
X108719743Y-86747907D01*
X108547371Y-86569115D01*
X108534689Y-86560302D01*
X108525731Y-86547719D01*
X108344395Y-86376829D01*
X108331454Y-86368726D01*
X108322018Y-86356720D01*
X108132095Y-86194014D01*
X108118923Y-86186611D01*
X108109040Y-86175182D01*
X107910908Y-86020939D01*
X107897526Y-86014223D01*
X107887218Y-86003365D01*
X107681254Y-85857866D01*
X107667679Y-85851825D01*
X107656965Y-85841534D01*
X107443546Y-85705061D01*
X107429802Y-85699689D01*
X107418701Y-85689963D01*
X107198204Y-85562794D01*
X107184296Y-85558080D01*
X107172821Y-85548915D01*
X106945626Y-85431333D01*
X106931571Y-85427273D01*
X106919736Y-85418670D01*
X106686218Y-85310955D01*
X106672028Y-85307545D01*
X106659846Y-85299507D01*
X106420382Y-85201939D01*
X106406069Y-85199178D01*
X106393553Y-85191709D01*
X106148523Y-85104567D01*
X106134098Y-85102456D01*
X106121255Y-85095559D01*
X105871035Y-85019127D01*
X105856516Y-85017669D01*
X105843361Y-85011354D01*
X105588327Y-84945911D01*
X105573729Y-84945110D01*
X105560278Y-84939388D01*
X105300810Y-84885214D01*
X105286153Y-84885075D01*
X105272416Y-84879956D01*
X105008889Y-84837333D01*
X104994194Y-84837862D01*
X104980197Y-84833362D01*
X104712989Y-84802569D01*
X104698281Y-84803772D01*
X104684041Y-84799903D01*
X104413531Y-84781222D01*
X104398841Y-84783104D01*
X104384386Y-84779881D01*
X104110949Y-84773591D01*
X104103632Y-84774872D01*
X104096346Y-84773423D01*
X96488106Y-84773423D01*
X96480820Y-84774872D01*
X96473502Y-84773591D01*
X96200066Y-84779881D01*
X96185611Y-84783104D01*
X96170921Y-84781222D01*
X95900410Y-84799903D01*
X95886170Y-84803772D01*
X95871461Y-84802569D01*
X95604254Y-84833362D01*
X95590257Y-84837862D01*
X95575562Y-84837333D01*
X95312036Y-84879956D01*
X95298299Y-84885075D01*
X95283642Y-84885214D01*
X95024173Y-84939388D01*
X95010722Y-84945110D01*
X94996125Y-84945911D01*
X94741090Y-85011354D01*
X94727935Y-85017669D01*
X94713416Y-85019127D01*
X94463196Y-85095559D01*
X94450353Y-85102456D01*
X94435929Y-85104567D01*
X94190898Y-85191708D01*
X94178381Y-85199178D01*
X94164067Y-85201939D01*
X93924605Y-85299507D01*
X93912423Y-85307545D01*
X93898234Y-85310955D01*
X93664715Y-85418670D01*
X93652880Y-85427273D01*
X93638825Y-85431333D01*
X93411630Y-85548915D01*
X93400156Y-85558079D01*
X93386245Y-85562794D01*
X93165749Y-85689963D01*
X93154647Y-85699690D01*
X93140905Y-85705061D01*
X92927486Y-85841534D01*
X92916772Y-85851825D01*
X92903197Y-85857866D01*
X92697233Y-86003365D01*
X92686925Y-86014223D01*
X92673543Y-86020939D01*
X92475411Y-86175182D01*
X92465528Y-86186611D01*
X92452356Y-86194014D01*
X92262433Y-86356720D01*
X92252997Y-86368726D01*
X92240056Y-86376829D01*
X92058720Y-86547719D01*
X92049762Y-86560302D01*
X92037080Y-86569115D01*
X91864708Y-86747907D01*
X91856259Y-86761066D01*
X91843864Y-86770604D01*
X91680833Y-86957019D01*
X91672928Y-86970754D01*
X91660855Y-86981028D01*
X91507543Y-87174784D01*
X91500220Y-87189092D01*
X91488516Y-87200104D01*
X91345300Y-87400920D01*
X91338604Y-87415787D01*
X91327313Y-87427543D01*
X91194571Y-87635138D01*
X91188551Y-87650542D01*
X91177720Y-87663044D01*
X91055829Y-87877141D01*
X91050533Y-87893058D01*
X91040222Y-87906293D01*
X90929559Y-88126608D01*
X90925036Y-88143007D01*
X90915305Y-88156959D01*
X90816249Y-88383213D01*
X90812551Y-88400042D01*
X90803465Y-88414679D01*
X90716391Y-88646590D01*
X90713564Y-88663797D01*
X90705183Y-88679088D01*
X90630470Y-88916377D01*
X90628559Y-88933892D01*
X90620948Y-88949782D01*
X90558973Y-89192167D01*
X90558014Y-89209915D01*
X90551233Y-89226342D01*
X90502373Y-89473544D01*
X90502395Y-89491433D01*
X90496496Y-89508327D01*
X90461130Y-89760063D01*
X90462149Y-89778001D01*
X90457181Y-89795271D01*
X90435684Y-90051263D01*
X90437706Y-90069150D01*
X90433704Y-90086698D01*
X90426454Y-90346664D01*
X90427963Y-90355537D01*
X90426207Y-90364366D01*
X81385672Y-90364366D01*
X81320839Y-90299533D01*
X81087450Y-90202860D01*
X80446890Y-90202860D01*
X80288140Y-90361610D01*
X80034140Y-90361610D01*
X79875390Y-90202860D01*
X79234830Y-90202860D01*
X79001441Y-90299533D01*
X78822813Y-90478162D01*
X78726140Y-90711551D01*
X71359870Y-90711551D01*
X71359870Y-90199310D01*
X71315592Y-89963993D01*
X71176520Y-89747869D01*
X70964320Y-89602879D01*
X70712430Y-89551870D01*
X69084797Y-89551870D01*
X58357352Y-83359382D01*
X58260358Y-83191383D01*
X59010618Y-82441123D01*
X59203329Y-82152711D01*
X59271000Y-81812505D01*
X59271000Y-78587440D01*
X59652000Y-78587440D01*
X59887317Y-78543162D01*
X60103441Y-78404090D01*
X60248431Y-78191890D01*
X60299440Y-77940000D01*
X60299440Y-72860000D01*
X79324560Y-72860000D01*
X79324560Y-77940000D01*
X79368838Y-78175317D01*
X79507910Y-78391441D01*
X79720110Y-78536431D01*
X79972000Y-78587440D01*
X80353000Y-78587440D01*
X80353000Y-81812505D01*
X80420671Y-82152711D01*
X80525253Y-82309229D01*
X80613382Y-82441123D01*
X81363642Y-83191383D01*
X81179844Y-83509730D01*
X81100531Y-83735659D01*
X81112909Y-83992364D01*
X81224184Y-84224029D01*
X81416823Y-84394149D01*
X82800437Y-85192979D01*
X83026366Y-85272292D01*
X83283071Y-85259914D01*
X83514736Y-85148639D01*
X83593544Y-85059399D01*
X83559801Y-85155519D01*
X83569344Y-85353420D01*
X83480627Y-85442137D01*
X83266788Y-85530493D01*
X82991460Y-85805341D01*
X82842270Y-86164630D01*
X82841931Y-86553663D01*
X82990493Y-86913212D01*
X83265341Y-87188540D01*
X83624630Y-87337730D01*
X84013663Y-87338069D01*
X84373212Y-87189507D01*
X84648540Y-86914659D01*
X84737986Y-86699250D01*
X84983732Y-86453504D01*
X85259707Y-86612839D01*
X85485636Y-86692152D01*
X85742341Y-86679774D01*
X85974006Y-86568499D01*
X86144126Y-86375860D01*
X87044556Y-84816270D01*
X87123869Y-84590341D01*
X87111491Y-84333636D01*
X87000216Y-84101971D01*
X86807577Y-83931851D01*
X85423963Y-83133021D01*
X85198034Y-83053708D01*
X84941329Y-83066086D01*
X84709664Y-83177361D01*
X84630856Y-83266601D01*
X84664599Y-83170481D01*
X84653457Y-82939414D01*
X85208324Y-82384547D01*
X85351212Y-82325507D01*
X85626540Y-82050659D01*
X85775730Y-81691370D01*
X85776069Y-81302337D01*
X85627507Y-80942788D01*
X85352659Y-80667460D01*
X84993370Y-80518270D01*
X84604337Y-80517931D01*
X84244788Y-80666493D01*
X83969460Y-80941341D01*
X83850450Y-81227949D01*
X83239269Y-81839130D01*
X83222771Y-81828106D01*
X83132779Y-81810206D01*
X82964693Y-81713161D01*
X82738764Y-81633848D01*
X82482059Y-81646226D01*
X82381337Y-81694606D01*
X82131000Y-81444269D01*
X82131000Y-78587440D01*
X82512000Y-78587440D01*
X82747317Y-78543162D01*
X82963441Y-78404090D01*
X83108431Y-78191890D01*
X83159440Y-77940000D01*
X83159440Y-72860000D01*
X83115162Y-72624683D01*
X82976090Y-72408559D01*
X82763890Y-72263569D01*
X82512000Y-72212560D01*
X82131000Y-72212560D01*
X82131000Y-70371731D01*
X82380813Y-70121918D01*
X82464780Y-70165144D01*
X82721045Y-70184609D01*
X82964693Y-70102839D01*
X84348307Y-69304009D01*
X84529958Y-69148005D01*
X84647591Y-68919503D01*
X84667056Y-68663238D01*
X84629176Y-68550367D01*
X84695548Y-68627651D01*
X84924050Y-68745284D01*
X85180315Y-68764749D01*
X85423963Y-68682979D01*
X86807577Y-67884149D01*
X86989228Y-67728145D01*
X87106861Y-67499643D01*
X87126326Y-67243378D01*
X87056090Y-67034097D01*
X87394643Y-66852950D01*
X87531663Y-66853069D01*
X87891212Y-66704507D01*
X88166540Y-66429659D01*
X88315730Y-66070370D01*
X88316069Y-65681337D01*
X88167507Y-65321788D01*
X87892659Y-65046460D01*
X87533370Y-64897270D01*
X87144337Y-64896931D01*
X86784788Y-65045493D01*
X86531651Y-65298188D01*
X86172972Y-65490103D01*
X86144126Y-65440140D01*
X85988122Y-65258489D01*
X85759620Y-65140856D01*
X85503355Y-65121391D01*
X85259707Y-65203161D01*
X83876093Y-66001991D01*
X83694442Y-66157995D01*
X83576809Y-66386497D01*
X83557344Y-66642762D01*
X83595224Y-66755633D01*
X83528852Y-66678349D01*
X83300350Y-66560716D01*
X83044085Y-66541251D01*
X82800437Y-66623021D01*
X81416823Y-67421851D01*
X81235172Y-67577855D01*
X81117539Y-67806357D01*
X81098074Y-68062622D01*
X81179844Y-68306270D01*
X81363642Y-68624617D01*
X80613382Y-69374877D01*
X80420671Y-69663289D01*
X80353000Y-70003495D01*
X80353000Y-72212560D01*
X79972000Y-72212560D01*
X79736683Y-72256838D01*
X79520559Y-72395910D01*
X79375569Y-72608110D01*
X79324560Y-72860000D01*
X60299440Y-72860000D01*
X60255162Y-72624683D01*
X60116090Y-72408559D01*
X59903890Y-72263569D01*
X59652000Y-72212560D01*
X59271000Y-72212560D01*
X59271000Y-70003495D01*
X59203329Y-69663289D01*
X59010618Y-69374877D01*
X58260358Y-68624617D01*
X58357352Y-68456618D01*
X69084797Y-62264130D01*
X70712430Y-62264130D01*
X70947747Y-62219852D01*
X71163871Y-62080780D01*
X71308861Y-61868580D01*
X71359870Y-61616690D01*
X71359870Y-60019030D01*
X71315592Y-59783713D01*
X71176520Y-59567589D01*
X70964320Y-59422599D01*
X70847634Y-59398970D01*
X70947747Y-59380132D01*
X71163871Y-59241060D01*
X71308861Y-59028860D01*
X71359870Y-58776970D01*
X71359870Y-57179310D01*
X71315592Y-56943993D01*
X71176520Y-56727869D01*
X70964320Y-56582879D01*
X70712430Y-56531870D01*
X70701000Y-56531870D01*
X70701000Y-56505055D01*
X70789730Y-56291370D01*
X70790069Y-55902337D01*
X70641507Y-55542788D01*
X70366659Y-55267460D01*
X70007370Y-55118270D01*
X69618337Y-55117931D01*
X69258788Y-55266493D01*
X68983460Y-55541341D01*
X68834270Y-55900630D01*
X68833931Y-56289663D01*
X68923000Y-56505227D01*
X68923000Y-56531870D01*
X68911570Y-56531870D01*
X68676253Y-56576148D01*
X68460129Y-56715220D01*
X68315139Y-56927420D01*
X68264130Y-57179310D01*
X68264130Y-58776970D01*
X68308408Y-59012287D01*
X68447480Y-59228411D01*
X68659680Y-59373401D01*
X68776366Y-59397030D01*
X68676253Y-59415868D01*
X68460129Y-59554940D01*
X68315139Y-59767140D01*
X68264130Y-60019030D01*
X68264130Y-60684891D01*
X57400394Y-66956054D01*
X56823563Y-66623021D01*
X56597634Y-66543708D01*
X56340929Y-66556086D01*
X56109264Y-66667361D01*
X56030456Y-66756601D01*
X56064199Y-66660481D01*
X56051821Y-66403776D01*
X55940546Y-66172111D01*
X55747907Y-66001991D01*
X54364293Y-65203161D01*
X54138364Y-65123848D01*
X53881659Y-65136226D01*
X53649994Y-65247501D01*
X53479874Y-65440140D01*
X53453844Y-65485225D01*
X53349750Y-65428996D01*
X53094659Y-65173460D01*
X52735370Y-65024270D01*
X52346337Y-65023931D01*
X51986788Y-65172493D01*
X51711460Y-65447341D01*
X51562270Y-65806630D01*
X51561931Y-66195663D01*
X50762000Y-66195663D01*
X50762000Y-51078506D01*
X50765478Y-51061021D01*
X50883856Y-50883855D01*
X51061019Y-50765479D01*
X51078509Y-50762000D01*
X137821494Y-50762000D01*
X137838979Y-50765478D01*
X137838979Y-50765478D01*
G37*
X137838979Y-50765478D02*
X138016145Y-50883856D01*
X138134521Y-51061019D01*
X138138000Y-51078509D01*
X138138000Y-98921491D01*
X138134521Y-98938981D01*
X138016145Y-99116144D01*
X137838979Y-99234522D01*
X137560070Y-99290000D01*
X51339931Y-99290000D01*
X51061019Y-99234521D01*
X50883856Y-99116145D01*
X50765478Y-98938979D01*
X50762000Y-98921494D01*
X50762000Y-66195663D01*
X51561931Y-66195663D01*
X51710493Y-66555212D01*
X51985341Y-66830540D01*
X52344630Y-66979730D01*
X52479721Y-66979848D01*
X52569415Y-67028298D01*
X52500131Y-67225659D01*
X52512509Y-67482364D01*
X52623784Y-67714029D01*
X52816423Y-67884149D01*
X54200037Y-68682979D01*
X54425966Y-68762292D01*
X54682671Y-68749914D01*
X54914336Y-68638639D01*
X54993144Y-68549399D01*
X54959401Y-68645519D01*
X54971779Y-68902224D01*
X55083054Y-69133889D01*
X55275693Y-69304009D01*
X56659307Y-70102839D01*
X56885236Y-70182152D01*
X57141941Y-70169774D01*
X57242663Y-70121394D01*
X57493000Y-70371731D01*
X57493000Y-72212560D01*
X57112000Y-72212560D01*
X56876683Y-72256838D01*
X56660559Y-72395910D01*
X56515569Y-72608110D01*
X56464560Y-72860000D01*
X56464560Y-77940000D01*
X56508838Y-78175317D01*
X56647910Y-78391441D01*
X56860110Y-78536431D01*
X57112000Y-78587440D01*
X57493000Y-78587440D01*
X57493000Y-81444269D01*
X57243187Y-81694082D01*
X57159220Y-81650856D01*
X56902955Y-81631391D01*
X56659307Y-81713161D01*
X55275693Y-82511991D01*
X55094042Y-82667995D01*
X54976409Y-82896497D01*
X54956944Y-83152762D01*
X54994824Y-83265633D01*
X54928452Y-83188349D01*
X54699950Y-83070716D01*
X54443685Y-83051251D01*
X54200037Y-83133021D01*
X52816423Y-83931851D01*
X52634772Y-84087855D01*
X52517139Y-84316357D01*
X52497674Y-84572622D01*
X52569789Y-84787500D01*
X52479915Y-84836047D01*
X52346337Y-84835931D01*
X51986788Y-84984493D01*
X51711460Y-85259341D01*
X51562270Y-85618630D01*
X51561931Y-86007663D01*
X51710493Y-86367212D01*
X51985341Y-86642540D01*
X52344630Y-86791730D01*
X52733663Y-86792069D01*
X53093212Y-86643507D01*
X53350651Y-86386517D01*
X53453844Y-86330775D01*
X53479874Y-86375860D01*
X53635878Y-86557511D01*
X53864380Y-86675144D01*
X54120645Y-86694609D01*
X54364293Y-86612839D01*
X55747907Y-85814009D01*
X55929558Y-85658005D01*
X56047191Y-85429503D01*
X56066656Y-85173238D01*
X56028776Y-85060367D01*
X56095148Y-85137651D01*
X56323650Y-85255284D01*
X56579915Y-85274749D01*
X56823563Y-85192979D01*
X57400394Y-84859946D01*
X68264130Y-91131109D01*
X68264130Y-91796970D01*
X68308408Y-92032287D01*
X68447480Y-92248411D01*
X68659680Y-92393401D01*
X68776366Y-92417030D01*
X68676253Y-92435868D01*
X68460129Y-92574940D01*
X68315139Y-92787140D01*
X68264130Y-93039030D01*
X68264130Y-94636690D01*
X68308408Y-94872007D01*
X68447480Y-95088131D01*
X68659680Y-95233121D01*
X68911570Y-95284130D01*
X68923000Y-95284130D01*
X68923000Y-95310945D01*
X68834270Y-95524630D01*
X68833931Y-95913663D01*
X68982493Y-96273212D01*
X69257341Y-96548540D01*
X69616630Y-96697730D01*
X70005663Y-96698069D01*
X70365212Y-96549507D01*
X70640540Y-96274659D01*
X70789730Y-95915370D01*
X70790069Y-95526337D01*
X70701000Y-95310773D01*
X70701000Y-95284130D01*
X70712430Y-95284130D01*
X70947747Y-95239852D01*
X71163871Y-95100780D01*
X71308861Y-94888580D01*
X71341610Y-94726860D01*
X72723634Y-94726860D01*
X72825250Y-94796291D01*
X73077140Y-94847300D01*
X74977140Y-94847300D01*
X75212457Y-94803022D01*
X75428581Y-94663950D01*
X75429700Y-94662312D01*
X75429700Y-95149860D01*
X75473978Y-95385177D01*
X75613050Y-95601301D01*
X75825250Y-95746291D01*
X76077140Y-95797300D01*
X77977140Y-95797300D01*
X78212457Y-95753022D01*
X78389870Y-95638860D01*
X78704904Y-95638860D01*
X78713700Y-95647656D01*
X78713700Y-96837860D01*
X78757978Y-97073177D01*
X78897050Y-97289301D01*
X79109250Y-97434291D01*
X79361140Y-97485300D01*
X80961140Y-97485300D01*
X81196457Y-97441022D01*
X81412581Y-97301950D01*
X81557571Y-97089750D01*
X81559036Y-97082516D01*
X81625910Y-97186441D01*
X81838110Y-97331431D01*
X82090000Y-97382440D01*
X84090000Y-97382440D01*
X84325317Y-97338162D01*
X84541441Y-97199090D01*
X84686431Y-96986890D01*
X84737440Y-96735000D01*
X84737440Y-95035000D01*
X85442560Y-95035000D01*
X85442560Y-96735000D01*
X85486838Y-96970317D01*
X85625910Y-97186441D01*
X85838110Y-97331431D01*
X86090000Y-97382440D01*
X87235204Y-97382440D01*
X88081382Y-98228618D01*
X88369794Y-98421329D01*
X88710000Y-98489000D01*
X98412000Y-98489000D01*
X98752206Y-98421329D01*
X99040618Y-98228618D01*
X99746659Y-97522577D01*
X100837341Y-97522577D01*
X101695382Y-98380618D01*
X101983794Y-98573329D01*
X102324000Y-98641000D01*
X123152000Y-98641000D01*
X123492206Y-98573329D01*
X123780618Y-98380618D01*
X124638659Y-97522577D01*
X128987894Y-97522577D01*
X128995180Y-97521128D01*
X129002497Y-97522409D01*
X129275934Y-97516119D01*
X129290389Y-97512896D01*
X129305079Y-97514778D01*
X129575589Y-97496097D01*
X129589830Y-97492228D01*
X129604538Y-97493431D01*
X129871746Y-97462638D01*
X129885743Y-97458138D01*
X129900438Y-97458667D01*
X130163964Y-97416044D01*
X130177701Y-97410925D01*
X130192358Y-97410786D01*
X130451827Y-97356612D01*
X130465278Y-97350890D01*
X130479876Y-97350089D01*
X130734910Y-97284646D01*
X130748065Y-97278331D01*
X130762584Y-97276873D01*
X131012804Y-97200441D01*
X131025647Y-97193544D01*
X131040071Y-97191433D01*
X131285102Y-97104292D01*
X131297619Y-97096822D01*
X131311933Y-97094061D01*
X131551395Y-96996493D01*
X131563577Y-96988455D01*
X131577767Y-96985045D01*
X131811285Y-96877330D01*
X131823121Y-96868727D01*
X131837174Y-96864667D01*
X132064370Y-96747086D01*
X132075845Y-96737921D01*
X132089756Y-96733206D01*
X132310251Y-96606037D01*
X132321353Y-96596310D01*
X132335095Y-96590939D01*
X132548514Y-96454466D01*
X132559228Y-96444175D01*
X132572803Y-96438134D01*
X132778767Y-96292635D01*
X132789075Y-96281777D01*
X132802457Y-96275061D01*
X133000589Y-96120818D01*
X133010472Y-96109389D01*
X133023644Y-96101986D01*
X133213567Y-95939280D01*
X133223003Y-95927274D01*
X133235944Y-95919171D01*
X133417280Y-95748281D01*
X133426238Y-95735698D01*
X133438920Y-95726885D01*
X133611292Y-95548093D01*
X133619742Y-95534932D01*
X133632136Y-95525395D01*
X133795168Y-95338981D01*
X133803074Y-95325244D01*
X133815145Y-95314972D01*
X133968457Y-95121216D01*
X133975779Y-95106910D01*
X133987485Y-95095896D01*
X134130700Y-94895079D01*
X134137394Y-94880215D01*
X134148687Y-94868458D01*
X134281429Y-94660862D01*
X134287450Y-94645456D01*
X134298280Y-94632955D01*
X134420171Y-94418859D01*
X134425467Y-94402942D01*
X134435778Y-94389707D01*
X134546440Y-94169392D01*
X134550963Y-94152995D01*
X134560695Y-94139041D01*
X134659751Y-93912787D01*
X134663449Y-93895958D01*
X134672535Y-93881321D01*
X134759610Y-93649409D01*
X134762437Y-93632201D01*
X134770817Y-93616912D01*
X134845530Y-93379623D01*
X134847441Y-93362108D01*
X134855052Y-93346218D01*
X134917027Y-93103832D01*
X134917986Y-93086086D01*
X134924767Y-93069658D01*
X134973627Y-92822456D01*
X134973605Y-92804565D01*
X134979503Y-92787674D01*
X135014870Y-92535937D01*
X135013851Y-92517999D01*
X135018819Y-92500729D01*
X135040316Y-92244737D01*
X135038294Y-92226850D01*
X135042296Y-92209302D01*
X135049546Y-91949336D01*
X135048037Y-91940463D01*
X135049793Y-91931634D01*
X135027317Y-91818641D01*
X135008003Y-91705079D01*
X135003213Y-91697459D01*
X135001457Y-91688630D01*
X134937454Y-91592843D01*
X134876149Y-91495313D01*
X134868807Y-91490105D01*
X134863806Y-91482621D01*
X134768023Y-91418621D01*
X134674057Y-91351972D01*
X134665281Y-91349970D01*
X134657797Y-91344970D01*
X134544810Y-91322496D01*
X134432495Y-91296881D01*
X134423622Y-91298390D01*
X134414793Y-91296634D01*
X132382793Y-91296634D01*
X132275215Y-91318032D01*
X132166763Y-91334510D01*
X132154192Y-91342105D01*
X132139789Y-91344970D01*
X132048587Y-91405910D01*
X131954698Y-91462635D01*
X131945991Y-91474462D01*
X131933780Y-91482621D01*
X131872843Y-91573819D01*
X131807806Y-91662160D01*
X131804287Y-91676420D01*
X131796129Y-91688630D01*
X131774730Y-91796211D01*
X131748452Y-91902711D01*
X131739097Y-92107885D01*
X131715349Y-92280903D01*
X131676296Y-92450624D01*
X131622252Y-92616764D01*
X131553473Y-92778917D01*
X131470214Y-92936519D01*
X131372726Y-93088927D01*
X131261304Y-93235393D01*
X131136293Y-93375103D01*
X130998046Y-93507239D01*
X130847006Y-93630912D01*
X130683600Y-93745262D01*
X130508301Y-93849415D01*
X130321589Y-93942500D01*
X130123944Y-94023656D01*
X129915851Y-94092020D01*
X129697744Y-94146739D01*
X129470108Y-94186933D01*
X129233351Y-94211722D01*
X128976927Y-94220577D01*
X121390622Y-94220577D01*
X121134196Y-94211722D01*
X120897441Y-94186933D01*
X120669795Y-94146737D01*
X120451705Y-94092022D01*
X120243610Y-94023658D01*
X120045962Y-93942500D01*
X119859254Y-93849417D01*
X119683946Y-93745260D01*
X119520548Y-93630915D01*
X119369496Y-93507234D01*
X119231258Y-93375103D01*
X119106244Y-93235392D01*
X118994820Y-93088921D01*
X118897335Y-92936518D01*
X118814077Y-92778921D01*
X118745298Y-92616767D01*
X118691253Y-92450624D01*
X118652200Y-92280903D01*
X118628452Y-92107885D01*
X118619097Y-91902710D01*
X118592818Y-91796208D01*
X118571420Y-91688630D01*
X118563262Y-91676420D01*
X118559743Y-91662160D01*
X118494706Y-91573819D01*
X118433769Y-91482621D01*
X118421558Y-91474462D01*
X118412851Y-91462635D01*
X118318962Y-91405910D01*
X118227760Y-91344970D01*
X118213357Y-91342105D01*
X118200786Y-91334510D01*
X118092334Y-91318032D01*
X117984756Y-91296634D01*
X115952756Y-91296634D01*
X115943928Y-91298390D01*
X115935056Y-91296881D01*
X115822739Y-91322496D01*
X115709752Y-91344970D01*
X115702269Y-91349970D01*
X115693494Y-91351971D01*
X115599525Y-91418622D01*
X115503743Y-91482621D01*
X115498743Y-91490104D01*
X115491402Y-91495311D01*
X115430100Y-91592836D01*
X115366092Y-91688630D01*
X115364336Y-91697458D01*
X115359547Y-91705077D01*
X115340233Y-91818634D01*
X115317756Y-91931634D01*
X115319512Y-91940462D01*
X115318003Y-91949334D01*
X115325252Y-92209300D01*
X115329254Y-92226849D01*
X115327232Y-92244737D01*
X115348729Y-92500729D01*
X115353697Y-92517999D01*
X115352678Y-92535939D01*
X115388046Y-92787676D01*
X115393943Y-92804564D01*
X115393921Y-92822454D01*
X115442780Y-93069655D01*
X115449562Y-93086084D01*
X115450521Y-93103835D01*
X115512497Y-93346220D01*
X115520108Y-93362111D01*
X115522019Y-93379623D01*
X115596732Y-93616912D01*
X115605113Y-93632202D01*
X115607939Y-93649407D01*
X115695012Y-93881318D01*
X115704099Y-93895957D01*
X115707798Y-93912789D01*
X115806855Y-94139043D01*
X115816585Y-94152993D01*
X115821108Y-94169392D01*
X115931771Y-94389707D01*
X115942082Y-94402942D01*
X115947378Y-94418859D01*
X116069269Y-94632956D01*
X116080100Y-94645458D01*
X116086120Y-94660862D01*
X116218862Y-94868457D01*
X116230153Y-94880213D01*
X116236849Y-94895080D01*
X116380065Y-95095896D01*
X116391769Y-95106908D01*
X116399092Y-95121216D01*
X116552404Y-95314972D01*
X116564477Y-95325246D01*
X116572382Y-95338981D01*
X116735413Y-95525396D01*
X116747808Y-95534934D01*
X116756257Y-95548093D01*
X116928629Y-95726885D01*
X116941311Y-95735698D01*
X116950269Y-95748281D01*
X117131605Y-95919171D01*
X117144546Y-95927274D01*
X117153982Y-95939280D01*
X117343905Y-96101986D01*
X117357077Y-96109389D01*
X117366960Y-96120818D01*
X117565092Y-96275061D01*
X117578474Y-96281777D01*
X117588782Y-96292635D01*
X117794746Y-96438134D01*
X117808321Y-96444175D01*
X117819035Y-96454466D01*
X118032454Y-96590939D01*
X118046200Y-96596311D01*
X118057300Y-96606037D01*
X118277796Y-96733206D01*
X118291704Y-96737920D01*
X118303179Y-96747085D01*
X118527152Y-96863000D01*
X106948395Y-96863000D01*
X107172370Y-96747086D01*
X107183845Y-96737921D01*
X107197756Y-96733206D01*
X107418251Y-96606037D01*
X107429353Y-96596310D01*
X107443095Y-96590939D01*
X107656514Y-96454466D01*
X107667228Y-96444175D01*
X107680803Y-96438134D01*
X107886767Y-96292635D01*
X107897075Y-96281777D01*
X107910457Y-96275061D01*
X108108589Y-96120818D01*
X108118472Y-96109389D01*
X108131644Y-96101986D01*
X108321567Y-95939280D01*
X108331003Y-95927274D01*
X108343944Y-95919171D01*
X108525280Y-95748281D01*
X108534238Y-95735698D01*
X108546920Y-95726885D01*
X108719292Y-95548093D01*
X108727742Y-95534932D01*
X108740136Y-95525395D01*
X108903168Y-95338981D01*
X108911074Y-95325244D01*
X108923145Y-95314972D01*
X109076457Y-95121216D01*
X109083779Y-95106910D01*
X109095485Y-95095896D01*
X109238700Y-94895079D01*
X109245394Y-94880215D01*
X109256687Y-94868458D01*
X109389429Y-94660862D01*
X109395450Y-94645456D01*
X109406280Y-94632955D01*
X109528171Y-94418859D01*
X109533467Y-94402942D01*
X109543778Y-94389707D01*
X109654440Y-94169392D01*
X109658963Y-94152995D01*
X109668695Y-94139041D01*
X109767751Y-93912787D01*
X109771449Y-93895958D01*
X109780535Y-93881321D01*
X109867610Y-93649409D01*
X109870437Y-93632201D01*
X109878817Y-93616912D01*
X109953530Y-93379623D01*
X109955441Y-93362108D01*
X109963052Y-93346218D01*
X110025027Y-93103832D01*
X110025986Y-93086086D01*
X110032767Y-93069658D01*
X110081627Y-92822456D01*
X110081605Y-92804565D01*
X110087503Y-92787674D01*
X110122870Y-92535937D01*
X110121851Y-92517999D01*
X110126819Y-92500729D01*
X110148316Y-92244737D01*
X110146294Y-92226850D01*
X110150296Y-92209302D01*
X110157546Y-91949336D01*
X110156037Y-91940463D01*
X110157793Y-91931634D01*
X110135317Y-91818641D01*
X110116003Y-91705079D01*
X110111213Y-91697459D01*
X110109457Y-91688630D01*
X110045454Y-91592843D01*
X109984149Y-91495313D01*
X109976807Y-91490105D01*
X109971806Y-91482621D01*
X109876023Y-91418621D01*
X109782057Y-91351972D01*
X109773281Y-91349970D01*
X109765797Y-91344970D01*
X109652810Y-91322496D01*
X109540495Y-91296881D01*
X109531622Y-91298390D01*
X109522793Y-91296634D01*
X107490793Y-91296634D01*
X107383215Y-91318032D01*
X107274763Y-91334510D01*
X107262192Y-91342105D01*
X107247789Y-91344970D01*
X107156587Y-91405910D01*
X107062698Y-91462635D01*
X107053991Y-91474462D01*
X107041780Y-91482621D01*
X106980843Y-91573819D01*
X106915806Y-91662160D01*
X106912287Y-91676420D01*
X106904129Y-91688630D01*
X106882730Y-91796211D01*
X106856452Y-91902711D01*
X106847097Y-92107885D01*
X106823349Y-92280903D01*
X106784296Y-92450624D01*
X106730252Y-92616764D01*
X106661473Y-92778917D01*
X106578214Y-92936519D01*
X106480726Y-93088927D01*
X106369304Y-93235393D01*
X106244293Y-93375103D01*
X106106046Y-93507239D01*
X105955006Y-93630912D01*
X105791600Y-93745262D01*
X105616301Y-93849415D01*
X105429589Y-93942500D01*
X105231944Y-94023656D01*
X105023851Y-94092020D01*
X104805744Y-94146739D01*
X104578108Y-94186933D01*
X104341351Y-94211722D01*
X104084927Y-94220577D01*
X96498622Y-94220577D01*
X96242196Y-94211722D01*
X96005441Y-94186933D01*
X95777795Y-94146737D01*
X95559705Y-94092022D01*
X95351610Y-94023658D01*
X95153962Y-93942500D01*
X94967254Y-93849417D01*
X94791946Y-93745260D01*
X94628548Y-93630915D01*
X94477496Y-93507234D01*
X94339258Y-93375103D01*
X94214244Y-93235392D01*
X94102820Y-93088921D01*
X94005335Y-92936518D01*
X93922077Y-92778921D01*
X93853298Y-92616767D01*
X93799253Y-92450624D01*
X93760200Y-92280903D01*
X93736452Y-92107885D01*
X93727097Y-91902710D01*
X93700818Y-91796208D01*
X93679420Y-91688630D01*
X93671262Y-91676420D01*
X93667743Y-91662160D01*
X93602706Y-91573819D01*
X93541769Y-91482621D01*
X93529558Y-91474462D01*
X93520851Y-91462635D01*
X93426962Y-91405910D01*
X93335760Y-91344970D01*
X93321357Y-91342105D01*
X93308786Y-91334510D01*
X93200334Y-91318032D01*
X93092756Y-91296634D01*
X91060756Y-91296634D01*
X91051928Y-91298390D01*
X91043056Y-91296881D01*
X90930739Y-91322496D01*
X90817752Y-91344970D01*
X90810269Y-91349970D01*
X90801494Y-91351971D01*
X90707525Y-91418622D01*
X90611743Y-91482621D01*
X90606743Y-91490104D01*
X90599402Y-91495311D01*
X90538100Y-91592836D01*
X90474092Y-91688630D01*
X90472336Y-91697458D01*
X90467547Y-91705077D01*
X90448233Y-91818634D01*
X90425756Y-91931634D01*
X90427512Y-91940462D01*
X90426003Y-91949334D01*
X90433252Y-92209300D01*
X90437254Y-92226849D01*
X90435232Y-92244737D01*
X90456729Y-92500729D01*
X90461697Y-92517999D01*
X90460678Y-92535939D01*
X90496046Y-92787676D01*
X90501943Y-92804564D01*
X90501921Y-92822454D01*
X90550780Y-93069655D01*
X90557562Y-93086084D01*
X90558521Y-93103835D01*
X90620497Y-93346220D01*
X90628108Y-93362111D01*
X90630019Y-93379623D01*
X90704732Y-93616912D01*
X90713113Y-93632202D01*
X90715939Y-93649407D01*
X90803012Y-93881318D01*
X90812099Y-93895957D01*
X90815798Y-93912789D01*
X90914855Y-94139043D01*
X90924585Y-94152993D01*
X90929108Y-94169392D01*
X91039771Y-94389707D01*
X91050082Y-94402942D01*
X91055378Y-94418859D01*
X91177269Y-94632956D01*
X91188100Y-94645458D01*
X91194120Y-94660862D01*
X91326862Y-94868457D01*
X91338153Y-94880213D01*
X91344849Y-94895080D01*
X91488065Y-95095896D01*
X91499769Y-95106908D01*
X91507092Y-95121216D01*
X91660404Y-95314972D01*
X91672477Y-95325246D01*
X91680382Y-95338981D01*
X91843413Y-95525396D01*
X91855808Y-95534934D01*
X91864257Y-95548093D01*
X92036629Y-95726885D01*
X92049311Y-95735698D01*
X92058269Y-95748281D01*
X92239605Y-95919171D01*
X92252546Y-95927274D01*
X92261982Y-95939280D01*
X92451905Y-96101986D01*
X92465077Y-96109389D01*
X92474960Y-96120818D01*
X92673092Y-96275061D01*
X92686474Y-96281777D01*
X92696782Y-96292635D01*
X92902746Y-96438134D01*
X92916321Y-96444175D01*
X92927035Y-96454466D01*
X93140454Y-96590939D01*
X93154200Y-96596311D01*
X93165300Y-96606037D01*
X93347293Y-96711000D01*
X89078236Y-96711000D01*
X88737440Y-96370204D01*
X88737440Y-95035000D01*
X88693162Y-94799683D01*
X88554090Y-94583559D01*
X88341890Y-94438569D01*
X88090000Y-94387560D01*
X86090000Y-94387560D01*
X85854683Y-94431838D01*
X85638559Y-94570910D01*
X85493569Y-94783110D01*
X85442560Y-95035000D01*
X84737440Y-95035000D01*
X84693162Y-94799683D01*
X84554090Y-94583559D01*
X84341890Y-94438569D01*
X84090000Y-94387560D01*
X82090000Y-94387560D01*
X81854683Y-94431838D01*
X81638559Y-94570910D01*
X81575669Y-94662953D01*
X81564302Y-94602543D01*
X81425230Y-94386419D01*
X81213030Y-94241429D01*
X80961140Y-94190420D01*
X79770936Y-94190420D01*
X79701758Y-94121242D01*
X79649745Y-94086488D01*
X79413346Y-93928531D01*
X79073140Y-93860860D01*
X78386261Y-93860860D01*
X78301390Y-93802870D01*
X78336838Y-93788187D01*
X78515467Y-93609559D01*
X78612140Y-93376170D01*
X78612140Y-93135610D01*
X78453390Y-92976860D01*
X77154140Y-92976860D01*
X77154140Y-92996860D01*
X76900140Y-92996860D01*
X76900140Y-92976860D01*
X75600890Y-92976860D01*
X75514878Y-93062872D01*
X75441230Y-92948419D01*
X75229030Y-92803429D01*
X75093948Y-92776074D01*
X75145730Y-92651370D01*
X75146015Y-92323550D01*
X75442140Y-92323550D01*
X75442140Y-92564110D01*
X75600890Y-92722860D01*
X76900140Y-92722860D01*
X76900140Y-91973610D01*
X77154140Y-91973610D01*
X77154140Y-92722860D01*
X78453390Y-92722860D01*
X78612140Y-92564110D01*
X78612140Y-92323550D01*
X78529323Y-92123610D01*
X78726140Y-92123610D01*
X78726140Y-92964169D01*
X78822813Y-93197558D01*
X79001441Y-93376187D01*
X79234830Y-93472860D01*
X79875390Y-93472860D01*
X80034140Y-93314110D01*
X80034140Y-91964860D01*
X80288140Y-91964860D01*
X80288140Y-93314110D01*
X80446890Y-93472860D01*
X81087450Y-93472860D01*
X81320839Y-93376187D01*
X81499467Y-93197558D01*
X81596140Y-92964169D01*
X81596140Y-92123610D01*
X81437390Y-91964860D01*
X80288140Y-91964860D01*
X80034140Y-91964860D01*
X78884890Y-91964860D01*
X78726140Y-92123610D01*
X78529323Y-92123610D01*
X78515467Y-92090161D01*
X78336838Y-91911533D01*
X78103449Y-91814860D01*
X77312890Y-91814860D01*
X77154140Y-91973610D01*
X76900140Y-91973610D01*
X76741390Y-91814860D01*
X75950831Y-91814860D01*
X75717442Y-91911533D01*
X75538813Y-92090161D01*
X75442140Y-92323550D01*
X75146015Y-92323550D01*
X75146069Y-92262337D01*
X74997507Y-91902788D01*
X74722659Y-91627460D01*
X74363370Y-91478270D01*
X73974337Y-91477931D01*
X73614788Y-91626493D01*
X73339460Y-91901341D01*
X73190270Y-92260630D01*
X73190205Y-92335110D01*
X73138140Y-92596860D01*
X73138140Y-92752420D01*
X73077140Y-92752420D01*
X72841823Y-92796698D01*
X72625699Y-92935770D01*
X72616755Y-92948860D01*
X71342903Y-92948860D01*
X71315592Y-92803713D01*
X71176520Y-92587589D01*
X70964320Y-92442599D01*
X70847634Y-92418970D01*
X70947747Y-92400132D01*
X71163871Y-92261060D01*
X71308861Y-92048860D01*
X71359870Y-91796970D01*
X71359870Y-90711551D01*
X78726140Y-90711551D01*
X78726140Y-91552110D01*
X78884890Y-91710860D01*
X80034140Y-91710860D01*
X80034140Y-90361610D01*
X80288140Y-90361610D01*
X80288140Y-91710860D01*
X81437390Y-91710860D01*
X81596140Y-91552110D01*
X81596140Y-90711551D01*
X81499467Y-90478162D01*
X81385672Y-90364366D01*
X90426207Y-90364366D01*
X90448683Y-90477359D01*
X90467997Y-90590921D01*
X90472787Y-90598541D01*
X90474543Y-90607370D01*
X90538546Y-90703157D01*
X90599851Y-90800687D01*
X90607193Y-90805895D01*
X90612194Y-90813379D01*
X90707977Y-90877379D01*
X90801943Y-90944028D01*
X90810719Y-90946030D01*
X90818203Y-90951030D01*
X90931190Y-90973504D01*
X91043505Y-90999119D01*
X91052378Y-90997610D01*
X91061207Y-90999366D01*
X93093207Y-90999366D01*
X93200785Y-90977968D01*
X93309237Y-90961490D01*
X93321808Y-90953895D01*
X93336211Y-90951030D01*
X93427413Y-90890090D01*
X93521302Y-90833365D01*
X93530009Y-90821538D01*
X93542220Y-90813379D01*
X93603157Y-90722181D01*
X93668194Y-90633840D01*
X93671713Y-90619580D01*
X93679871Y-90607370D01*
X93701269Y-90499792D01*
X93727548Y-90393290D01*
X93736903Y-90188115D01*
X93760651Y-90015097D01*
X93799704Y-89845376D01*
X93853749Y-89679233D01*
X93922528Y-89517080D01*
X94005786Y-89359481D01*
X94103271Y-89207079D01*
X94214695Y-89060608D01*
X94339709Y-88920897D01*
X94477947Y-88788766D01*
X94628996Y-88665087D01*
X94792400Y-88550738D01*
X94967704Y-88446583D01*
X95154416Y-88353497D01*
X95352052Y-88272345D01*
X95560150Y-88203980D01*
X95778243Y-88149263D01*
X96005892Y-88109067D01*
X96242648Y-88084278D01*
X96499074Y-88075423D01*
X104085379Y-88075423D01*
X104341803Y-88084278D01*
X104578559Y-88109067D01*
X104806205Y-88149263D01*
X105024294Y-88203978D01*
X105232401Y-88272347D01*
X105430043Y-88353502D01*
X105616751Y-88446585D01*
X105792054Y-88550740D01*
X105955457Y-88665089D01*
X106106497Y-88788761D01*
X106244744Y-88920897D01*
X106369755Y-89060607D01*
X106481177Y-89207073D01*
X106578665Y-89359482D01*
X106661923Y-89517079D01*
X106730702Y-89679233D01*
X106784747Y-89845376D01*
X106823800Y-90015097D01*
X106847548Y-90188115D01*
X106856903Y-90393289D01*
X106883181Y-90499789D01*
X106904580Y-90607370D01*
X106912738Y-90619580D01*
X106916257Y-90633840D01*
X106981294Y-90722181D01*
X107042231Y-90813379D01*
X107054442Y-90821538D01*
X107063149Y-90833365D01*
X107157038Y-90890090D01*
X107248240Y-90951030D01*
X107262643Y-90953895D01*
X107275214Y-90961490D01*
X107383666Y-90977968D01*
X107491244Y-90999366D01*
X109523244Y-90999366D01*
X109532072Y-90997610D01*
X109540944Y-90999119D01*
X109653261Y-90973504D01*
X109766248Y-90951030D01*
X109773731Y-90946030D01*
X109782506Y-90944029D01*
X109876475Y-90877378D01*
X109972257Y-90813379D01*
X109977257Y-90805896D01*
X109984598Y-90800689D01*
X110045900Y-90703164D01*
X110109908Y-90607370D01*
X110111664Y-90598542D01*
X110116453Y-90590923D01*
X110135767Y-90477366D01*
X110158244Y-90364366D01*
X115318207Y-90364366D01*
X115340683Y-90477359D01*
X115359997Y-90590921D01*
X115364787Y-90598541D01*
X115366543Y-90607370D01*
X115430546Y-90703157D01*
X115491851Y-90800687D01*
X115499193Y-90805895D01*
X115504194Y-90813379D01*
X115599977Y-90877379D01*
X115693943Y-90944028D01*
X115702719Y-90946030D01*
X115710203Y-90951030D01*
X115823190Y-90973504D01*
X115935505Y-90999119D01*
X115944378Y-90997610D01*
X115953207Y-90999366D01*
X117985207Y-90999366D01*
X118092785Y-90977968D01*
X118201237Y-90961490D01*
X118213808Y-90953895D01*
X118228211Y-90951030D01*
X118319413Y-90890090D01*
X118413302Y-90833365D01*
X118422009Y-90821538D01*
X118434220Y-90813379D01*
X118495157Y-90722181D01*
X118560194Y-90633840D01*
X118563713Y-90619580D01*
X118571871Y-90607370D01*
X118593269Y-90499792D01*
X118619548Y-90393290D01*
X118628903Y-90188115D01*
X118652651Y-90015097D01*
X118691704Y-89845376D01*
X118745749Y-89679233D01*
X118814528Y-89517080D01*
X118897786Y-89359481D01*
X118995271Y-89207079D01*
X119106695Y-89060608D01*
X119231709Y-88920897D01*
X119369947Y-88788766D01*
X119520996Y-88665087D01*
X119684400Y-88550738D01*
X119859704Y-88446583D01*
X120046416Y-88353497D01*
X120244052Y-88272345D01*
X120452150Y-88203980D01*
X120670243Y-88149263D01*
X120897892Y-88109067D01*
X121134648Y-88084278D01*
X121391074Y-88075423D01*
X128977379Y-88075423D01*
X129233803Y-88084278D01*
X129470559Y-88109067D01*
X129698205Y-88149263D01*
X129916294Y-88203978D01*
X130124401Y-88272347D01*
X130322043Y-88353502D01*
X130508751Y-88446585D01*
X130684054Y-88550740D01*
X130847457Y-88665089D01*
X130998497Y-88788761D01*
X131136744Y-88920897D01*
X131261755Y-89060607D01*
X131373177Y-89207073D01*
X131470665Y-89359482D01*
X131553923Y-89517079D01*
X131622702Y-89679233D01*
X131676747Y-89845376D01*
X131715800Y-90015097D01*
X131739548Y-90188115D01*
X131748903Y-90393289D01*
X131775181Y-90499789D01*
X131796580Y-90607370D01*
X131804738Y-90619580D01*
X131808257Y-90633840D01*
X131873294Y-90722181D01*
X131934231Y-90813379D01*
X131946442Y-90821538D01*
X131955149Y-90833365D01*
X132049038Y-90890090D01*
X132140240Y-90951030D01*
X132154643Y-90953895D01*
X132167214Y-90961490D01*
X132275666Y-90977968D01*
X132383244Y-90999366D01*
X134415244Y-90999366D01*
X134424072Y-90997610D01*
X134432944Y-90999119D01*
X134545261Y-90973504D01*
X134658248Y-90951030D01*
X134665731Y-90946030D01*
X134674506Y-90944029D01*
X134768475Y-90877378D01*
X134864257Y-90813379D01*
X134869257Y-90805896D01*
X134876598Y-90800689D01*
X134937900Y-90703164D01*
X135001908Y-90607370D01*
X135003664Y-90598542D01*
X135008453Y-90590923D01*
X135027767Y-90477366D01*
X135050244Y-90364366D01*
X135048488Y-90355538D01*
X135049997Y-90346666D01*
X135042748Y-90086700D01*
X135038746Y-90069151D01*
X135040768Y-90051263D01*
X135019271Y-89795271D01*
X135014302Y-89778001D01*
X135015322Y-89760060D01*
X134979954Y-89508324D01*
X134974057Y-89491436D01*
X134974079Y-89473546D01*
X134925220Y-89226344D01*
X134918438Y-89209914D01*
X134917479Y-89192165D01*
X134855503Y-88949780D01*
X134847892Y-88933889D01*
X134845981Y-88916377D01*
X134771268Y-88679088D01*
X134762888Y-88663798D01*
X134760061Y-88646592D01*
X134672988Y-88414682D01*
X134663901Y-88400043D01*
X134660202Y-88383211D01*
X134561145Y-88156957D01*
X134551414Y-88143004D01*
X134546891Y-88126608D01*
X134436229Y-87906293D01*
X134425918Y-87893058D01*
X134420622Y-87877141D01*
X134298731Y-87663045D01*
X134287901Y-87650544D01*
X134281880Y-87635138D01*
X134149138Y-87427542D01*
X134137845Y-87415785D01*
X134131151Y-87400921D01*
X133987936Y-87200104D01*
X133976230Y-87189090D01*
X133968908Y-87174784D01*
X133815596Y-86981028D01*
X133803525Y-86970756D01*
X133795619Y-86957019D01*
X133632587Y-86770605D01*
X133620193Y-86761068D01*
X133611743Y-86747907D01*
X133439371Y-86569115D01*
X133426689Y-86560302D01*
X133417731Y-86547719D01*
X133236395Y-86376829D01*
X133223454Y-86368726D01*
X133214018Y-86356720D01*
X133024095Y-86194014D01*
X133010923Y-86186611D01*
X133001040Y-86175182D01*
X132802908Y-86020939D01*
X132789526Y-86014223D01*
X132779218Y-86003365D01*
X132573254Y-85857866D01*
X132559679Y-85851825D01*
X132548965Y-85841534D01*
X132335546Y-85705061D01*
X132321802Y-85699689D01*
X132310701Y-85689963D01*
X132090204Y-85562794D01*
X132076296Y-85558080D01*
X132064821Y-85548915D01*
X131837626Y-85431333D01*
X131823571Y-85427273D01*
X131811736Y-85418670D01*
X131578218Y-85310955D01*
X131564028Y-85307545D01*
X131551846Y-85299507D01*
X131312382Y-85201939D01*
X131298069Y-85199178D01*
X131285553Y-85191709D01*
X131040523Y-85104567D01*
X131026098Y-85102456D01*
X131013255Y-85095559D01*
X130763035Y-85019127D01*
X130748516Y-85017669D01*
X130735361Y-85011354D01*
X130480327Y-84945911D01*
X130465729Y-84945110D01*
X130452278Y-84939388D01*
X130192810Y-84885214D01*
X130178153Y-84885075D01*
X130164416Y-84879956D01*
X129900889Y-84837333D01*
X129886194Y-84837862D01*
X129872197Y-84833362D01*
X129604989Y-84802569D01*
X129590281Y-84803772D01*
X129576041Y-84799903D01*
X129305531Y-84781222D01*
X129290841Y-84783104D01*
X129276386Y-84779881D01*
X129002949Y-84773591D01*
X128995632Y-84774872D01*
X128988346Y-84773423D01*
X126147590Y-84773423D01*
X126161730Y-84739370D01*
X126162069Y-84350337D01*
X126013507Y-83990788D01*
X125738659Y-83715460D01*
X125379370Y-83566270D01*
X124990337Y-83565931D01*
X124630788Y-83714493D01*
X124355460Y-83989341D01*
X124206270Y-84348630D01*
X124205931Y-84737663D01*
X124220707Y-84773423D01*
X121380106Y-84773423D01*
X121372820Y-84774872D01*
X121365502Y-84773591D01*
X121092066Y-84779881D01*
X121077611Y-84783104D01*
X121062921Y-84781222D01*
X120792410Y-84799903D01*
X120778170Y-84803772D01*
X120763461Y-84802569D01*
X120496254Y-84833362D01*
X120482257Y-84837862D01*
X120467562Y-84837333D01*
X120204036Y-84879956D01*
X120190299Y-84885075D01*
X120175642Y-84885214D01*
X119916173Y-84939388D01*
X119902722Y-84945110D01*
X119888125Y-84945911D01*
X119633090Y-85011354D01*
X119619935Y-85017669D01*
X119605416Y-85019127D01*
X119355196Y-85095559D01*
X119342353Y-85102456D01*
X119327929Y-85104567D01*
X119082898Y-85191708D01*
X119070381Y-85199178D01*
X119056067Y-85201939D01*
X118816605Y-85299507D01*
X118804423Y-85307545D01*
X118790234Y-85310955D01*
X118556715Y-85418670D01*
X118544880Y-85427273D01*
X118530825Y-85431333D01*
X118303630Y-85548915D01*
X118292156Y-85558079D01*
X118278245Y-85562794D01*
X118057749Y-85689963D01*
X118046647Y-85699690D01*
X118032905Y-85705061D01*
X117819486Y-85841534D01*
X117808772Y-85851825D01*
X117795197Y-85857866D01*
X117589233Y-86003365D01*
X117578925Y-86014223D01*
X117565543Y-86020939D01*
X117367411Y-86175182D01*
X117357528Y-86186611D01*
X117344356Y-86194014D01*
X117154433Y-86356720D01*
X117144997Y-86368726D01*
X117132056Y-86376829D01*
X116950720Y-86547719D01*
X116941762Y-86560302D01*
X116929080Y-86569115D01*
X116756708Y-86747907D01*
X116748259Y-86761066D01*
X116735864Y-86770604D01*
X116572833Y-86957019D01*
X116564928Y-86970754D01*
X116552855Y-86981028D01*
X116399543Y-87174784D01*
X116392220Y-87189092D01*
X116380516Y-87200104D01*
X116237300Y-87400920D01*
X116230604Y-87415787D01*
X116219313Y-87427543D01*
X116086571Y-87635138D01*
X116080551Y-87650542D01*
X116069720Y-87663044D01*
X115947829Y-87877141D01*
X115942533Y-87893058D01*
X115932222Y-87906293D01*
X115821559Y-88126608D01*
X115817036Y-88143007D01*
X115807305Y-88156959D01*
X115708249Y-88383213D01*
X115704551Y-88400042D01*
X115695465Y-88414679D01*
X115608391Y-88646590D01*
X115605564Y-88663797D01*
X115597183Y-88679088D01*
X115522470Y-88916377D01*
X115520559Y-88933892D01*
X115512948Y-88949782D01*
X115450973Y-89192167D01*
X115450014Y-89209915D01*
X115443233Y-89226342D01*
X115394373Y-89473544D01*
X115394395Y-89491433D01*
X115388496Y-89508327D01*
X115353130Y-89760063D01*
X115354149Y-89778001D01*
X115349181Y-89795271D01*
X115327684Y-90051263D01*
X115329706Y-90069150D01*
X115325704Y-90086698D01*
X115318454Y-90346664D01*
X115319963Y-90355537D01*
X115318207Y-90364366D01*
X110158244Y-90364366D01*
X110156488Y-90355538D01*
X110157997Y-90346666D01*
X110150748Y-90086700D01*
X110146746Y-90069151D01*
X110148768Y-90051263D01*
X110127271Y-89795271D01*
X110122302Y-89778001D01*
X110123322Y-89760060D01*
X110087954Y-89508324D01*
X110082057Y-89491436D01*
X110082079Y-89473546D01*
X110033220Y-89226344D01*
X110026438Y-89209914D01*
X110025479Y-89192165D01*
X109963503Y-88949780D01*
X109955892Y-88933889D01*
X109953981Y-88916377D01*
X109879268Y-88679088D01*
X109870888Y-88663798D01*
X109868061Y-88646592D01*
X109780988Y-88414682D01*
X109771901Y-88400043D01*
X109768202Y-88383211D01*
X109669145Y-88156957D01*
X109659414Y-88143004D01*
X109654891Y-88126608D01*
X109544229Y-87906293D01*
X109533918Y-87893058D01*
X109528622Y-87877141D01*
X109406731Y-87663045D01*
X109395901Y-87650544D01*
X109389880Y-87635138D01*
X109257138Y-87427542D01*
X109245845Y-87415785D01*
X109239151Y-87400921D01*
X109095936Y-87200104D01*
X109084230Y-87189090D01*
X109076908Y-87174784D01*
X108923596Y-86981028D01*
X108911525Y-86970756D01*
X108903619Y-86957019D01*
X108740587Y-86770605D01*
X108728193Y-86761068D01*
X108719743Y-86747907D01*
X108547371Y-86569115D01*
X108534689Y-86560302D01*
X108525731Y-86547719D01*
X108344395Y-86376829D01*
X108331454Y-86368726D01*
X108322018Y-86356720D01*
X108132095Y-86194014D01*
X108118923Y-86186611D01*
X108109040Y-86175182D01*
X107910908Y-86020939D01*
X107897526Y-86014223D01*
X107887218Y-86003365D01*
X107681254Y-85857866D01*
X107667679Y-85851825D01*
X107656965Y-85841534D01*
X107443546Y-85705061D01*
X107429802Y-85699689D01*
X107418701Y-85689963D01*
X107198204Y-85562794D01*
X107184296Y-85558080D01*
X107172821Y-85548915D01*
X106945626Y-85431333D01*
X106931571Y-85427273D01*
X106919736Y-85418670D01*
X106686218Y-85310955D01*
X106672028Y-85307545D01*
X106659846Y-85299507D01*
X106420382Y-85201939D01*
X106406069Y-85199178D01*
X106393553Y-85191709D01*
X106148523Y-85104567D01*
X106134098Y-85102456D01*
X106121255Y-85095559D01*
X105871035Y-85019127D01*
X105856516Y-85017669D01*
X105843361Y-85011354D01*
X105588327Y-84945911D01*
X105573729Y-84945110D01*
X105560278Y-84939388D01*
X105300810Y-84885214D01*
X105286153Y-84885075D01*
X105272416Y-84879956D01*
X105008889Y-84837333D01*
X104994194Y-84837862D01*
X104980197Y-84833362D01*
X104712989Y-84802569D01*
X104698281Y-84803772D01*
X104684041Y-84799903D01*
X104413531Y-84781222D01*
X104398841Y-84783104D01*
X104384386Y-84779881D01*
X104110949Y-84773591D01*
X104103632Y-84774872D01*
X104096346Y-84773423D01*
X96488106Y-84773423D01*
X96480820Y-84774872D01*
X96473502Y-84773591D01*
X96200066Y-84779881D01*
X96185611Y-84783104D01*
X96170921Y-84781222D01*
X95900410Y-84799903D01*
X95886170Y-84803772D01*
X95871461Y-84802569D01*
X95604254Y-84833362D01*
X95590257Y-84837862D01*
X95575562Y-84837333D01*
X95312036Y-84879956D01*
X95298299Y-84885075D01*
X95283642Y-84885214D01*
X95024173Y-84939388D01*
X95010722Y-84945110D01*
X94996125Y-84945911D01*
X94741090Y-85011354D01*
X94727935Y-85017669D01*
X94713416Y-85019127D01*
X94463196Y-85095559D01*
X94450353Y-85102456D01*
X94435929Y-85104567D01*
X94190898Y-85191708D01*
X94178381Y-85199178D01*
X94164067Y-85201939D01*
X93924605Y-85299507D01*
X93912423Y-85307545D01*
X93898234Y-85310955D01*
X93664715Y-85418670D01*
X93652880Y-85427273D01*
X93638825Y-85431333D01*
X93411630Y-85548915D01*
X93400156Y-85558079D01*
X93386245Y-85562794D01*
X93165749Y-85689963D01*
X93154647Y-85699690D01*
X93140905Y-85705061D01*
X92927486Y-85841534D01*
X92916772Y-85851825D01*
X92903197Y-85857866D01*
X92697233Y-86003365D01*
X92686925Y-86014223D01*
X92673543Y-86020939D01*
X92475411Y-86175182D01*
X92465528Y-86186611D01*
X92452356Y-86194014D01*
X92262433Y-86356720D01*
X92252997Y-86368726D01*
X92240056Y-86376829D01*
X92058720Y-86547719D01*
X92049762Y-86560302D01*
X92037080Y-86569115D01*
X91864708Y-86747907D01*
X91856259Y-86761066D01*
X91843864Y-86770604D01*
X91680833Y-86957019D01*
X91672928Y-86970754D01*
X91660855Y-86981028D01*
X91507543Y-87174784D01*
X91500220Y-87189092D01*
X91488516Y-87200104D01*
X91345300Y-87400920D01*
X91338604Y-87415787D01*
X91327313Y-87427543D01*
X91194571Y-87635138D01*
X91188551Y-87650542D01*
X91177720Y-87663044D01*
X91055829Y-87877141D01*
X91050533Y-87893058D01*
X91040222Y-87906293D01*
X90929559Y-88126608D01*
X90925036Y-88143007D01*
X90915305Y-88156959D01*
X90816249Y-88383213D01*
X90812551Y-88400042D01*
X90803465Y-88414679D01*
X90716391Y-88646590D01*
X90713564Y-88663797D01*
X90705183Y-88679088D01*
X90630470Y-88916377D01*
X90628559Y-88933892D01*
X90620948Y-88949782D01*
X90558973Y-89192167D01*
X90558014Y-89209915D01*
X90551233Y-89226342D01*
X90502373Y-89473544D01*
X90502395Y-89491433D01*
X90496496Y-89508327D01*
X90461130Y-89760063D01*
X90462149Y-89778001D01*
X90457181Y-89795271D01*
X90435684Y-90051263D01*
X90437706Y-90069150D01*
X90433704Y-90086698D01*
X90426454Y-90346664D01*
X90427963Y-90355537D01*
X90426207Y-90364366D01*
X81385672Y-90364366D01*
X81320839Y-90299533D01*
X81087450Y-90202860D01*
X80446890Y-90202860D01*
X80288140Y-90361610D01*
X80034140Y-90361610D01*
X79875390Y-90202860D01*
X79234830Y-90202860D01*
X79001441Y-90299533D01*
X78822813Y-90478162D01*
X78726140Y-90711551D01*
X71359870Y-90711551D01*
X71359870Y-90199310D01*
X71315592Y-89963993D01*
X71176520Y-89747869D01*
X70964320Y-89602879D01*
X70712430Y-89551870D01*
X69084797Y-89551870D01*
X58357352Y-83359382D01*
X58260358Y-83191383D01*
X59010618Y-82441123D01*
X59203329Y-82152711D01*
X59271000Y-81812505D01*
X59271000Y-78587440D01*
X59652000Y-78587440D01*
X59887317Y-78543162D01*
X60103441Y-78404090D01*
X60248431Y-78191890D01*
X60299440Y-77940000D01*
X60299440Y-72860000D01*
X79324560Y-72860000D01*
X79324560Y-77940000D01*
X79368838Y-78175317D01*
X79507910Y-78391441D01*
X79720110Y-78536431D01*
X79972000Y-78587440D01*
X80353000Y-78587440D01*
X80353000Y-81812505D01*
X80420671Y-82152711D01*
X80525253Y-82309229D01*
X80613382Y-82441123D01*
X81363642Y-83191383D01*
X81179844Y-83509730D01*
X81100531Y-83735659D01*
X81112909Y-83992364D01*
X81224184Y-84224029D01*
X81416823Y-84394149D01*
X82800437Y-85192979D01*
X83026366Y-85272292D01*
X83283071Y-85259914D01*
X83514736Y-85148639D01*
X83593544Y-85059399D01*
X83559801Y-85155519D01*
X83569344Y-85353420D01*
X83480627Y-85442137D01*
X83266788Y-85530493D01*
X82991460Y-85805341D01*
X82842270Y-86164630D01*
X82841931Y-86553663D01*
X82990493Y-86913212D01*
X83265341Y-87188540D01*
X83624630Y-87337730D01*
X84013663Y-87338069D01*
X84373212Y-87189507D01*
X84648540Y-86914659D01*
X84737986Y-86699250D01*
X84983732Y-86453504D01*
X85259707Y-86612839D01*
X85485636Y-86692152D01*
X85742341Y-86679774D01*
X85974006Y-86568499D01*
X86144126Y-86375860D01*
X87044556Y-84816270D01*
X87123869Y-84590341D01*
X87111491Y-84333636D01*
X87000216Y-84101971D01*
X86807577Y-83931851D01*
X85423963Y-83133021D01*
X85198034Y-83053708D01*
X84941329Y-83066086D01*
X84709664Y-83177361D01*
X84630856Y-83266601D01*
X84664599Y-83170481D01*
X84653457Y-82939414D01*
X85208324Y-82384547D01*
X85351212Y-82325507D01*
X85626540Y-82050659D01*
X85775730Y-81691370D01*
X85776069Y-81302337D01*
X85627507Y-80942788D01*
X85352659Y-80667460D01*
X84993370Y-80518270D01*
X84604337Y-80517931D01*
X84244788Y-80666493D01*
X83969460Y-80941341D01*
X83850450Y-81227949D01*
X83239269Y-81839130D01*
X83222771Y-81828106D01*
X83132779Y-81810206D01*
X82964693Y-81713161D01*
X82738764Y-81633848D01*
X82482059Y-81646226D01*
X82381337Y-81694606D01*
X82131000Y-81444269D01*
X82131000Y-78587440D01*
X82512000Y-78587440D01*
X82747317Y-78543162D01*
X82963441Y-78404090D01*
X83108431Y-78191890D01*
X83159440Y-77940000D01*
X83159440Y-72860000D01*
X83115162Y-72624683D01*
X82976090Y-72408559D01*
X82763890Y-72263569D01*
X82512000Y-72212560D01*
X82131000Y-72212560D01*
X82131000Y-70371731D01*
X82380813Y-70121918D01*
X82464780Y-70165144D01*
X82721045Y-70184609D01*
X82964693Y-70102839D01*
X84348307Y-69304009D01*
X84529958Y-69148005D01*
X84647591Y-68919503D01*
X84667056Y-68663238D01*
X84629176Y-68550367D01*
X84695548Y-68627651D01*
X84924050Y-68745284D01*
X85180315Y-68764749D01*
X85423963Y-68682979D01*
X86807577Y-67884149D01*
X86989228Y-67728145D01*
X87106861Y-67499643D01*
X87126326Y-67243378D01*
X87056090Y-67034097D01*
X87394643Y-66852950D01*
X87531663Y-66853069D01*
X87891212Y-66704507D01*
X88166540Y-66429659D01*
X88315730Y-66070370D01*
X88316069Y-65681337D01*
X88167507Y-65321788D01*
X87892659Y-65046460D01*
X87533370Y-64897270D01*
X87144337Y-64896931D01*
X86784788Y-65045493D01*
X86531651Y-65298188D01*
X86172972Y-65490103D01*
X86144126Y-65440140D01*
X85988122Y-65258489D01*
X85759620Y-65140856D01*
X85503355Y-65121391D01*
X85259707Y-65203161D01*
X83876093Y-66001991D01*
X83694442Y-66157995D01*
X83576809Y-66386497D01*
X83557344Y-66642762D01*
X83595224Y-66755633D01*
X83528852Y-66678349D01*
X83300350Y-66560716D01*
X83044085Y-66541251D01*
X82800437Y-66623021D01*
X81416823Y-67421851D01*
X81235172Y-67577855D01*
X81117539Y-67806357D01*
X81098074Y-68062622D01*
X81179844Y-68306270D01*
X81363642Y-68624617D01*
X80613382Y-69374877D01*
X80420671Y-69663289D01*
X80353000Y-70003495D01*
X80353000Y-72212560D01*
X79972000Y-72212560D01*
X79736683Y-72256838D01*
X79520559Y-72395910D01*
X79375569Y-72608110D01*
X79324560Y-72860000D01*
X60299440Y-72860000D01*
X60255162Y-72624683D01*
X60116090Y-72408559D01*
X59903890Y-72263569D01*
X59652000Y-72212560D01*
X59271000Y-72212560D01*
X59271000Y-70003495D01*
X59203329Y-69663289D01*
X59010618Y-69374877D01*
X58260358Y-68624617D01*
X58357352Y-68456618D01*
X69084797Y-62264130D01*
X70712430Y-62264130D01*
X70947747Y-62219852D01*
X71163871Y-62080780D01*
X71308861Y-61868580D01*
X71359870Y-61616690D01*
X71359870Y-60019030D01*
X71315592Y-59783713D01*
X71176520Y-59567589D01*
X70964320Y-59422599D01*
X70847634Y-59398970D01*
X70947747Y-59380132D01*
X71163871Y-59241060D01*
X71308861Y-59028860D01*
X71359870Y-58776970D01*
X71359870Y-57179310D01*
X71315592Y-56943993D01*
X71176520Y-56727869D01*
X70964320Y-56582879D01*
X70712430Y-56531870D01*
X70701000Y-56531870D01*
X70701000Y-56505055D01*
X70789730Y-56291370D01*
X70790069Y-55902337D01*
X70641507Y-55542788D01*
X70366659Y-55267460D01*
X70007370Y-55118270D01*
X69618337Y-55117931D01*
X69258788Y-55266493D01*
X68983460Y-55541341D01*
X68834270Y-55900630D01*
X68833931Y-56289663D01*
X68923000Y-56505227D01*
X68923000Y-56531870D01*
X68911570Y-56531870D01*
X68676253Y-56576148D01*
X68460129Y-56715220D01*
X68315139Y-56927420D01*
X68264130Y-57179310D01*
X68264130Y-58776970D01*
X68308408Y-59012287D01*
X68447480Y-59228411D01*
X68659680Y-59373401D01*
X68776366Y-59397030D01*
X68676253Y-59415868D01*
X68460129Y-59554940D01*
X68315139Y-59767140D01*
X68264130Y-60019030D01*
X68264130Y-60684891D01*
X57400394Y-66956054D01*
X56823563Y-66623021D01*
X56597634Y-66543708D01*
X56340929Y-66556086D01*
X56109264Y-66667361D01*
X56030456Y-66756601D01*
X56064199Y-66660481D01*
X56051821Y-66403776D01*
X55940546Y-66172111D01*
X55747907Y-66001991D01*
X54364293Y-65203161D01*
X54138364Y-65123848D01*
X53881659Y-65136226D01*
X53649994Y-65247501D01*
X53479874Y-65440140D01*
X53453844Y-65485225D01*
X53349750Y-65428996D01*
X53094659Y-65173460D01*
X52735370Y-65024270D01*
X52346337Y-65023931D01*
X51986788Y-65172493D01*
X51711460Y-65447341D01*
X51562270Y-65806630D01*
X51561931Y-66195663D01*
X50762000Y-66195663D01*
X50762000Y-51078506D01*
X50765478Y-51061021D01*
X50883856Y-50883855D01*
X51061019Y-50765479D01*
X51078509Y-50762000D01*
X137821494Y-50762000D01*
X137838979Y-50765478D01*
M02*
