<?xml version="1.0" encoding="UTF-8" standalone="no"?>
<!-- Created with Inkscape (http://www.inkscape.org/) -->

<svg
   xmlns:dc="http://purl.org/dc/elements/1.1/"
   xmlns:cc="http://creativecommons.org/ns#"
   xmlns:rdf="http://www.w3.org/1999/02/22-rdf-syntax-ns#"
   xmlns:svg="http://www.w3.org/2000/svg"
   xmlns="http://www.w3.org/2000/svg"
   xmlns:sodipodi="http://sodipodi.sourceforge.net/DTD/sodipodi-0.dtd"
   xmlns:inkscape="http://www.inkscape.org/namespaces/inkscape"
   width="3.5in"
   height="2in"
   viewBox="0 0 315.00001 180"
   id="svg2"
   version="1.1"
   inkscape:version="0.91 r13725"
   sodipodi:docname="BusinessCard_export.svg">
  <defs
     id="defs4" />
  <sodipodi:namedview
     id="base"
     pagecolor="#000000"
     bordercolor="#ffffff"
     borderopacity="1"
     inkscape:pageopacity="0"
     inkscape:pageshadow="2"
     inkscape:zoom="2.634649"
     inkscape:cx="132.73661"
     inkscape:cy="86.706387"
     inkscape:document-units="in"
     inkscape:current-layer="layer1"
     showgrid="false"
     units="in"
     inkscape:window-width="1280"
     inkscape:window-height="700"
     inkscape:window-x="0"
     inkscape:window-y="1"
     inkscape:window-maximized="1"
     inkscape:snap-page="true" />
  <metadata
     id="metadata7">
    <rdf:RDF>
      <cc:Work
         rdf:about="">
        <dc:format>image/svg+xml</dc:format>
        <dc:type
           rdf:resource="http://purl.org/dc/dcmitype/StillImage" />
        <dc:title />
      </cc:Work>
    </rdf:RDF>
  </metadata>
  <g
     inkscape:label="SilkS"
     inkscape:groupmode="layer"
     id="layer1"
     transform="translate(0,-872.36214)">
    <g
       transform="translate(-100.59401,861.83379)"
       style="font-style:normal;font-variant:normal;font-weight:bold;font-stretch:normal;font-size:17.5px;line-height:125%;font-family:Karla;-inkscape-font-specification:'Karla, Bold';text-align:center;letter-spacing:0px;word-spacing:0px;writing-mode:lr-tb;text-anchor:middle;fill:#ffffff;fill-opacity:1;stroke:none;stroke-width:1px;stroke-linecap:butt;stroke-linejoin:miter;stroke-opacity:1"
       id="flowRoot4216">
      <path
         d="m 264.52846,150.58615 q 1.1375,0 2.0825,0.385 0.945,0.3675 1.6275,1.1025 1.435,1.54 1.435,4.41 0,2.8875 -1.435,4.4625 -1.365,1.47 -3.7275,1.47 -2.345,0 -3.71,-1.505 -1.435,-1.5575 -1.435,-4.4275 0,-2.905 1.435,-4.445 1.3475,-1.4525 3.7275,-1.4525 z m 3.01,5.9325 q 0,-1.96 -0.8225,-3.01 -0.805,-1.0675 -2.1875,-1.0675 -1.3825,0 -2.205,1.0675 -0.8225,1.05 -0.8225,3.01 0,1.9425 0.8225,2.9925 0.8225,1.0325 2.205,1.0325 1.3825,0 2.1875,-1.0325 0.8225,-1.05 0.8225,-2.9925 z"
         style=""
         id="path4286" />
      <path
         d="m 271.17217,153.66615 1.26,0 0,-0.9975 q 0,-1.3125 0.77,-2.0125 0.7,-0.63 1.82,-0.63 0.7175,0 1.7675,0.21 l -0.4025,1.5925 q -0.49,-0.175 -0.8925,-0.175 -0.385,0 -0.6825,0.2275 -0.2975,0.21 -0.2975,0.805 l 0,0.98 1.5575,0 0,1.3825 -1.5575,0 0,7.1225 -2.0825,0 0,-7.1225 -1.26,0 0,-1.3825 z"
         style=""
         id="path4288" />
      <path
         d="m 277.56377,153.66615 1.26,0 0,-0.9975 q 0,-1.3125 0.77,-2.0125 0.7,-0.63 1.82,-0.63 0.7175,0 1.7675,0.21 l -0.4025,1.5925 q -0.49,-0.175 -0.8925,-0.175 -0.385,0 -0.6825,0.2275 -0.2975,0.21 -0.2975,0.805 l 0,0.98 1.5575,0 0,1.3825 -1.5575,0 0,7.1225 -2.0825,0 0,-7.1225 -1.26,0 0,-1.3825 z"
         style=""
         id="path4290" />
    </g>
    <g
       transform="translate(-10.561307,861.83379)"
       style="font-style:normal;font-variant:normal;font-weight:bold;font-stretch:normal;font-size:17.5px;line-height:125%;font-family:Karla;-inkscape-font-specification:'Karla, Bold';text-align:center;letter-spacing:0px;word-spacing:0px;writing-mode:lr-tb;text-anchor:middle;fill:#ffffff;fill-opacity:1;stroke:none;stroke-width:1px;stroke-linecap:butt;stroke-linejoin:miter;stroke-opacity:1"
       id="flowRoot7733">
      <path
         d="m 265.4684,150.58615 q 1.1375,0 2.0825,0.385 0.945,0.3675 1.6275,1.1025 1.435,1.54 1.435,4.41 0,2.8875 -1.435,4.4625 -1.365,1.47 -3.7275,1.47 -2.345,0 -3.71,-1.505 -1.435,-1.5575 -1.435,-4.4275 0,-2.905 1.435,-4.445 1.3475,-1.4525 3.7275,-1.4525 z m 3.01,5.9325 q 0,-1.96 -0.8225,-3.01 -0.805,-1.0675 -2.1875,-1.0675 -1.3825,0 -2.205,1.0675 -0.8225,1.05 -0.8225,3.01 0,1.9425 0.8225,2.9925 0.8225,1.0325 2.205,1.0325 1.3825,0 2.1875,-1.0325 0.8225,-1.05 0.8225,-2.9925 z"
         style=""
         id="path4281" />
      <path
         d="m 275.06961,155.13615 q 0.84,-1.6975 2.695,-1.6975 1.575,0 2.3625,1.0325 0.805,1.0325 0.805,2.73 l 0,4.97 -2.065,0 0,-4.97 q 0,-0.945 -0.455,-1.4175 -0.455,-0.49 -1.2775,-0.49 -0.8225,0 -1.4175,0.735 -0.5775,0.735 -0.6125,2.205 l 0,3.9375 -2.065,0 0,-8.505 1.8025,0 0.2275,1.47 z"
         style=""
         id="path4283" />
    </g>
    <g
       transform="translate(-34.056475,858.79386)"
       style="font-style:normal;font-variant:normal;font-weight:bold;font-stretch:normal;font-size:35px;line-height:125%;font-family:Karla;-inkscape-font-specification:'Karla, Bold';text-align:center;letter-spacing:0px;word-spacing:0px;writing-mode:lr-tb;text-anchor:middle;fill:#ffffff;fill-opacity:1;stroke:none;stroke-width:1px;stroke-linecap:butt;stroke-linejoin:miter;stroke-opacity:1"
       id="flowRoot4192">
      <path
         d="m 186.38922,48.409878 q -0.56,-2.975 -4.2,-2.975 -1.785,0 -2.8,0.735 -0.98,0.7 -0.98,1.715 0,1.015 0.63,1.61 0.665,0.56 2.03,1.05 l 4.935,1.925 q 2.52,0.98 3.885,2.485 1.365,1.47 1.365,3.71 0,3.08 -2.31,4.9 -2.31,1.785 -6.58,1.785 -3.78,0 -6.125,-1.855 -2.625,-2.03 -2.765,-5.74 l 4.095,0 q 0,2.8 2.905,3.535 0.875,0.245 2.31,0.245 1.435,0 2.66,-0.7 1.225,-0.735 1.225,-1.925 0,-1.225 -0.665,-1.855 -0.665,-0.665 -2.17,-1.225 l -4.515,-1.785 q -2.625,-1.015 -4.025,-2.38 -1.4,-1.365 -1.4,-3.78 0,-2.835 2.205,-4.48 2.24,-1.715 6.055,-1.715 3.85,0 5.915,1.785 2.1,1.75 2.415,4.935 l -4.095,0 z"
         style=""
         id="path4266" />
      <path
         d="m 208.04437,61.779878 q -1.61,3.395 -5.18,3.395 -4.515,0 -5.95,-3.535 -0.525,-1.225 -0.525,-2.975 l 0,-10.85 4.13,0 0,10.43 q 0,1.68 0.805,2.52 0.805,0.805 1.96,0.805 1.19,0 1.995,-0.315 0.805,-0.35 1.4,-1.015 1.295,-1.505 1.365,-4.025 l 0,-8.4 4.13,0 0,17.045 -4.13,0 0,-3.08 z"
         style=""
         id="path4268" />
      <path
         d="m 222.67437,50.789878 q 1.68,-3.395 5.39,-3.395 3.15,0 4.725,2.065 1.61,2.065 1.61,5.46 l 0,9.94 -4.13,0 0,-9.94 q 0,-1.89 -0.91,-2.835 -0.91,-0.98 -2.555,-0.98 -1.645,0 -2.83499,1.47 -1.15501,1.47 -1.22501,4.41 l 0,7.875 -4.13,0 0,-17.01 3.60501,0 0.45499,2.94 z"
         style=""
         id="path4270" />
      <path
         d="m 244.48102,50.789878 q 1.68,-3.395 5.39,-3.395 3.15,0 4.725,2.065 1.61,2.065 1.61,5.46 l 0,9.94 -4.13,0 0,-9.94 q 0,-1.89 -0.91,-2.835 -0.91,-0.98 -2.555,-0.98 -1.645,0 -2.835,1.47 -1.155,1.47 -1.225,4.41 l 0,7.875 -4.13,0 0,-17.01 3.605,0 0.455,2.94 z"
         style=""
         id="path4272" />
      <path
         d="m 264.32766,47.849878 4.095,12.25 3.57,-12.25 4.2,0 -6.51,20.09 q -1.015,3.045 -2.485,4.375 -1.435,1.33 -3.675,1.33 -2.275,0 -4.55,-1.12 l 0,-3.64 q 1.82,1.155 3.675,1.155 1.225,0 1.995,-0.98 0.805,-0.98 1.295,-2.555 l 0.525,-1.645 -6.825,-17.01 4.69,0 z"
         style=""
         id="path4274" />
      <path
         d="m 292.88109,42.144878 0,9.485 9.905,0 0,-9.485 4.13,0 0,22.715 -4.13,0 0,-9.625 -9.905,0 0,9.625 -4.13,0 0,-22.715 4.13,0 z"
         style=""
         id="path4276" />
      <path
         d="m 325.36219,49.879878 q 0.875,1.12 1.295,2.59 0.455,1.47 0.455,2.695 0,1.225 -0.14,2.205 l -10.99,0 q 0.07,2.065 1.015,3.36 0.945,1.295 2.87,1.295 2.555,0 3.045,-2.24 l 4.165,0 q -0.42,2.555 -2.345,4.025 -1.995,1.54 -4.865,1.54 -3.36,0 -5.635,-2.45 -2.345,-2.555 -2.345,-6.545 0,-4.095 2.345,-6.58 2.24,-2.38 5.635,-2.38 3.535,0 5.495,2.485 z m -5.46,0.805 q -1.75,0 -2.73,1.155 -0.98,1.12 -1.155,2.905 l 7.245,0 q 0,-2.765 -1.75,-3.71 -0.665,-0.35 -1.61,-0.35 z"
         style=""
         id="path4278" />
    </g>
    <g
       transform="translate(3.98479,866.41048)"
       style="font-style:normal;font-variant:normal;font-weight:bold;font-stretch:normal;font-size:13.75px;line-height:125%;font-family:Karla;-inkscape-font-specification:'Karla, Bold';text-align:center;letter-spacing:0px;word-spacing:0px;writing-mode:lr-tb;text-anchor:middle;fill:#ffffff;fill-opacity:1;stroke:none;stroke-width:1px;stroke-linecap:butt;stroke-linejoin:miter;stroke-opacity:1"
       id="flowRoot4200">
      <path
         inkscape:connector-curvature="0"
         d="m 131.05771,77.751658 2.225,4.825 2.225,-4.825 2.0375,0 0,8.1125 -1.4875,0 0,-6.1625 -2.3,5.275 -0.9625,0 -2.375,-5.45 0,6.3375 -1.475,0 0,-8.1125 2.1125,0 z"
         style="font-style:normal;font-variant:normal;font-weight:bold;font-stretch:normal;font-size:12.5px;line-height:125%;font-family:Karla;-inkscape-font-specification:'Karla, Bold';text-align:center;writing-mode:lr-tb;text-anchor:middle;fill:#ffffff;fill-opacity:1;stroke:none;stroke-opacity:1"
         id="path4165" />
      <path
         inkscape:connector-curvature="0"
         d="m 141.88271,82.314158 q 0.725,0 1.675,0.2375 l 0,-0.6 q 0,-0.6375 -0.2625,-0.9375 -0.25,-0.3125 -0.8375,-0.3125 -0.575,0 -0.8875,0.2375 -0.3125,0.225 -0.3125,0.65 l -1.6125,0 q 0,-1.0375 0.725,-1.5 0.7375,-0.4625 2.05,-0.4625 1.875,0 2.425,1.3125 0.1875,0.45 0.1875,1.0625 l 0,3.8625 -1.2875,0 -0.1125,-0.8125 q -0.5875,0.9875 -1.8,0.9875 -1.175,0 -1.825,-0.575 -0.6,-0.55 -0.6,-1.3875 0,-0.85 0.6625,-1.3 0.6625,-0.4625 1.8125,-0.4625 z m 1.675,1.175 q -0.7375,-0.2 -1.375,-0.2 -1.2,0 -1.2,0.8 0,0.3375 0.275,0.5875 0.275,0.2375 0.875,0.2375 0.6125,0 1,-0.4 0.4,-0.4125 0.425,-1.025 z"
         style="font-style:normal;font-variant:normal;font-weight:bold;font-stretch:normal;font-size:12.5px;line-height:125%;font-family:Karla;-inkscape-font-specification:'Karla, Bold';text-align:center;writing-mode:lr-tb;text-anchor:middle;fill:#ffffff;fill-opacity:1;stroke:none;stroke-opacity:1"
         id="path4167" />
      <path
         inkscape:connector-curvature="0"
         d="m 149.33252,82.901658 -0.675,0.5625 0,2.4 -1.475,0 0,-8.575 1.475,0 0,4.6375 2.4,-2.1375 2,0 -2.6875,2.25 2.8375,3.825 -1.8,0 -2.075,-2.9625 z"
         style="font-style:normal;font-variant:normal;font-weight:bold;font-stretch:normal;font-size:12.5px;line-height:125%;font-family:Karla;-inkscape-font-specification:'Karla, Bold';text-align:center;writing-mode:lr-tb;text-anchor:middle;fill:#ffffff;fill-opacity:1;stroke:none;stroke-opacity:1"
         id="path4169" />
      <path
         inkscape:connector-curvature="0"
         d="m 158.62217,80.514158 q 0.3125,0.4 0.4625,0.925 0.1625,0.525 0.1625,0.9625 0,0.4375 -0.05,0.7875 l -3.925,0 q 0.025,0.7375 0.3625,1.2 0.3375,0.4625 1.025,0.4625 0.9125,0 1.0875,-0.8 l 1.4875,0 q -0.15,0.9125 -0.8375,1.4375 -0.7125,0.55 -1.7375,0.55 -1.2,0 -2.0125,-0.875 -0.8375,-0.9125 -0.8375,-2.3375 0,-1.4625 0.8375,-2.35 0.8,-0.85 2.0125,-0.85 1.2625,0 1.9625,0.8875 z m -1.95,0.2875 q -0.625,0 -0.975,0.4125 -0.35,0.4 -0.4125,1.0375 l 2.5875,0 q 0,-0.9875 -0.625,-1.325 -0.2375,-0.125 -0.575,-0.125 z"
         style="font-style:normal;font-variant:normal;font-weight:bold;font-stretch:normal;font-size:12.5px;line-height:125%;font-family:Karla;-inkscape-font-specification:'Karla, Bold';text-align:center;writing-mode:lr-tb;text-anchor:middle;fill:#ffffff;fill-opacity:1;stroke:none;stroke-opacity:1"
         id="path4171" />
      <path
         inkscape:connector-curvature="0"
         d="m 162.50029,80.989158 q 0.55,-1.3125 1.65,-1.3125 0.2125,0 0.5375,0.0875 l -0.025,1.475 q -0.35,-0.075 -0.6875,-0.075 -1.475,0 -1.475,2.0375 l 0,2.6625 -1.475,0 0,-6.0875 1.475,0 0,1.2125 z"
         style="font-style:normal;font-variant:normal;font-weight:bold;font-stretch:normal;font-size:12.5px;line-height:125%;font-family:Karla;-inkscape-font-specification:'Karla, Bold';text-align:center;writing-mode:lr-tb;text-anchor:middle;fill:#ffffff;fill-opacity:1;stroke:none;stroke-opacity:1"
         id="path4173" />
      <path
         inkscape:connector-curvature="0"
         d="m 177.78682,81.564158 q -0.55,1.5625 -1.375,2.5875 l 0.2125,0.1875 q 0.225,0.2 0.425,0.3 0.2,0.1 0.4875,0.1 0.3,0 0.5125,-0.2125 0.2125,-0.225 0.2375,-0.7125 l 1.3375,0 q -0.025,1.025 -0.5125,1.625 -0.475,0.6 -1.425,0.6 -0.6,0 -1.1125,-0.2375 -0.5,-0.2375 -1.0625,-0.75 -1.25,0.9875 -2.775,0.9875 -1.4,0 -2.375,-0.7125 -0.975,-0.725 -0.975,-1.775 0,-1.625 2.2875,-1.9875 l -0.2,-0.1875 q -0.9,-0.8125 -0.9,-1.7875 0,-0.8625 0.7125,-1.4 0.7625,-0.575 2.025,-0.575 1.2125,0 1.975,0.575 0.7,0.5375 0.7,1.35 0,0.8125 -0.525,1.375 -0.5125,0.55 -1.575,0.95 l 1.5875,1.4375 q 0.7625,-0.9125 1.3125,-2.2875 l 1,0.55 z m -5.275,0.75 q -1.5,0.2125 -1.5,1.15 0,0.525 0.45,0.8875 0.4625,0.35 1.2875,0.35 0.95,0 1.7875,-0.55 l -2.025,-1.8375 z m 0.5625,-1.1875 q 0.675,-0.2875 0.975,-0.6125 0.3125,-0.325 0.3125,-0.725 0,-0.4125 -0.2875,-0.65 -0.2875,-0.25 -0.8,-0.25 -0.5125,0 -0.8,0.275 -0.275,0.2625 -0.275,0.6375 0,0.55 0.5875,1.0625 l 0.2875,0.2625 z"
         style="font-style:normal;font-variant:normal;font-weight:bold;font-stretch:normal;font-size:12.5px;line-height:125%;font-family:Karla;-inkscape-font-specification:'Karla, Bold';text-align:center;writing-mode:lr-tb;text-anchor:middle;fill:#ffffff;fill-opacity:1;stroke:none;stroke-opacity:1"
         id="path4175" />
      <path
         inkscape:connector-curvature="0"
         d="m 184.62119,77.751658 5.225,0 0,1.275 -3.75,0 0,2.1375 3.5125,0 0,1.275 -3.5125,0 0,2.1375 3.75,0 0,1.2875 -5.225,0 0,-8.1125 z"
         style="font-style:normal;font-variant:normal;font-weight:bold;font-stretch:normal;font-size:12.5px;line-height:125%;font-family:Karla;-inkscape-font-specification:'Karla, Bold';text-align:center;writing-mode:lr-tb;text-anchor:middle;fill:#ffffff;fill-opacity:1;stroke:none;stroke-opacity:1"
         id="path4177" />
      <path
         inkscape:connector-curvature="0"
         d="m 191.95791,77.289158 1.475,0 0,8.575 -1.475,0 0,-8.575 z"
         style="font-style:normal;font-variant:normal;font-weight:bold;font-stretch:normal;font-size:12.5px;line-height:125%;font-family:Karla;-inkscape-font-specification:'Karla, Bold';text-align:center;writing-mode:lr-tb;text-anchor:middle;fill:#ffffff;fill-opacity:1;stroke:none;stroke-opacity:1"
         id="path4179" />
      <path
         inkscape:connector-curvature="0"
         d="m 200.004,80.514158 q 0.3125,0.4 0.4625,0.925 0.1625,0.525 0.1625,0.9625 0,0.4375 -0.05,0.7875 l -3.925,0 q 0.025,0.7375 0.3625,1.2 0.3375,0.4625 1.025,0.4625 0.9125,0 1.0875,-0.8 l 1.4875,0 q -0.15,0.9125 -0.8375,1.4375 -0.7125,0.55 -1.7375,0.55 -1.2,0 -2.0125,-0.875 -0.8375,-0.9125 -0.8375,-2.3375 0,-1.4625 0.8375,-2.35 0.8,-0.85 2.0125,-0.85 1.2625,0 1.9625,0.8875 z m -1.95,0.2875 q -0.625,0 -0.975,0.4125 -0.35,0.4 -0.4125,1.0375 l 2.5875,0 q 0,-0.9875 -0.625,-1.325 -0.2375,-0.125 -0.575,-0.125 z"
         style="font-style:normal;font-variant:normal;font-weight:bold;font-stretch:normal;font-size:12.5px;line-height:125%;font-family:Karla;-inkscape-font-specification:'Karla, Bold';text-align:center;writing-mode:lr-tb;text-anchor:middle;fill:#ffffff;fill-opacity:1;stroke:none;stroke-opacity:1"
         id="path4181" />
      <path
         inkscape:connector-curvature="0"
         d="m 204.71963,79.626658 q 0.575,0 1.025,0.2 0.4625,0.1875 0.775,0.5 0.625,0.6 0.7375,1.5125 l -1.4875,0.0375 q -0.1,-0.4 -0.375,-0.6625 -0.2625,-0.2625 -0.6125,-0.2625 -0.35,0 -0.6,0.1125 -0.25,0.1 -0.4375,0.325 -0.425,0.525 -0.425,1.45 0,0.925 0.4,1.4 0.4,0.4625 0.9625,0.4625 0.575,0 0.825,-0.2625 0.2625,-0.275 0.2625,-0.7375 l 1.4875,0 q 0,1 -0.6625,1.6625 -0.675,0.675 -1.8875,0.675 -1.2,0 -2.0125,-0.875 -0.8625,-0.9375 -0.8625,-2.3375 0,-1.475 0.8625,-2.3625 0.8125,-0.8375 2.025,-0.8375 z"
         style="font-style:normal;font-variant:normal;font-weight:bold;font-stretch:normal;font-size:12.5px;line-height:125%;font-family:Karla;-inkscape-font-specification:'Karla, Bold';text-align:center;writing-mode:lr-tb;text-anchor:middle;fill:#ffffff;fill-opacity:1;stroke:none;stroke-opacity:1"
         id="path4183" />
      <path
         inkscape:connector-curvature="0"
         d="m 212.44834,85.714158 q -0.825,0.325 -1.3,0.325 -0.475,0 -0.8375,-0.1125 -0.35,-0.1125 -0.625,-0.3375 -0.575,-0.5125 -0.575,-1.4125 l 0,-3.4 -0.85,0 0,-0.9875 0.85,0 0,-1.6 1.475,0 0,1.6 1.65,0 0,0.9875 -1.65,0 0,3.35 q 0,0.75 0.7125,0.75 0.3625,0 0.9375,-0.2 l 0.2125,1.0375 z"
         style="font-style:normal;font-variant:normal;font-weight:bold;font-stretch:normal;font-size:12.5px;line-height:125%;font-family:Karla;-inkscape-font-specification:'Karla, Bold';text-align:center;writing-mode:lr-tb;text-anchor:middle;fill:#ffffff;fill-opacity:1;stroke:none;stroke-opacity:1"
         id="path4185" />
      <path
         inkscape:connector-curvature="0"
         d="m 215.42998,80.989158 q 0.55,-1.3125 1.65,-1.3125 0.2125,0 0.5375,0.0875 l -0.025,1.475 q -0.35,-0.075 -0.6875,-0.075 -1.475,0 -1.475,2.0375 l 0,2.6625 -1.475,0 0,-6.0875 1.475,0 0,1.2125 z"
         style="font-style:normal;font-variant:normal;font-weight:bold;font-stretch:normal;font-size:12.5px;line-height:125%;font-family:Karla;-inkscape-font-specification:'Karla, Bold';text-align:center;writing-mode:lr-tb;text-anchor:middle;fill:#ffffff;fill-opacity:1;stroke:none;stroke-opacity:1"
         id="path4187" />
      <path
         inkscape:connector-curvature="0"
         d="m 219.28018,79.776658 1.475,0 0,6.0875 -1.475,0 0,-6.0875 z m -0.175,-1.95 q 0,-0.4 0.2375,-0.625 0.2375,-0.2375 0.675,-0.2375 0.425,0 0.6625,0.2375 0.25,0.225 0.25,0.625 0,0.4 -0.25,0.6375 -0.2375,0.225 -0.6625,0.225 -0.4375,0 -0.675,-0.225 -0.2375,-0.2375 -0.2375,-0.6375 z"
         style="font-style:normal;font-variant:normal;font-weight:bold;font-stretch:normal;font-size:12.5px;line-height:125%;font-family:Karla;-inkscape-font-specification:'Karla, Bold';text-align:center;writing-mode:lr-tb;text-anchor:middle;fill:#ffffff;fill-opacity:1;stroke:none;stroke-opacity:1"
         id="path4189" />
      <path
         inkscape:connector-curvature="0"
         d="m 225.59365,79.626658 q 0.575,0 1.025,0.2 0.4625,0.1875 0.775,0.5 0.625,0.6 0.7375,1.5125 l -1.4875,0.0375 q -0.1,-0.4 -0.375,-0.6625 -0.2625,-0.2625 -0.6125,-0.2625 -0.35,0 -0.6,0.1125 -0.25,0.1 -0.4375,0.325 -0.425,0.525 -0.425,1.45 0,0.925 0.4,1.4 0.4,0.4625 0.9625,0.4625 0.575,0 0.825,-0.2625 0.2625,-0.275 0.2625,-0.7375 l 1.4875,0 q 0,1 -0.6625,1.6625 -0.675,0.675 -1.8875,0.675 -1.2,0 -2.0125,-0.875 -0.8625,-0.9375 -0.8625,-2.3375 0,-1.475 0.8625,-2.3625 0.8125,-0.8375 2.025,-0.8375 z"
         style="font-style:normal;font-variant:normal;font-weight:bold;font-stretch:normal;font-size:12.5px;line-height:125%;font-family:Karla;-inkscape-font-specification:'Karla, Bold';text-align:center;writing-mode:lr-tb;text-anchor:middle;fill:#ffffff;fill-opacity:1;stroke:none;stroke-opacity:1"
         id="path4191" />
      <path
         inkscape:connector-curvature="0"
         d="m 231.89736,82.314158 q 0.725,0 1.675,0.2375 l 0,-0.6 q 0,-0.6375 -0.2625,-0.9375 -0.25,-0.3125 -0.8375,-0.3125 -0.575,0 -0.8875,0.2375 -0.3125,0.225 -0.3125,0.65 l -1.6125,0 q 0,-1.0375 0.725,-1.5 0.7375,-0.4625 2.05,-0.4625 1.875,0 2.425,1.3125 0.1875,0.45 0.1875,1.0625 l 0,3.8625 -1.2875,0 -0.1125,-0.8125 q -0.5875,0.9875 -1.8,0.9875 -1.175,0 -1.825,-0.575 -0.6,-0.55 -0.6,-1.3875 0,-0.85 0.6625,-1.3 0.6625,-0.4625 1.8125,-0.4625 z m 1.675,1.175 q -0.7375,-0.2 -1.375,-0.2 -1.2,0 -1.2,0.8 0,0.3375 0.275,0.5875 0.275,0.2375 0.875,0.2375 0.6125,0 1,-0.4 0.4,-0.4125 0.425,-1.025 z"
         style="font-style:normal;font-variant:normal;font-weight:bold;font-stretch:normal;font-size:12.5px;line-height:125%;font-family:Karla;-inkscape-font-specification:'Karla, Bold';text-align:center;writing-mode:lr-tb;text-anchor:middle;fill:#ffffff;fill-opacity:1;stroke:none;stroke-opacity:1"
         id="path4193" />
      <path
         inkscape:connector-curvature="0"
         d="m 237.19717,77.289158 1.475,0 0,8.575 -1.475,0 0,-8.575 z"
         style="font-style:normal;font-variant:normal;font-weight:bold;font-stretch:normal;font-size:12.5px;line-height:125%;font-family:Karla;-inkscape-font-specification:'Karla, Bold';text-align:center;writing-mode:lr-tb;text-anchor:middle;fill:#ffffff;fill-opacity:1;stroke:none;stroke-opacity:1"
         id="path4195" />
      <path
         inkscape:connector-curvature="0"
         d="m 244.16709,77.751658 5.225,0 0,1.275 -3.75,0 0,2.1375 3.5125,0 0,1.275 -3.5125,0 0,2.1375 3.75,0 0,1.2875 -5.225,0 0,-8.1125 z"
         style="font-style:normal;font-variant:normal;font-weight:bold;font-stretch:normal;font-size:12.5px;line-height:125%;font-family:Karla;-inkscape-font-specification:'Karla, Bold';text-align:center;writing-mode:lr-tb;text-anchor:middle;fill:#ffffff;fill-opacity:1;stroke:none;stroke-opacity:1"
         id="path4197" />
      <path
         inkscape:connector-curvature="0"
         d="m 252.95381,80.839158 q 0.6,-1.2125 1.925,-1.2125 1.125,0 1.6875,0.7375 0.575,0.7375 0.575,1.95 l 0,3.55 -1.475,0 0,-3.55 q 0,-0.675 -0.325,-1.0125 -0.325,-0.35 -0.9125,-0.35 -0.5875,0 -1.0125,0.525 -0.4125,0.525 -0.4375,1.575 l 0,2.8125 -1.475,0 0,-6.075 1.2875,0 0.1625,1.05 z"
         style="font-style:normal;font-variant:normal;font-weight:bold;font-stretch:normal;font-size:12.5px;line-height:125%;font-family:Karla;-inkscape-font-specification:'Karla, Bold';text-align:center;writing-mode:lr-tb;text-anchor:middle;fill:#ffffff;fill-opacity:1;stroke:none;stroke-opacity:1"
         id="path4199" />
      <path
         inkscape:connector-curvature="0"
         d="m 259.81689,83.376658 q -0.7375,-0.625 -0.7375,-1.5625 0,-0.9875 0.775,-1.6 0.75,-0.5875 1.7125,-0.5875 0.975,0 1.625,0.3625 0.075,-0.7125 0.6125,-1.15 0.525,-0.4375 1.2375,-0.4375 l -0.075,1.4125 q -1.075,0 -1.1125,0.7125 0.4625,0.575 0.4625,1.175 0,0.6 -0.2125,1.0125 -0.2125,0.4 -0.575,0.675 -0.75,0.6 -1.825,0.6 -0.6125,0 -1.1125,-0.1875 -0.5,0.15 -0.5,0.6 0,0.5625 0.95,0.5625 l 2.0375,0 q 2.075,0 2.075,1.45 0,0.4875 -0.25,0.95 -0.2375,0.475 -0.7,0.8375 -1.025,0.8 -2.575,0.8 -1.5,0 -2.4375,-0.6125 -0.875,-0.5875 -0.875,-1.4375 0,-0.5625 0.3375,-0.9 0.35,-0.325 0.9125,-0.4125 -0.7375,-0.45 -0.7375,-1.1125 0,-0.4375 0.275,-0.725 0.275,-0.3 0.7125,-0.425 z m 1.125,2.625 q -1.175,0.05 -1.175,0.8875 0,0.425 0.4875,0.675 0.5,0.2625 1.175,0.2625 0.675,0 1.05,-0.1125 0.3875,-0.1125 0.65,-0.3 0.5625,-0.375 0.5625,-0.9 0,-0.225 -0.1625,-0.375 -0.15,-0.1375 -0.45,-0.1375 l -2.1375,0 z m 1.9125,-4.2 q 0,-0.5125 -0.2875,-0.825 -0.275,-0.325 -0.85,-0.325 -0.575,0 -0.875,0.325 -0.3,0.3125 -0.3,0.825 0,0.5 0.3,0.825 0.3,0.325 0.875,0.325 0.575,0 0.85,-0.325 0.2875,-0.325 0.2875,-0.825 z"
         style="font-style:normal;font-variant:normal;font-weight:bold;font-stretch:normal;font-size:12.5px;line-height:125%;font-family:Karla;-inkscape-font-specification:'Karla, Bold';text-align:center;writing-mode:lr-tb;text-anchor:middle;fill:#ffffff;fill-opacity:1;stroke:none;stroke-opacity:1"
         id="path4201" />
      <path
         inkscape:connector-curvature="0"
         d="m 266.7167,79.776658 1.475,0 0,6.0875 -1.475,0 0,-6.0875 z m -0.175,-1.95 q 0,-0.4 0.2375,-0.625 0.2375,-0.2375 0.675,-0.2375 0.425,0 0.6625,0.2375 0.25,0.225 0.25,0.625 0,0.4 -0.25,0.6375 -0.2375,0.225 -0.6625,0.225 -0.4375,0 -0.675,-0.225 -0.2375,-0.2375 -0.2375,-0.6375 z"
         style="font-style:normal;font-variant:normal;font-weight:bold;font-stretch:normal;font-size:12.5px;line-height:125%;font-family:Karla;-inkscape-font-specification:'Karla, Bold';text-align:center;writing-mode:lr-tb;text-anchor:middle;fill:#ffffff;fill-opacity:1;stroke:none;stroke-opacity:1"
         id="path4203" />
      <path
         inkscape:connector-curvature="0"
         d="m 272.16768,80.839158 q 0.6,-1.2125 1.925,-1.2125 1.125,0 1.6875,0.7375 0.575,0.7375 0.575,1.95 l 0,3.55 -1.475,0 0,-3.55 q 0,-0.675 -0.325,-1.0125 -0.325,-0.35 -0.9125,-0.35 -0.5875,0 -1.0125,0.525 -0.4125,0.525 -0.4375,1.575 l 0,2.8125 -1.475,0 0,-6.075 1.2875,0 0.1625,1.05 z"
         style="font-style:normal;font-variant:normal;font-weight:bold;font-stretch:normal;font-size:12.5px;line-height:125%;font-family:Karla;-inkscape-font-specification:'Karla, Bold';text-align:center;writing-mode:lr-tb;text-anchor:middle;fill:#ffffff;fill-opacity:1;stroke:none;stroke-opacity:1"
         id="path4205" />
      <path
         inkscape:connector-curvature="0"
         d="m 282.74326,80.514158 q 0.3125,0.4 0.4625,0.925 0.1625,0.525 0.1625,0.9625 0,0.4375 -0.05,0.7875 l -3.925,0 q 0.025,0.7375 0.3625,1.2 0.3375,0.4625 1.025,0.4625 0.9125,0 1.0875,-0.8 l 1.4875,0 q -0.15,0.9125 -0.8375,1.4375 -0.7125,0.55 -1.7375,0.55 -1.2,0 -2.0125,-0.875 -0.8375,-0.9125 -0.8375,-2.3375 0,-1.4625 0.8375,-2.35 0.8,-0.85 2.0125,-0.85 1.2625,0 1.9625,0.8875 z m -1.95,0.2875 q -0.625,0 -0.975,0.4125 -0.35,0.4 -0.4125,1.0375 l 2.5875,0 q 0,-0.9875 -0.625,-1.325 -0.2375,-0.125 -0.575,-0.125 z"
         style="font-style:normal;font-variant:normal;font-weight:bold;font-stretch:normal;font-size:12.5px;line-height:125%;font-family:Karla;-inkscape-font-specification:'Karla, Bold';text-align:center;writing-mode:lr-tb;text-anchor:middle;fill:#ffffff;fill-opacity:1;stroke:none;stroke-opacity:1"
         id="path4207" />
      <path
         inkscape:connector-curvature="0"
         d="m 289.38389,80.514158 q 0.3125,0.4 0.4625,0.925 0.1625,0.525 0.1625,0.9625 0,0.4375 -0.05,0.7875 l -3.925,0 q 0.025,0.7375 0.3625,1.2 0.3375,0.4625 1.025,0.4625 0.9125,0 1.0875,-0.8 l 1.4875,0 q -0.15,0.9125 -0.8375,1.4375 -0.7125,0.55 -1.7375,0.55 -1.2,0 -2.0125,-0.875 -0.8375,-0.9125 -0.8375,-2.3375 0,-1.4625 0.8375,-2.35 0.8,-0.85 2.0125,-0.85 1.2625,0 1.9625,0.8875 z m -1.95,0.2875 q -0.625,0 -0.975,0.4125 -0.35,0.4 -0.4125,1.0375 l 2.5875,0 q 0,-0.9875 -0.625,-1.325 -0.2375,-0.125 -0.575,-0.125 z"
         style="font-style:normal;font-variant:normal;font-weight:bold;font-stretch:normal;font-size:12.5px;line-height:125%;font-family:Karla;-inkscape-font-specification:'Karla, Bold';text-align:center;writing-mode:lr-tb;text-anchor:middle;fill:#ffffff;fill-opacity:1;stroke:none;stroke-opacity:1"
         id="path4209" />
      <path
         inkscape:connector-curvature="0"
         d="m 293.26201,80.989158 q 0.55,-1.3125 1.65,-1.3125 0.2125,0 0.5375,0.0875 l -0.025,1.475 q -0.35,-0.075 -0.6875,-0.075 -1.475,0 -1.475,2.0375 l 0,2.6625 -1.475,0 0,-6.0875 1.475,0 0,1.2125 z"
         style="font-style:normal;font-variant:normal;font-weight:bold;font-stretch:normal;font-size:12.5px;line-height:125%;font-family:Karla;-inkscape-font-specification:'Karla, Bold';text-align:center;writing-mode:lr-tb;text-anchor:middle;fill:#ffffff;fill-opacity:1;stroke:none;stroke-opacity:1"
         id="path4211" />
      <path
         inkscape:connector-curvature="0"
         d="m 153.68379,99.639158 q 0.025,0.862502 1.2625,0.862502 0.475,0 0.775,-0.2 0.3125,-0.2125 0.3125,-0.487502 0,-0.275 -0.1875,-0.425 -0.1875,-0.15 -0.5875,-0.275 l -1.325,-0.475 q -1.475,-0.5125 -1.475,-1.675 0,-0.775 0.6875,-1.2375 0.7,-0.475 1.8625,-0.475 1.175,0 1.8,0.5125 0.6375,0.5125 0.6625,1.2875 l -1.3875,0 q -0.025,-0.3 -0.2875,-0.475 -0.2625,-0.175 -0.75,-0.175 -0.4875,0 -0.7625,0.2 -0.2625,0.1875 -0.2625,0.4375 0,0.4375 0.7375,0.65 l 1.4375,0.5375 q 0.7125,0.2375 1.0875,0.6125 0.3875,0.3625 0.3875,0.95 0,0.750002 -0.7125,1.300002 -0.7375,0.575 -1.95,0.575 -1.2125,0 -1.95,-0.525 -0.7375,-0.5375 -0.75,-1.500002 l 1.375,0 z"
         style="font-style:normal;font-variant:normal;font-weight:bold;font-stretch:normal;font-size:12.5px;line-height:125%;font-family:Karla;-inkscape-font-specification:'Karla, Bold';text-align:center;writing-mode:lr-tb;text-anchor:middle;fill:#ffffff;fill-opacity:1;stroke:none;stroke-opacity:1"
         id="path4213" />
      <path
         inkscape:connector-curvature="0"
         d="m 159.45059,92.914158 1.475,0 0,8.575002 -1.475,0 0,-8.575002 z"
         style="font-style:normal;font-variant:normal;font-weight:bold;font-stretch:normal;font-size:12.5px;line-height:125%;font-family:Karla;-inkscape-font-specification:'Karla, Bold';text-align:center;writing-mode:lr-tb;text-anchor:middle;fill:#ffffff;fill-opacity:1;stroke:none;stroke-opacity:1"
         id="path4215" />
      <path
         inkscape:connector-curvature="0"
         d="m 164.73418,96.401658 q 0.625,-1.15 1.825,-1.15 1.2,0 1.7625,0.7375 0.575,0.7375 0.575,1.95 l 0,3.550002 -1.475,0 0,-3.550002 q 0,-0.675 -0.325,-1.0125 -0.325,-0.35 -0.9125,-0.35 -0.5875,0 -1.0125,0.525 -0.4125,0.525 -0.4375,1.575 l 0,2.812502 -1.475,0 0,-8.575002 1.475,0 0,3.4875 z"
         style="font-style:normal;font-variant:normal;font-weight:bold;font-stretch:normal;font-size:12.5px;line-height:125%;font-family:Karla;-inkscape-font-specification:'Karla, Bold';text-align:center;writing-mode:lr-tb;text-anchor:middle;fill:#ffffff;fill-opacity:1;stroke:none;stroke-opacity:1"
         id="path4217" />
      <path
         inkscape:connector-curvature="0"
         d="m 175.28477,96.139158 q 0.3125,0.4 0.4625,0.925 0.1625,0.525 0.1625,0.9625 0,0.4375 -0.05,0.7875 l -3.925,0 q 0.025,0.7375 0.3625,1.200002 0.3375,0.4625 1.025,0.4625 0.9125,0 1.0875,-0.800002 l 1.4875,0 q -0.15,0.912502 -0.8375,1.437502 -0.7125,0.55 -1.7375,0.55 -1.2,0 -2.0125,-0.875 -0.8375,-0.912502 -0.8375,-2.337502 0,-1.4625 0.8375,-2.35 0.8,-0.85 2.0125,-0.85 1.2625,0 1.9625,0.8875 z m -1.95,0.2875 q -0.625,0 -0.975,0.4125 -0.35,0.4 -0.4125,1.0375 l 2.5875,0 q 0,-0.9875 -0.625,-1.325 -0.2375,-0.125 -0.575,-0.125 z"
         style="font-style:normal;font-variant:normal;font-weight:bold;font-stretch:normal;font-size:12.5px;line-height:125%;font-family:Karla;-inkscape-font-specification:'Karla, Bold';text-align:center;writing-mode:lr-tb;text-anchor:middle;fill:#ffffff;fill-opacity:1;stroke:none;stroke-opacity:1"
         id="path4219" />
      <path
         inkscape:connector-curvature="0"
         d="m 184.13789,97.989158 q 0,-0.3875 -0.15,-0.625 -0.1375,-0.2375 -0.4625,-0.2375 -0.325,0 -0.6125,0.1375 -0.2875,0.125 -0.525,0.375 -0.55,0.6 -0.55,1.425 0,0.5625 0.2875,0.8625 0.3,0.287502 0.7375,0.287502 0.4375,0 0.725,-0.237502 0.3,-0.25 0.55,-0.7375 l 0,-1.25 z m 1.1875,1.625 q 0,0.637502 0.4375,0.637502 0.2,0 0.45,-0.125 0.2625,-0.137502 0.4875,-0.437502 0.5375,-0.7 0.5375,-1.8625 0,-1.45 -0.9625,-2.3375 -1.0375,-0.95 -2.75,-0.95 -2.0625,0 -3.375,1.275 -1.3,1.25 -1.3,3.15 0,1.837502 1.2375,2.900002 1.3,1.1375 3.55,1.1375 l 0,1.2125 q -1.425,0 -2.5875,-0.425 -1.15,-0.4125 -1.975,-1.1375 -0.825,-0.7125 -1.275,-1.6875 -0.4375,-0.975002 -0.4375,-2.162502 0,-1.2 0.4625,-2.2375 0.4625,-1.05 1.2875,-1.7875 0.825,-0.75 1.95,-1.15 1.1375,-0.4125 2.375,-0.4125 1.25,0 2.2125,0.3625 0.9625,0.35 1.6375,0.975 0.6875,0.625 1.0625,1.475 0.375,0.8375 0.375,1.75 0,0.9125 -0.2625,1.5875 -0.2625,0.662502 -0.6875,1.125002 -0.4125,0.45 -0.9625,0.6875 -0.5375,0.2375 -1.125,0.2375 -0.575,0 -0.95,-0.2125 -0.375,-0.225 -0.4875,-0.625 l -0.075,-0.2 q -0.25,0.475 -0.6125,0.7625 -0.35,0.275 -0.875,0.275 -0.525,0 -0.9,-0.175 -0.3625,-0.175 -0.65,-0.475 -0.6375,-0.6875 -0.6375,-1.675002 0,-1.2875 0.9,-2.2 0.875,-0.9 2.1125,-0.9 0.825,0 1.3125,0.5 0.5,0.4875 0.5,1.4875 l 0,1.6375 z"
         style="font-style:normal;font-variant:normal;font-weight:bold;font-stretch:normal;font-size:12.5px;line-height:125%;font-family:Karla;-inkscape-font-specification:'Karla, Bold';text-align:center;writing-mode:lr-tb;text-anchor:middle;fill:#ffffff;fill-opacity:1;stroke:none;stroke-opacity:1"
         id="path4221" />
      <path
         inkscape:connector-curvature="0"
         d="m 191.85527,96.239158 q 0.575,-0.9875 1.75,-0.9875 1.125,0 1.925,0.85 0.85,0.9 0.85,2.35 0,1.4625 -0.8625,2.362502 -0.8,0.85 -1.9125,0.85 -1.1125,0 -1.625,-0.6625 l 0,3.45 -1.475,0 0,-9.037502 1.2125,0 0.1375,0.825 z m 1.4875,4.087502 q 0.2625,0 0.5375,-0.1125 0.2875,-0.1125 0.5125,-0.350002 0.5,-0.525 0.5,-1.4 0,-0.8875 -0.4375,-1.3875 -0.425,-0.5 -1.05,-0.5 -0.6125,0 -1.0125,0.3625 -0.3875,0.35 -0.4125,1.0125 l 0,1.0875 q 0,0.5875 0.4125,0.95 0.3875,0.337502 0.95,0.337502 z"
         style="font-style:normal;font-variant:normal;font-weight:bold;font-stretch:normal;font-size:12.5px;line-height:125%;font-family:Karla;-inkscape-font-specification:'Karla, Bold';text-align:center;writing-mode:lr-tb;text-anchor:middle;fill:#ffffff;fill-opacity:1;stroke:none;stroke-opacity:1"
         id="path4223" />
      <path
         inkscape:connector-curvature="0"
         d="m 199.59746,96.614158 q 0.55,-1.3125 1.65,-1.3125 0.2125,0 0.5375,0.0875 l -0.025,1.475 q -0.35,-0.075 -0.6875,-0.075 -1.475,0 -1.475,2.0375 l 0,2.662502 -1.475,0 0,-6.087502 1.475,0 0,1.2125 z"
         style="font-style:normal;font-variant:normal;font-weight:bold;font-stretch:normal;font-size:12.5px;line-height:125%;font-family:Karla;-inkscape-font-specification:'Karla, Bold';text-align:center;writing-mode:lr-tb;text-anchor:middle;fill:#ffffff;fill-opacity:1;stroke:none;stroke-opacity:1"
         id="path4225" />
      <path
         inkscape:connector-curvature="0"
         d="m 203.44766,95.401658 1.475,0 0,6.087502 -1.475,0 0,-6.087502 z m -0.175,-1.95 q 0,-0.4 0.2375,-0.625 0.2375,-0.2375 0.675,-0.2375 0.425,0 0.6625,0.2375 0.25,0.225 0.25,0.625 0,0.4 -0.25,0.6375 -0.2375,0.225 -0.6625,0.225 -0.4375,0 -0.675,-0.225 -0.2375,-0.2375 -0.2375,-0.6375 z"
         style="font-style:normal;font-variant:normal;font-weight:bold;font-stretch:normal;font-size:12.5px;line-height:125%;font-family:Karla;-inkscape-font-specification:'Karla, Bold';text-align:center;writing-mode:lr-tb;text-anchor:middle;fill:#ffffff;fill-opacity:1;stroke:none;stroke-opacity:1"
         id="path4227" />
      <path
         inkscape:connector-curvature="0"
         d="m 208.89863,96.464158 q 0.6,-1.2125 1.925,-1.2125 1.125,0 1.6875,0.7375 0.575,0.7375 0.575,1.95 l 0,3.550002 -1.475,0 0,-3.550002 q 0,-0.675 -0.325,-1.0125 -0.325,-0.35 -0.9125,-0.35 -0.5875,0 -1.0125,0.525 -0.4125,0.525 -0.4375,1.575 l 0,2.812502 -1.475,0 0,-6.075002 1.2875,0 0.1625,1.05 z"
         style="font-style:normal;font-variant:normal;font-weight:bold;font-stretch:normal;font-size:12.5px;line-height:125%;font-family:Karla;-inkscape-font-specification:'Karla, Bold';text-align:center;writing-mode:lr-tb;text-anchor:middle;fill:#ffffff;fill-opacity:1;stroke:none;stroke-opacity:1"
         id="path4229" />
      <path
         inkscape:connector-curvature="0"
         d="m 217.54922,95.251658 q 0.575,0 1.025,0.2 0.4625,0.1875 0.775,0.5 0.625,0.6 0.7375,1.5125 l -1.4875,0.0375 q -0.1,-0.4 -0.375,-0.6625 -0.2625,-0.2625 -0.6125,-0.2625 -0.35,0 -0.6,0.1125 -0.25,0.1 -0.4375,0.325 -0.425,0.525 -0.425,1.45 0,0.925 0.4,1.4 0.4,0.462502 0.9625,0.462502 0.575,0 0.825,-0.2625 0.2625,-0.275002 0.2625,-0.737502 l 1.4875,0 q 0,1.000002 -0.6625,1.662502 -0.675,0.675 -1.8875,0.675 -1.2,0 -2.0125,-0.875 -0.8625,-0.937502 -0.8625,-2.337502 0,-1.475 0.8625,-2.3625 0.8125,-0.8375 2.025,-0.8375 z"
         style="font-style:normal;font-variant:normal;font-weight:bold;font-stretch:normal;font-size:12.5px;line-height:125%;font-family:Karla;-inkscape-font-specification:'Karla, Bold';text-align:center;writing-mode:lr-tb;text-anchor:middle;fill:#ffffff;fill-opacity:1;stroke:none;stroke-opacity:1"
         id="path4231" />
      <path
         inkscape:connector-curvature="0"
         d="m 226.09043,96.139158 q 0.3125,0.4 0.4625,0.925 0.1625,0.525 0.1625,0.9625 0,0.4375 -0.05,0.7875 l -3.925,0 q 0.025,0.7375 0.3625,1.200002 0.3375,0.4625 1.025,0.4625 0.9125,0 1.0875,-0.800002 l 1.4875,0 q -0.15,0.912502 -0.8375,1.437502 -0.7125,0.55 -1.7375,0.55 -1.2,0 -2.0125,-0.875 -0.8375,-0.912502 -0.8375,-2.337502 0,-1.4625 0.8375,-2.35 0.8,-0.85 2.0125,-0.85 1.2625,0 1.9625,0.8875 z m -1.95,0.2875 q -0.625,0 -0.975,0.4125 -0.35,0.4 -0.4125,1.0375 l 2.5875,0 q 0,-0.9875 -0.625,-1.325 -0.2375,-0.125 -0.575,-0.125 z"
         style="font-style:normal;font-variant:normal;font-weight:bold;font-stretch:normal;font-size:12.5px;line-height:125%;font-family:Karla;-inkscape-font-specification:'Karla, Bold';text-align:center;writing-mode:lr-tb;text-anchor:middle;fill:#ffffff;fill-opacity:1;stroke:none;stroke-opacity:1"
         id="path4233" />
      <path
         inkscape:connector-curvature="0"
         d="m 231.91855,101.33916 q -0.825,0.325 -1.3,0.325 -0.475,0 -0.8375,-0.1125 -0.35,-0.1125 -0.625,-0.3375 -0.575,-0.5125 -0.575,-1.412502 l 0,-3.4 -0.85,0 0,-0.9875 0.85,0 0,-1.6 1.475,0 0,1.6 1.65,0 0,0.9875 -1.65,0 0,3.35 q 0,0.750002 0.7125,0.750002 0.3625,0 0.9375,-0.2 l 0.2125,1.0375 z"
         style="font-style:normal;font-variant:normal;font-weight:bold;font-stretch:normal;font-size:12.5px;line-height:125%;font-family:Karla;-inkscape-font-specification:'Karla, Bold';text-align:center;writing-mode:lr-tb;text-anchor:middle;fill:#ffffff;fill-opacity:1;stroke:none;stroke-opacity:1"
         id="path4235" />
      <path
         inkscape:connector-curvature="0"
         d="m 235.8127,95.251658 q 0.6125,0 1.15,0.2 0.5375,0.1875 0.925,0.5875 0.8625,0.875 0.8625,2.425 0,1.525 -0.8625,2.400002 -0.775,0.8 -2.075,0.8 -1.3,0 -2.1,-0.8 -0.8625,-0.8625 -0.8625,-2.400002 0,-1.5625 0.8625,-2.425 0.7875,-0.7875 2.1,-0.7875 z m 1.4625,3.2 q 0,-0.9625 -0.375,-1.4375 -0.375,-0.4875 -1.05,-0.4875 -0.6625,0 -1.0875,0.4875 -0.425,0.475 -0.425,1.4375 0,0.9625 0.375,1.45 0.3875,0.475002 1.05,0.475002 0.6625,0 1.0875,-0.475002 0.425,-0.4875 0.425,-1.45 z"
         style="font-style:normal;font-variant:normal;font-weight:bold;font-stretch:normal;font-size:12.5px;line-height:125%;font-family:Karla;-inkscape-font-specification:'Karla, Bold';text-align:center;writing-mode:lr-tb;text-anchor:middle;fill:#ffffff;fill-opacity:1;stroke:none;stroke-opacity:1"
         id="path4237" />
      <path
         inkscape:connector-curvature="0"
         d="m 241.93086,96.464158 q 0.6,-1.2125 1.925,-1.2125 1.125,0 1.6875,0.7375 0.575,0.7375 0.575,1.95 l 0,3.550002 -1.475,0 0,-3.550002 q 0,-0.675 -0.325,-1.0125 -0.325,-0.35 -0.9125,-0.35 -0.5875,0 -1.0125,0.525 -0.4125,0.525 -0.4375,1.575 l 0,2.812502 -1.475,0 0,-6.075002 1.2875,0 0.1625,1.05 z"
         style="font-style:normal;font-variant:normal;font-weight:bold;font-stretch:normal;font-size:12.5px;line-height:125%;font-family:Karla;-inkscape-font-specification:'Karla, Bold';text-align:center;writing-mode:lr-tb;text-anchor:middle;fill:#ffffff;fill-opacity:1;stroke:none;stroke-opacity:1"
         id="path4239" />
      <path
         inkscape:connector-curvature="0"
         d="m 248.43145,101.60166 q -0.45,0 -0.7375,-0.275 -0.2875,-0.275 -0.2875,-0.7 0,-0.425 0.2875,-0.712502 0.2875,-0.2875 0.7375,-0.2875 0.45,0 0.75,0.2875 0.3,0.287502 0.3,0.712502 0,0.425 -0.3,0.7 -0.3,0.275 -0.75,0.275 z"
         style="font-style:normal;font-variant:normal;font-weight:bold;font-stretch:normal;font-size:12.5px;line-height:125%;font-family:Karla;-inkscape-font-specification:'Karla, Bold';text-align:center;writing-mode:lr-tb;text-anchor:middle;fill:#ffffff;fill-opacity:1;stroke:none;stroke-opacity:1"
         id="path4241" />
      <path
         inkscape:connector-curvature="0"
         d="m 255.19199,96.139158 q 0.3125,0.4 0.4625,0.925 0.1625,0.525 0.1625,0.9625 0,0.4375 -0.05,0.7875 l -3.925,0 q 0.025,0.7375 0.3625,1.200002 0.3375,0.4625 1.025,0.4625 0.9125,0 1.0875,-0.800002 l 1.4875,0 q -0.15,0.912502 -0.8375,1.437502 -0.7125,0.55 -1.7375,0.55 -1.2,0 -2.0125,-0.875 -0.8375,-0.912502 -0.8375,-2.337502 0,-1.4625 0.8375,-2.35 0.8,-0.85 2.0125,-0.85 1.2625,0 1.9625,0.8875 z m -1.95,0.2875 q -0.625,0 -0.975,0.4125 -0.35,0.4 -0.4125,1.0375 l 2.5875,0 q 0,-0.9875 -0.625,-1.325 -0.2375,-0.125 -0.575,-0.125 z"
         style="font-style:normal;font-variant:normal;font-weight:bold;font-stretch:normal;font-size:12.5px;line-height:125%;font-family:Karla;-inkscape-font-specification:'Karla, Bold';text-align:center;writing-mode:lr-tb;text-anchor:middle;fill:#ffffff;fill-opacity:1;stroke:none;stroke-opacity:1"
         id="path4243" />
      <path
         inkscape:connector-curvature="0"
         d="m 261.55762,100.55166 q -0.5625,1.1125 -1.725,1.1125 -1.1625,0 -1.95,-0.8875 -0.8125,-0.925002 -0.8125,-2.350002 0,-1.425 0.775,-2.3125 0.7625,-0.8625 1.9,-0.8625 1.1375,0 1.7125,0.9125 l 0,-3.25 1.4875,0 0,8.575002 -1.2125,0 -0.175,-0.9375 z m -1.5375,-3.975002 q -0.625,0 -1.05,0.5125 -0.4125,0.5 -0.4125,1.35 0,0.85 0.425,1.375 0.425,0.512502 1.075,0.512502 0.5375,0 0.9625,-0.425002 0.4375,-0.4375 0.4375,-1.1 l 0,-0.7875 q -0.025,-0.65 -0.4375,-1.0625 -0.375,-0.375 -1,-0.375 z"
         style="font-style:normal;font-variant:normal;font-weight:bold;font-stretch:normal;font-size:12.5px;line-height:125%;font-family:Karla;-inkscape-font-specification:'Karla, Bold';text-align:center;writing-mode:lr-tb;text-anchor:middle;fill:#ffffff;fill-opacity:1;stroke:none;stroke-opacity:1"
         id="path4245" />
      <path
         inkscape:connector-curvature="0"
         d="m 269.29863,100.38916 q -0.575,1.2125 -1.85,1.2125 -1.6125,0 -2.125,-1.2625 -0.1875,-0.437502 -0.1875,-1.062502 l 0,-3.875 1.475,0 0,3.725 q 0,0.6 0.2875,0.900002 0.2875,0.2875 0.7,0.2875 0.425,0 0.7125,-0.1125 0.2875,-0.125 0.5,-0.362502 0.4625,-0.5375 0.4875,-1.4375 l 0,-3 1.475,0 0,6.087502 -1.475,0 0,-1.1 z"
         style="font-style:normal;font-variant:normal;font-weight:bold;font-stretch:normal;font-size:12.5px;line-height:125%;font-family:Karla;-inkscape-font-specification:'Karla, Bold';text-align:center;writing-mode:lr-tb;text-anchor:middle;fill:#ffffff;fill-opacity:1;stroke:none;stroke-opacity:1"
         id="path4247" />
      <path
         inkscape:connector-curvature="0"
         d="m 177.36543,115.26416 q 0.025,0.8625 1.2625,0.8625 0.475,0 0.775,-0.2 0.3125,-0.2125 0.3125,-0.4875 0,-0.275 -0.1875,-0.425 -0.1875,-0.15 -0.5875,-0.275 l -1.325,-0.475 q -1.475,-0.5125 -1.475,-1.675 0,-0.775 0.6875,-1.2375 0.7,-0.475 1.8625,-0.475 1.175,0 1.8,0.5125 0.6375,0.5125 0.6625,1.2875 l -1.3875,0 q -0.025,-0.3 -0.2875,-0.475 -0.2625,-0.175 -0.75,-0.175 -0.4875,0 -0.7625,0.2 -0.2625,0.1875 -0.2625,0.4375 0,0.4375 0.7375,0.65 l 1.4375,0.5375 q 0.7125,0.2375 1.0875,0.6125 0.3875,0.3625 0.3875,0.95 0,0.75 -0.7125,1.3 -0.7375,0.575 -1.95,0.575 -1.2125,0 -1.95,-0.525 -0.7375,-0.5375 -0.75,-1.5 l 1.375,0 z"
         style="font-style:normal;font-variant:normal;font-weight:bold;font-stretch:normal;font-size:12.5px;line-height:125%;font-family:Karla;-inkscape-font-specification:'Karla, Bold';text-align:center;writing-mode:lr-tb;text-anchor:middle;fill:#ffffff;fill-opacity:1;stroke:none;stroke-opacity:1"
         id="path4249" />
      <path
         inkscape:connector-curvature="0"
         d="m 187.16973,116.01416 q -0.575,1.2125 -1.85,1.2125 -1.6125,0 -2.125,-1.2625 -0.1875,-0.4375 -0.1875,-1.0625 l 0,-3.875 1.475,0 0,3.725 q 0,0.6 0.2875,0.9 0.2875,0.2875 0.7,0.2875 0.425,0 0.7125,-0.1125 0.2875,-0.125 0.5,-0.3625 0.4625,-0.5375 0.4875,-1.4375 l 0,-3 1.475,0 0,6.0875 -1.475,0 0,-1.1 z"
         style="font-style:normal;font-variant:normal;font-weight:bold;font-stretch:normal;font-size:12.5px;line-height:125%;font-family:Karla;-inkscape-font-specification:'Karla, Bold';text-align:center;writing-mode:lr-tb;text-anchor:middle;fill:#ffffff;fill-opacity:1;stroke:none;stroke-opacity:1"
         id="path4251" />
      <path
         inkscape:connector-curvature="0"
         d="m 192.39473,112.08916 q 0.6,-1.2125 1.925,-1.2125 1.125,0 1.6875,0.7375 0.575,0.7375 0.575,1.95 l 0,3.55 -1.475,0 0,-3.55 q 0,-0.675 -0.325,-1.0125 -0.325,-0.35 -0.9125,-0.35 -0.5875,0 -1.0125,0.525 -0.4125,0.525 -0.4375,1.575 l 0,2.8125 -1.475,0 0,-6.075 1.2875,0 0.1625,1.05 z"
         style="font-style:normal;font-variant:normal;font-weight:bold;font-stretch:normal;font-size:12.5px;line-height:125%;font-family:Karla;-inkscape-font-specification:'Karla, Bold';text-align:center;writing-mode:lr-tb;text-anchor:middle;fill:#ffffff;fill-opacity:1;stroke:none;stroke-opacity:1"
         id="path4253" />
      <path
         inkscape:connector-curvature="0"
         d="m 200.18281,112.08916 q 0.6,-1.2125 1.925,-1.2125 1.125,0 1.6875,0.7375 0.575,0.7375 0.575,1.95 l 0,3.55 -1.475,0 0,-3.55 q 0,-0.675 -0.325,-1.0125 -0.325,-0.35 -0.9125,-0.35 -0.5875,0 -1.0125,0.525 -0.4125,0.525 -0.4375,1.575 l 0,2.8125 -1.475,0 0,-6.075 1.2875,0 0.1625,1.05 z"
         style="font-style:normal;font-variant:normal;font-weight:bold;font-stretch:normal;font-size:12.5px;line-height:125%;font-family:Karla;-inkscape-font-specification:'Karla, Bold';text-align:center;writing-mode:lr-tb;text-anchor:middle;fill:#ffffff;fill-opacity:1;stroke:none;stroke-opacity:1"
         id="path4255" />
      <path
         inkscape:connector-curvature="0"
         d="m 207.2709,111.03916 1.4625,4.375 1.275,-4.375 1.5,0 -2.325,7.175 q -0.3625,1.0875 -0.8875,1.5625 -0.5125,0.475 -1.3125,0.475 -0.8125,0 -1.625,-0.4 l 0,-1.3 q 0.65,0.4125 1.3125,0.4125 0.4375,0 0.7125,-0.35 0.2875,-0.35 0.4625,-0.9125 l 0.1875,-0.5875 -2.4375,-6.075 1.675,0 z"
         style="font-style:normal;font-variant:normal;font-weight:bold;font-stretch:normal;font-size:12.5px;line-height:125%;font-family:Karla;-inkscape-font-specification:'Karla, Bold';text-align:center;writing-mode:lr-tb;text-anchor:middle;fill:#ffffff;fill-opacity:1;stroke:none;stroke-opacity:1"
         id="path4257" />
      <path
         inkscape:connector-curvature="0"
         d="m 214.29473,112.02666 q 0.625,-1.15 1.825,-1.15 1.2,0 1.7625,0.7375 0.575,0.7375 0.575,1.95 l 0,3.55 -1.475,0 0,-3.55 q 0,-0.675 -0.325,-1.0125 -0.325,-0.35 -0.9125,-0.35 -0.5875,0 -1.0125,0.525 -0.4125,0.525 -0.4375,1.575 l 0,2.8125 -1.475,0 0,-8.575 1.475,0 0,3.4875 z"
         style="font-style:normal;font-variant:normal;font-weight:bold;font-stretch:normal;font-size:12.5px;line-height:125%;font-family:Karla;-inkscape-font-specification:'Karla, Bold';text-align:center;writing-mode:lr-tb;text-anchor:middle;fill:#ffffff;fill-opacity:1;stroke:none;stroke-opacity:1"
         id="path4259" />
      <path
         inkscape:connector-curvature="0"
         d="m 224.84531,111.76416 q 0.3125,0.4 0.4625,0.925 0.1625,0.525 0.1625,0.9625 0,0.4375 -0.05,0.7875 l -3.925,0 q 0.025,0.7375 0.3625,1.2 0.3375,0.4625 1.025,0.4625 0.9125,0 1.0875,-0.8 l 1.4875,0 q -0.15,0.9125 -0.8375,1.4375 -0.7125,0.55 -1.7375,0.55 -1.2,0 -2.0125,-0.875 -0.8375,-0.9125 -0.8375,-2.3375 0,-1.4625 0.8375,-2.35 0.8,-0.85 2.0125,-0.85 1.2625,0 1.9625,0.8875 z m -1.95,0.2875 q -0.625,0 -0.975,0.4125 -0.35,0.4 -0.4125,1.0375 l 2.5875,0 q 0,-0.9875 -0.625,-1.325 -0.2375,-0.125 -0.575,-0.125 z"
         style="font-style:normal;font-variant:normal;font-weight:bold;font-stretch:normal;font-size:12.5px;line-height:125%;font-family:Karla;-inkscape-font-specification:'Karla, Bold';text-align:center;writing-mode:lr-tb;text-anchor:middle;fill:#ffffff;fill-opacity:1;stroke:none;stroke-opacity:1"
         id="path4261" />
      <path
         inkscape:connector-curvature="0"
         d="m 227.41094,117.22666 q -0.45,0 -0.7375,-0.275 -0.2875,-0.275 -0.2875,-0.7 0,-0.425 0.2875,-0.7125 0.2875,-0.2875 0.7375,-0.2875 0.45,0 0.75,0.2875 0.3,0.2875 0.3,0.7125 0,0.425 -0.3,0.7 -0.3,0.275 -0.75,0.275 z"
         style="font-style:normal;font-variant:normal;font-weight:bold;font-stretch:normal;font-size:12.5px;line-height:125%;font-family:Karla;-inkscape-font-specification:'Karla, Bold';text-align:center;writing-mode:lr-tb;text-anchor:middle;fill:#ffffff;fill-opacity:1;stroke:none;stroke-opacity:1"
         id="path4263" />
      <path
         inkscape:connector-curvature="0"
         d="m 232.32148,110.87666 q 0.6125,0 1.15,0.2 0.5375,0.1875 0.925,0.5875 0.8625,0.875 0.8625,2.425 0,1.525 -0.8625,2.4 -0.775,0.8 -2.075,0.8 -1.3,0 -2.1,-0.8 -0.8625,-0.8625 -0.8625,-2.4 0,-1.5625 0.8625,-2.425 0.7875,-0.7875 2.1,-0.7875 z m 1.4625,3.2 q 0,-0.9625 -0.375,-1.4375 -0.375,-0.4875 -1.05,-0.4875 -0.6625,0 -1.0875,0.4875 -0.425,0.475 -0.425,1.4375 0,0.9625 0.375,1.45 0.3875,0.475 1.05,0.475 0.6625,0 1.0875,-0.475 0.425,-0.4875 0.425,-1.45 z"
         style="font-style:normal;font-variant:normal;font-weight:bold;font-stretch:normal;font-size:12.5px;line-height:125%;font-family:Karla;-inkscape-font-specification:'Karla, Bold';text-align:center;writing-mode:lr-tb;text-anchor:middle;fill:#ffffff;fill-opacity:1;stroke:none;stroke-opacity:1"
         id="path4265" />
      <path
         inkscape:connector-curvature="0"
         d="m 238.46465,112.23916 q 0.55,-1.3125 1.65,-1.3125 0.2125,0 0.5375,0.0875 l -0.025,1.475 q -0.35,-0.075 -0.6875,-0.075 -1.475,0 -1.475,2.0375 l 0,2.6625 -1.475,0 0,-6.0875 1.475,0 0,1.2125 z"
         style="font-style:normal;font-variant:normal;font-weight:bold;font-stretch:normal;font-size:12.5px;line-height:125%;font-family:Karla;-inkscape-font-specification:'Karla, Bold';text-align:center;writing-mode:lr-tb;text-anchor:middle;fill:#ffffff;fill-opacity:1;stroke:none;stroke-opacity:1"
         id="path4267" />
      <path
         inkscape:connector-curvature="0"
         d="m 242.61719,114.62666 q -0.7375,-0.625 -0.7375,-1.5625 0,-0.9875 0.775,-1.6 0.75,-0.5875 1.7125,-0.5875 0.975,0 1.625,0.3625 0.075,-0.7125 0.6125,-1.15 0.525,-0.4375 1.2375,-0.4375 l -0.075,1.4125 q -1.075,0 -1.1125,0.7125 0.4625,0.575 0.4625,1.175 0,0.6 -0.2125,1.0125 -0.2125,0.4 -0.575,0.675 -0.75,0.6 -1.825,0.6 -0.6125,0 -1.1125,-0.1875 -0.5,0.15 -0.5,0.6 0,0.5625 0.95,0.5625 l 2.0375,0 q 2.075,0 2.075,1.45 0,0.4875 -0.25,0.95 -0.2375,0.475 -0.7,0.8375 -1.025,0.8 -2.575,0.8 -1.5,0 -2.4375,-0.6125 -0.875,-0.5875 -0.875,-1.4375 0,-0.5625 0.3375,-0.9 0.35,-0.325 0.9125,-0.4125 -0.7375,-0.45 -0.7375,-1.1125 0,-0.4375 0.275,-0.725 0.275,-0.3 0.7125,-0.425 z m 1.125,2.625 q -1.175,0.05 -1.175,0.8875 0,0.425 0.4875,0.675 0.5,0.2625 1.175,0.2625 0.675,0 1.05,-0.1125 0.3875,-0.1125 0.65,-0.3 0.5625,-0.375 0.5625,-0.9 0,-0.225 -0.1625,-0.375 -0.15,-0.1375 -0.45,-0.1375 l -2.1375,0 z m 1.9125,-4.2 q 0,-0.5125 -0.2875,-0.825 -0.275,-0.325 -0.85,-0.325 -0.575,0 -0.875,0.325 -0.3,0.3125 -0.3,0.825 0,0.5 0.3,0.825 0.3,0.325 0.875,0.325 0.575,0 0.85,-0.325 0.2875,-0.325 0.2875,-0.825 z"
         style="font-style:normal;font-variant:normal;font-weight:bold;font-stretch:normal;font-size:12.5px;line-height:125%;font-family:Karla;-inkscape-font-specification:'Karla, Bold';text-align:center;writing-mode:lr-tb;text-anchor:middle;fill:#ffffff;fill-opacity:1;stroke:none;stroke-opacity:1"
         id="path4269" />
    </g>
  </g>
  <g
     inkscape:groupmode="layer"
     id="layer2"
     inkscape:label="Cu" />
  <g
     inkscape:groupmode="layer"
     id="layer3"
     inkscape:label="Mask">
    <path
       style="fill:none;fill-rule:evenodd;stroke:#ffffff;stroke-width:1.79999995;stroke-linecap:butt;stroke-linejoin:miter;stroke-miterlimit:4;stroke-dasharray:none;stroke-opacity:0.75294118"
       d="m 133.9484,64.71419 164.57665,0"
       id="path4212"
       inkscape:connector-curvature="0" />
  </g>
</svg>
